SplineFontDB: 3.2
FontName: Anta-Regular
FullName: Anta
FamilyName: Anta
Weight: Regular
Copyright: Copyright (c) 2023 by Sergej Lebedev (info@typedesigner.de).
Version: Version 1.0
ItalicAngle: 0
UnderlinePosition: -540
UnderlineWidth: 150
Ascent: 1638
Descent: 410
InvalidEm: 0
sfntRevision: 0x00000000
LayerCount: 2
Layer: 0 0 "Hinten" 1
Layer: 1 0 "Vorne" 0
XUID: [1021 692 -1332537758 18685]
StyleMap: 0x0040
FSType: 8
OS2Version: 4
OS2_WeightWidthSlopeOnly: 0
OS2_UseTypoMetrics: 1
CreationTime: 1676747234
ModificationTime: 1676747755
PfmFamily: 17
TTFWeight: 500
TTFWidth: 5
LineGap: 0
VLineGap: 0
Panose: 2 0 6 3 0 0 0 0 0 0
OS2TypoAscent: 1849
OS2TypoAOffset: 0
OS2TypoDescent: -426
OS2TypoDOffset: 0
OS2TypoLinegap: 0
OS2WinAscent: 1849
OS2WinAOffset: 0
OS2WinDescent: 426
OS2WinDOffset: 0
HheadAscent: 1849
HheadAOffset: 0
HheadDescent: -426
HheadDOffset: 0
OS2SubXSize: 1331
OS2SubYSize: 1433
OS2SubXOff: 0
OS2SubYOff: 286
OS2SupXSize: 1331
OS2SupYSize: 1433
OS2SupXOff: 0
OS2SupYOff: 983
OS2StrikeYSize: 102
OS2StrikeYPos: 530
OS2CapHeight: 1422
OS2XHeight: 1049
OS2Vendor: '    '
OS2CodePages: 20000093.00000000
OS2UnicodeRanges: a00020ef.5001e8db.00001016.00000000
Lookup: 1 0 0 "'aalt' Zugriff auf alle Alternativen in Lateinisch Nachschlagetabelle 0" { "'aalt' Zugriff auf alle Alternativen in Lateinisch Nachschlagetabelle 0 Subtabelle"  } ['aalt' ('DFLT' <'dflt' > 'latn' <'dflt' > ) ]
Lookup: 1 0 0 "Einzelne Substitution Nachschlagetabelle 1" { "Einzelne Substitution Nachschlagetabelle 1 Subtabelle"  } []
Lookup: 4 0 0 "Ligaturen Substitution Nachschlagetabelle 2" { "Ligaturen Substitution Nachschlagetabelle 2 Subtabelle"  } []
Lookup: 4 0 0 "Ligaturen Substitution Nachschlagetabelle 3" { "Ligaturen Substitution Nachschlagetabelle 3 Subtabelle"  } []
Lookup: 1 0 0 "'sups' Hochgestellt in Lateinisch Nachschlagetabelle 4" { "'sups' Hochgestellt in Lateinisch Nachschlagetabelle 4 Subtabelle" ("superior") } ['sups' ('latn' <'dflt' > ) ]

StartChar: .notdef
Encoding: 65536 -1 0
GlifName: _notdef
Width: 1024
GlyphClass: 1
Flags: MW
HStem: 0 102<204 820 204 922> 990 102<204 820 204 204>
VStem: 102 102<102 102 102 990> 820 102<102 990 990 990>
LayerCount: 2
Fore
SplineSet
102 0 m 1
 102 1092 l 1
 922 1092 l 1
 922 0 l 1
 102 0 l 1
204 102 m 1
 820 102 l 1
 820 990 l 1
 204 990 l 1
 204 102 l 1
EndSplineSet
Validated: 1
EndChar

StartChar: exclam
Encoding: 33 33 4
GlifName: exclam
Width: 540
GlyphClass: 2
Flags: MW
HStem: -10 260<234 306.5> 1402 20G<165 376 376 376>
VStem: 140 260<84 156> 165 211<333 1422 333 1422>
LayerCount: 2
Fore
SplineSet
140 120 m 0xe0
 140 192 198 250 270 250 c 0
 343 250 400 193 400 120 c 0
 400 47 343 -10 270 -10 c 0
 198 -10 140 48 140 120 c 0xe0
165 333 m 1xd0
 165 1422 l 1
 376 1422 l 1
 376 333 l 1
 165 333 l 1xd0
EndSplineSet
Validated: 1
EndChar

StartChar: quotedbl
Encoding: 34 34 5
GlifName: quotedbl
Width: 622
GlyphClass: 2
Flags: MW
HStem: 1164 258<127 262 127 127 360 360 360 495>
VStem: 127 135<1164 1164> 360 135<1164 1164>
LayerCount: 2
Fore
SplineSet
120 1422 m 1
 269 1422 l 1
 262 1164 l 1
 127 1164 l 1
 120 1422 l 1
353 1422 m 1
 502 1422 l 1
 495 1164 l 1
 360 1164 l 1
 353 1422 l 1
EndSplineSet
Validated: 1
EndChar

StartChar: numbersign
Encoding: 35 35 6
GlifName: numbersign
Width: 1344
GlyphClass: 2
Flags: MW
HStem: 0 21G<307 496 307 307 744 932 744 744> 492 188<133 342 120 355 133 530 543 778 980 1187> 808 189<156 364 142 378 156 553 566 800 1002 1209> 1402 20G<407 596 596 596 844 1032 1032 1032>
LayerCount: 2
Fore
SplineSet
553 808 m 1
 543 680 l 1
 792 680 l 1
 800 808 l 1
 553 808 l 1
342 492 m 1
 120 492 l 1
 133 680 l 1
 355 680 l 1
 364 808 l 1
 142 808 l 1
 156 997 l 1
 378 997 l 1
 407 1422 l 1
 596 1422 l 1
 566 997 l 1
 814 997 l 1
 844 1422 l 1
 1032 1422 l 1
 1002 997 l 1
 1224 997 l 1
 1209 808 l 1
 988 808 l 1
 980 680 l 1
 1200 680 l 1
 1187 492 l 1
 966 492 l 1
 932 0 l 1
 744 0 l 1
 778 492 l 1
 530 492 l 1
 496 0 l 1
 307 0 l 1
 342 492 l 1
EndSplineSet
Validated: 1
EndChar

StartChar: dollar
Encoding: 36 36 7
GlifName: dollar
Width: 1439
GlyphClass: 2
Flags: MW
HStem: 0 211<141 625 141 625 811 946 141 811> 635 210<395 625 493 625 493 811 811 946> 1212 210<453.5 625 493 625 493 811 811 1228>
VStem: 140 211<973 974 974 1072 938 1078 938 1173.5> 625 186<-113 0 -113 0 211 635 845 1212 1422 1535> 1088 211<346 500 249.5 537.5>
LayerCount: 2
Fore
SplineSet
811 635 m 1
 811 211 l 1
 946 211 l 2
 1025 211 1088 270 1088 346 c 2
 1088 500 l 2
 1088 575 1024 635 946 635 c 2
 811 635 l 1
351 1072 m 2
 351 974 l 2
 351 902 414 845 493 845 c 2
 625 845 l 1
 625 1212 l 1
 493 1212 l 2
 414 1212 351 1150 351 1072 c 2
140 973 m 2
 140 1078 l 2
 140 1269 298 1422 493 1422 c 2
 625 1422 l 1
 625 1535 l 1
 811 1535 l 1
 811 1422 l 1
 1228 1422 l 1
 1228 1212 l 1
 811 1212 l 1
 811 845 l 1
 946 845 l 2
 1142 845 1299 691 1299 500 c 2
 1299 345 l 2
 1299 154 1142 0 946 0 c 2
 811 0 l 1
 811 -113 l 1
 625 -113 l 1
 625 0 l 1
 141 0 l 1
 141 211 l 1
 625 211 l 1
 625 635 l 1
 493 635 l 2
 297 635 140 786 140 973 c 2
EndSplineSet
Validated: 1
EndChar

StartChar: percent
Encoding: 37 37 8
GlifName: percent
Width: 2103
GlyphClass: 2
Flags: MW
HStem: 0 188<1515 1701 1593 1701> 579 188<324 510 402 510> 655 188<1567.5 1701 1593 1701> 1234 188<376.5 510 402 510>
VStem: 120 189<860 1141 1141 1142> 604 188<859 860 860 1141> 1311 189<281 562 562 563> 1795 188<280 281 281 562>
LayerCount: 2
Fore
SplineSet
1500 563 m 2xbf
 1500 280 l 2
 1500 229 1542 188 1593 188 c 2
 1701 188 l 2
 1753 188 1795 229 1795 280 c 2
 1795 563 l 2
 1795 614 1753 655 1701 655 c 2
 1593 655 l 2
 1542 655 1500 614 1500 563 c 2xbf
309 1142 m 2
 309 859 l 2
 309 808 351 767 402 767 c 2
 510 767 l 2xdf
 562 767 604 808 604 859 c 2
 604 1142 l 2
 604 1193 562 1234 510 1234 c 2
 402 1234 l 2
 351 1234 309 1193 309 1142 c 2
1311 281 m 2
 1311 562 l 2
 1311 717 1437 843 1593 843 c 2
 1701 843 l 2xbf
 1857 843 1983 717 1983 562 c 2
 1983 281 l 2
 1983 126 1857 0 1701 0 c 2
 1593 0 l 2
 1437 0 1311 126 1311 281 c 2
668 0 m 1
 438 0 l 1
 1434 1422 l 1
 1664 1422 l 1
 668 0 l 1
120 860 m 2
 120 1141 l 2
 120 1296 246 1422 402 1422 c 2
 510 1422 l 2
 666 1422 792 1296 792 1141 c 2
 792 860 l 2
 792 705 666 579 510 579 c 2
 402 579 l 2xdf
 246 579 120 705 120 860 c 2
EndSplineSet
Validated: 1
Ligature2: "Ligaturen Substitution Nachschlagetabelle 3 Subtabelle" zero fraction zero
Ligature2: "Ligaturen Substitution Nachschlagetabelle 3 Subtabelle" zero slash zero
EndChar

StartChar: ampersand
Encoding: 38 38 9
GlifName: ampersand
Width: 1411
GlyphClass: 2
Flags: MW
HStem: 0 211<365.5 760 459 760 760 776 459 814> 1212 210<478.5 1106 514 1106>
VStem: 120 211<340 479 304.5 535.5> 175 210<1045 1082 1082 1083 992 1176> 895 211<460 818 267 818>
LayerCount: 2
Fore
SplineSet
331 479 m 2xe8
 331 340 l 2
 331 269 388 211 459 211 c 2
 760 211 l 2
 792 211 821 213 844 218 c 1
 387 599 l 1
 350 564 331 523 331 479 c 2xe8
120 340 m 2
 120 479 l 2xe8
 120 592 165 696 243 761 c 1
 197 841 175 932 175 1045 c 2
 175 1082 l 2
 175 1270 327 1422 514 1422 c 2
 1106 1422 l 1
 1106 1212 l 1
 514 1212 l 2
 443 1212 385 1154 385 1083 c 2
 385 1045 l 2xd8
 385 939 427 840 493 786 c 2
 895 460 l 1
 895 818 l 1
 1106 818 l 1
 1106 267 l 1
 1371 0 l 1
 1074 0 l 1
 1015 59 l 1
 960 20 890 0 814 0 c 2
 459 0 l 2
 272 0 120 152 120 340 c 2
EndSplineSet
Validated: 1
EndChar

StartChar: quotesingle
Encoding: 39 39 10
GlifName: quotesingle
Width: 389
GlyphClass: 2
Flags: MW
HStem: 1146 276<127 262 127 127>
VStem: 127 135<1146 1146>
LayerCount: 2
Fore
SplineSet
120 1422 m 1
 269 1422 l 1
 262 1146 l 1
 127 1146 l 1
 120 1422 l 1
EndSplineSet
Validated: 1
EndChar

StartChar: parenleft
Encoding: 40 40 11
GlifName: parenleft
Width: 677
GlyphClass: 2
Flags: MW
HStem: -390 210<521.5 637 521.5 637> 1419 210<520.5 637>
VStem: 140 211<-61 1300>
LayerCount: 2
Fore
SplineSet
140 -61 m 2
 140 1300 l 2
 140 1554 254 1629 637 1629 c 1
 637 1419 l 1
 404 1419 351 1397 351 1300 c 2
 351 -61 l 2
 351 -157 406 -180 637 -180 c 1
 637 -390 l 1
 253 -390 140 -315 140 -61 c 2
EndSplineSet
Validated: 1
EndChar

StartChar: parenright
Encoding: 41 41 12
GlifName: parenright
Width: 677
GlyphClass: 2
Flags: MW
HStem: -390 207<40 157 40 233.5> 1422 208<40 157.5>
VStem: 329 208<-63 1303>
LayerCount: 2
Fore
SplineSet
40 -183 m 1
 274 -183 329 -160 329 -63 c 2
 329 1303 l 2
 329 1400 275 1422 40 1422 c 1
 40 1630 l 1
 426 1630 537 1557 537 1303 c 2
 537 -63 l 2
 537 -318 427 -390 40 -390 c 1
 40 -183 l 1
EndSplineSet
Validated: 1
EndChar

StartChar: asterisk
Encoding: 42 42 13
GlifName: asterisk
Width: 881
GlyphClass: 2
Flags: MW
HStem: 213 658<366 513 366 513>
VStem: 366 147<213 415 415 415 670 871>
LayerCount: 2
Fore
SplineSet
120 644 m 1
 193 769 l 1
 366 670 l 1
 366 871 l 1
 513 871 l 1
 513 670 l 1
 690 770 l 1
 759 643 l 1
 586 542 l 1
 761 441 l 1
 688 316 l 1
 513 416 l 1
 513 213 l 1
 366 213 l 1
 366 415 l 1
 193 314 l 1
 121 442 l 1
 294 544 l 1
 120 644 l 1
EndSplineSet
Validated: 1
EndChar

StartChar: plus
Encoding: 43 43 14
GlifName: plus
Width: 1274
GlyphClass: 2
Flags: MW
HStem: 466 176<140 549 140 549 725 1134>
VStem: 549 176<68 466 68 466 642 1041>
LayerCount: 2
Fore
SplineSet
140 466 m 1
 140 642 l 1
 549 642 l 1
 549 1041 l 1
 725 1041 l 1
 725 642 l 1
 1134 642 l 1
 1134 466 l 1
 725 466 l 1
 725 68 l 1
 549 68 l 1
 549 466 l 1
 140 466 l 1
EndSplineSet
Validated: 1
EndChar

StartChar: comma
Encoding: 44 44 15
GlifName: comma
Width: 470
GlyphClass: 2
Flags: MW
HStem: -150 370<40 350 150 200>
VStem: 40 310
LayerCount: 2
Fore
SplineSet
40 -150 m 1
 150 220 l 1
 350 220 l 1
 200 -150 l 1
 40 -150 l 1
EndSplineSet
Validated: 1
EndChar

StartChar: hyphen
Encoding: 45 45 16
GlifName: hyphen
Width: 867
GlyphClass: 2
Flags: MW
HStem: 466 176<120 747 120 747>
VStem: 120 627<466 642 466 642>
LayerCount: 2
Fore
SplineSet
120 466 m 1
 120 642 l 1
 747 642 l 1
 747 466 l 1
 120 466 l 1
EndSplineSet
Validated: 1
EndChar

StartChar: period
Encoding: 46 46 17
GlifName: period
Width: 490
GlyphClass: 2
Flags: MW
HStem: -10 260<209 281.5>
VStem: 115 260<84 156>
LayerCount: 2
Fore
SplineSet
115 120 m 0
 115 192 173 250 245 250 c 0
 318 250 375 193 375 120 c 0
 375 47 318 -10 245 -10 c 0
 173 -10 115 48 115 120 c 0
EndSplineSet
Validated: 1
EndChar

StartChar: slash
Encoding: 47 47 18
GlifName: slash
Width: 1391
GlyphClass: 2
Flags: MW
HStem: -42 1582<20 1371 20 1371>
VStem: 20 1351
LayerCount: 2
Fore
SplineSet
20 -42 m 1
 1131 1540 l 1
 1371 1540 l 1
 260 -42 l 1
 20 -42 l 1
EndSplineSet
Validated: 1
EndChar

StartChar: zero
Encoding: 48 48 19
GlifName: zero
Width: 1343
GlyphClass: 2
Flags: MW
HStem: 0 211<427 801 544 801> 1212 210<470 799 523 799>
VStem: 120 211<398 1022> 1013 210<398 1022>
LayerCount: 2
Fore
SplineSet
120 398 m 2
 120 1022 l 2
 120 1243 301 1422 523 1422 c 2
 799 1422 l 2
 1033 1422 1223 1243 1223 1022 c 2
 1223 398 l 2
 1223 178 1034 0 801 0 c 2
 544 0 l 2
 310 0 120 178 120 398 c 2
331 398 m 2
 331 295 426 211 544 211 c 2
 801 211 l 2
 918 211 1013 295 1013 398 c 2
 1013 1022 l 2
 1013 1127 917 1212 799 1212 c 2
 523 1212 l 2
 417 1212 331 1127 331 1022 c 2
 331 398 l 2
EndSplineSet
Validated: 1
EndChar

StartChar: one
Encoding: 49 49 20
GlifName: one
Width: 667
GlyphClass: 2
Flags: MW
HStem: 0 21G<317 527 317 317> 1212 210<70 527 70 317>
VStem: 317 210<0 1212 1212 1212>
LayerCount: 2
Fore
SplineSet
70 1212 m 1
 70 1422 l 1
 527 1422 l 1
 527 0 l 1
 317 0 l 1
 317 1212 l 1
 70 1212 l 1
EndSplineSet
Validated: 1
Substitution2: "'sups' Hochgestellt in Lateinisch Nachschlagetabelle 4 Subtabelle" onesuperior
Substitution2: "'aalt' Zugriff auf alle Alternativen in Lateinisch Nachschlagetabelle 0 Subtabelle" onesuperior
EndChar

StartChar: two
Encoding: 50 50 21
GlifName: two
Width: 1341
GlyphClass: 2
Flags: MW
HStem: 0 210<330 1220 330 1220> 1212 210<191 871 191 871>
VStem: 120 210<210 480 480 481 210 557> 1010 211<980 1072 1072 1078 892 1110.5>
LayerCount: 2
Fore
SplineSet
120 0 m 1
 120 480 l 2
 120 634 181 697 367 732 c 2
 897 834 l 2
 962 846 1010 908 1010 980 c 2
 1010 1072 l 2
 1010 1149 948 1212 871 1212 c 2
 191 1212 l 1
 191 1422 l 1
 871 1422 l 2
 1064 1422 1221 1268 1221 1078 c 2
 1221 976 l 2
 1221 808 1117 665 975 637 c 2
 380 524 l 2
 341 516 330 507 330 481 c 2
 330 210 l 1
 1220 210 l 1
 1220 0 l 1
 120 0 l 1
EndSplineSet
Validated: 1
Substitution2: "'sups' Hochgestellt in Lateinisch Nachschlagetabelle 4 Subtabelle" twosuperior
Substitution2: "'aalt' Zugriff auf alle Alternativen in Lateinisch Nachschlagetabelle 0 Subtabelle" twosuperior
EndChar

StartChar: three
Encoding: 51 51 22
GlifName: three
Width: 1334
GlyphClass: 2
Flags: MW
HStem: 0 211<120 865 120 865> 639 210<493 817 493 817> 1212 210<120 837 120 837>
VStem: 976 211<1005 1072 949.5 1110.5> 1004 210<348 480 250.5 482 250.5 525>
LayerCount: 2
Fore
SplineSet
120 0 m 1xe8
 120 211 l 1
 865 211 l 2
 942 211 1004 273 1004 348 c 2
 1004 482 l 2xe8
 1004 568 919 639 817 639 c 2
 493 639 l 1
 493 849 l 1
 817 849 l 2
 905 849 976 919 976 1005 c 2
 976 1072 l 2
 976 1149 914 1212 837 1212 c 2
 120 1212 l 1
 120 1422 l 1
 837 1422 l 2
 1031 1422 1187 1266 1187 1072 c 2
 1187 1001 l 2xf0
 1187 898 1146 813 1067 755 c 1
 1170 693 1214 610 1214 480 c 2
 1214 346 l 2
 1214 155 1057 0 865 0 c 2
 120 0 l 1xe8
EndSplineSet
Validated: 1
Substitution2: "'sups' Hochgestellt in Lateinisch Nachschlagetabelle 4 Subtabelle" threesuperior
Substitution2: "'aalt' Zugriff auf alle Alternativen in Lateinisch Nachschlagetabelle 0 Subtabelle" threesuperior
EndChar

StartChar: four
Encoding: 52 52 23
GlifName: four
Width: 1310
GlyphClass: 2
Flags: MW
HStem: 0 21G<960 1170 960 960> 585 210<373.5 960 470 960> 1402 20G<120 331 331 331 960 1170 1170 1170>
VStem: 120 211<932 934 934 1422> 960 210<0 585 585 585 795 1422 0 1422>
LayerCount: 2
Fore
SplineSet
120 932 m 2
 120 1422 l 1
 331 1422 l 1
 331 934 l 2
 331 857 393 795 470 795 c 2
 960 795 l 1
 960 1422 l 1
 1170 1422 l 1
 1170 0 l 1
 960 0 l 1
 960 585 l 1
 470 585 l 2
 277 585 120 740 120 932 c 2
EndSplineSet
Validated: 1
EndChar

StartChar: five
Encoding: 53 53 24
GlifName: five
Width: 1328
GlyphClass: 2
Flags: MW
HStem: 0 211<369.5 858 470 858> 697 205<338 859> 1212 210<338 1156 338 338>
VStem: 128 210<902 1212 902 1422> 998 210<348 540 250.5 543 250.5 585.5>
LayerCount: 2
Fore
SplineSet
120 368 m 1
 331 372 l 1
 331 274 386 211 470 211 c 2
 858 211 l 2
 935 211 998 272 998 348 c 2
 998 543 l 2
 998 628 936 697 859 697 c 2
 128 697 l 1
 128 1422 l 1
 1156 1422 l 1
 1156 1212 l 1
 338 1212 l 1
 338 902 l 1
 860 902 l 2
 1052 902 1208 740 1208 540 c 2
 1208 346 l 2
 1208 155 1051 0 858 0 c 2
 470 0 l 2
 269 0 120 156 120 368 c 1
EndSplineSet
Validated: 1
EndChar

StartChar: six
Encoding: 54 54 25
GlifName: six
Width: 1320
GlyphClass: 2
Flags: MW
HStem: 0 211<373.5 853 470 853> 705 193<331 853 331 853> 1212 210<431.5 1133 470 1133>
VStem: 120 211<347 705 898 1072> 990 210<347 579>
LayerCount: 2
Fore
SplineSet
331 705 m 1
 331 347 l 2
 331 272 393 211 470 211 c 2
 853 211 l 2
 929 211 990 272 990 347 c 2
 990 579 l 2
 990 649 929 705 853 705 c 2
 331 705 l 1
120 347 m 2
 120 1072 l 2
 120 1266 276 1422 470 1422 c 2
 1133 1422 l 1
 1133 1212 l 1
 470 1212 l 2
 393 1212 331 1149 331 1072 c 2
 331 898 l 1
 853 898 l 2
 1045 898 1200 755 1200 579 c 2
 1200 347 l 2
 1200 155 1045 0 853 0 c 2
 470 0 l 2
 277 0 120 155 120 347 c 2
EndSplineSet
Validated: 1
EndChar

StartChar: seven
Encoding: 55 55 26
GlifName: seven
Width: 1321
GlyphClass: 2
Flags: MW
HStem: 0 21G<189 432 189 189> 1212 210<120 1201 120 924>
LayerCount: 2
Fore
SplineSet
120 1212 m 1
 120 1422 l 1
 1201 1422 l 1
 1201 1270 l 1
 432 0 l 1
 189 0 l 1
 924 1212 l 1
 120 1212 l 1
EndSplineSet
Validated: 1
EndChar

StartChar: eight
Encoding: 56 56 27
GlifName: eight
Width: 1311
GlyphClass: 2
Flags: MW
HStem: 0 211<368.5 835 482 835 835 847> 639 210<426.5 805 507 805 805 850> 1211 211<454.5 819 493 805>
VStem: 115 211<366 485 322 500 322 552> 142 211<984 1072 944.5 1168.5> 959 210<984 1072 933.5 1110.5> 986 210<363 366 366 500 265 538.5>
LayerCount: 2
Fore
SplineSet
326 485 m 2xf2
 326 364 l 2
 326 280 396 211 482 211 c 2
 835 211 l 2
 918 211 986 279 986 363 c 2
 986 500 l 2
 986 577 925 639 850 639 c 2
 465 639 l 2
 388 639 326 570 326 485 c 2xf2
353 1072 m 2xec
 353 984 l 2
 353 905 417 849 507 849 c 2
 805 849 l 2
 895 849 959 905 959 984 c 2
 959 1072 l 2
 959 1149 890 1211 805 1211 c 2
 493 1211 l 2
 416 1211 353 1149 353 1072 c 2xec
115 366 m 2xf2
 115 500 l 2xf4
 115 604 176 701 274 754 c 1
 189 802 142 883 142 984 c 2
 142 1072 l 2
 142 1265 299 1422 493 1422 c 2
 819 1422 l 2
 1012 1422 1169 1265 1169 1072 c 2
 1169 984 l 2xec
 1169 883 1122 801 1038 754 c 1
 1136 701 1196 605 1196 500 c 2
 1196 366 l 2
 1196 164 1040 0 847 0 c 2
 465 0 l 2
 272 0 115 164 115 366 c 2xf2
EndSplineSet
Validated: 1
EndChar

StartChar: nine
Encoding: 57 57 28
GlifName: nine
Width: 1320
GlyphClass: 2
Flags: MW
HStem: 0 211<188 851 188 851> 525 193<372 990 468 990> 1212 210<430 851 468 851>
VStem: 120 211<844 846 846 1075> 990 210<350 525 525 525 718 1075>
LayerCount: 2
Fore
SplineSet
331 1075 m 2
 331 846 l 2
 331 775 392 718 468 718 c 2
 990 718 l 1
 990 1075 l 2
 990 1149 927 1212 851 1212 c 2
 468 1212 l 2
 392 1212 331 1151 331 1075 c 2
120 844 m 2
 120 1075 l 2
 120 1267 276 1422 468 1422 c 2
 851 1422 l 2
 1044 1422 1200 1267 1200 1075 c 2
 1200 350 l 2
 1200 157 1044 0 851 0 c 2
 188 0 l 1
 188 211 l 1
 851 211 l 2
 928 211 990 273 990 350 c 2
 990 525 l 1
 468 525 l 2
 276 525 120 668 120 844 c 2
EndSplineSet
Validated: 1
EndChar

StartChar: colon
Encoding: 58 58 29
GlifName: colon
Width: 500
GlyphClass: 2
Flags: MW
HStem: -10 260<214 286.5> 753 260<214 286.5 214 286.5>
VStem: 120 260<84 156 846.5 919>
LayerCount: 2
Fore
SplineSet
120 120 m 0
 120 192 178 250 250 250 c 0
 323 250 380 193 380 120 c 0
 380 47 323 -10 250 -10 c 0
 178 -10 120 48 120 120 c 0
120 883 m 0
 120 955 178 1013 250 1013 c 0
 323 1013 380 956 380 883 c 0
 380 810 323 753 250 753 c 0
 177 753 120 810 120 883 c 0
EndSplineSet
Validated: 1
EndChar

StartChar: semicolon
Encoding: 59 59 30
GlifName: semicolon
Width: 500
GlyphClass: 2
Flags: MW
HStem: 753 260<214 286.5 214 286.5>
VStem: 120 260<846.5 919>
LayerCount: 2
Fore
SplineSet
40 -150 m 1
 150 220 l 1
 350 220 l 1
 200 -150 l 1
 40 -150 l 1
120 883 m 0
 120 955 178 1013 250 1013 c 0
 323 1013 380 956 380 883 c 0
 380 810 323 753 250 753 c 0
 177 753 120 810 120 883 c 0
EndSplineSet
Validated: 1
EndChar

StartChar: less
Encoding: 60 60 31
GlifName: less
Width: 1230
GlyphClass: 2
Flags: MW
HStem: 108 890<1120 1120>
VStem: 110 1010<108 631 108 631>
LayerCount: 2
Fore
SplineSet
110 475 m 1
 110 631 l 1
 1120 998 l 1
 1120 790 l 1
 471 553 l 1
 1120 317 l 1
 1120 108 l 1
 110 475 l 1
EndSplineSet
Validated: 1
EndChar

StartChar: equal
Encoding: 61 61 32
GlifName: equal
Width: 1233
GlyphClass: 2
Flags: MW
HStem: 290 176<110 1124 110 1124> 642 175<110 1124 110 1124>
LayerCount: 2
Fore
SplineSet
110 290 m 1
 110 466 l 1
 1124 466 l 1
 1124 290 l 1
 110 290 l 1
110 642 m 1
 110 817 l 1
 1124 817 l 1
 1124 642 l 1
 110 642 l 1
EndSplineSet
Validated: 1
EndChar

StartChar: greater
Encoding: 62 62 33
GlifName: greater
Width: 1230
GlyphClass: 2
Flags: MW
HStem: 108 890<110 110>
VStem: 110 1010<108 631 317 631 475 998 475 998>
LayerCount: 2
Fore
SplineSet
110 108 m 1
 110 317 l 1
 759 553 l 1
 110 790 l 1
 110 998 l 1
 1120 631 l 1
 1120 475 l 1
 110 108 l 1
EndSplineSet
Validated: 1
EndChar

StartChar: question
Encoding: 63 63 34
GlifName: question
Width: 1149
GlyphClass: 2
Flags: MW
HStem: -10 238<394 460> 1212 210<90 709 90 709>
VStem: 308 238<76 142> 818 211<967 1103 867 1133>
LayerCount: 2
Fore
SplineSet
90 1212 m 1
 90 1422 l 1
 709 1422 l 2
 889 1422 1029 1283 1029 1103 c 2
 1029 961 l 2
 1029 773 945 678 703 591 c 0
 571 542 533 517 533 478 c 2
 533 307 l 1
 322 307 l 1
 322 478 l 2
 322 625 412 710 663 799 c 0
 776 839 818 884 818 967 c 2
 818 1103 l 2
 818 1163 769 1212 709 1212 c 2
 90 1212 l 1
308 109 m 0
 308 175 361 228 427 228 c 0
 493 228 546 175 546 109 c 0
 546 43 493 -10 427 -10 c 0
 361 -10 308 43 308 109 c 0
EndSplineSet
Validated: 1
EndChar

StartChar: at
Encoding: 64 64 35
GlifName: at
Width: 1577
GlyphClass: 2
Flags: MW
HStem: 0 171<388.5 840 495 840 495 840> 337 171<733 737 737 840 733 1103.5> 914 172<733 737 737 960> 1251 171<534 536 536 1043 1043 1045>
VStem: 140 171<394 1026> 441 171<611 794> 960 170<537 914 914 914> 1267 170<733 1039 1039 1042>
LayerCount: 2
Fore
SplineSet
140 394 m 2
 140 1029 l 2
 140 1246 317 1422 534 1422 c 2
 1043 1422 l 2
 1260 1422 1437 1251 1437 1042 c 2
 1437 730 l 2
 1437 494 1247 337 960 337 c 1
 960 914 l 1
 737 914 l 2
 659 914 612 868 612 794 c 2
 612 611 l 2
 612 550 662 508 733 508 c 2
 840 508 l 1
 840 337 l 1
 737 337 l 2
 567 337 441 454 441 611 c 2
 441 814 l 2
 441 967 568 1086 733 1086 c 2
 1130 1086 l 1
 1130 537 l 1
 1211 572 1267 653 1267 733 c 2
 1267 1039 l 2
 1267 1150 1161 1251 1045 1251 c 2
 536 1251 l 2
 417 1251 311 1145 311 1026 c 2
 311 394 l 2
 311 264 387 171 495 171 c 2
 840 171 l 1
 840 0 l 1
 490 0 l 2
 287 0 140 165 140 394 c 2
EndSplineSet
Validated: 1
EndChar

StartChar: A
Encoding: 65 65 36
GlifName: A_
Width: 1361
GlyphClass: 2
Flags: MW
HStem: 0 21G<40 40 40 265 1096 1096 1096 1321> 428 210<620 865 620 941 544 865> 1402 20G<549 812 812 812>
LayerCount: 2
Fore
SplineSet
40 0 m 1
 549 1422 l 1
 812 1422 l 1
 1321 0 l 1
 1096 0 l 1
 941 428 l 1
 544 428 l 1
 620 638 l 1
 865 638 l 1
 681 1146 l 1
 265 0 l 1
 40 0 l 1
EndSplineSet
Validated: 1
EndChar

StartChar: B
Encoding: 66 66 37
GlifName: B_
Width: 1408
GlyphClass: 2
Flags: MW
HStem: 0 211<351 946> 639 210<471 889 889 928.5 471 947 471 889> 1212 210<351 351 351 889>
VStem: 140 211<211 1212 211 1422 211 1422> 1033 210<981 1072 935.5 1110.5> 1088 210<346 500 248.5 503 248.5 540.5>
LayerCount: 2
Fore
SplineSet
351 1212 m 1xf8
 351 211 l 1
 948 211 l 2
 1025 211 1088 271 1088 346 c 2
 1088 503 l 2xf4
 1088 578 1025 639 947 639 c 2
 471 639 l 1
 471 849 l 1
 889 849 l 2
 968 849 1033 908 1033 981 c 2
 1033 1072 l 2
 1033 1149 968 1212 889 1212 c 2
 351 1212 l 1xf8
946 0 m 2
 140 0 l 1
 140 1422 l 1
 889 1422 l 2
 1086 1422 1243 1267 1243 1072 c 2
 1243 979 l 2xf8
 1243 892 1213 813 1163 768 c 1
 1258 707 1298 627 1298 500 c 2
 1298 343 l 2
 1298 154 1140 0 946 0 c 2
EndSplineSet
Validated: 1
EndChar

StartChar: C
Encoding: 67 67 38
GlifName: C_
Width: 1381
GlyphClass: 2
Flags: MW
HStem: 0 211<414 1271 526 1271> 1212 210<472 1271 526 1271>
VStem: 120 211<393 396 396 1022>
LayerCount: 2
Fore
SplineSet
120 393 m 2
 120 1022 l 2
 120 1243 302 1422 526 1422 c 2
 1271 1422 l 1
 1271 1212 l 1
 526 1212 l 2
 418 1212 331 1127 331 1022 c 2
 331 396 l 2
 331 294 418 211 526 211 c 2
 1271 211 l 1
 1271 0 l 1
 526 0 l 2
 302 0 120 176 120 393 c 2
EndSplineSet
Validated: 1
EndChar

StartChar: D
Encoding: 68 68 39
GlifName: D_
Width: 1418
GlyphClass: 2
Flags: MW
HStem: 0 211<351 896 351 896> 1212 210<351 896 351 351>
VStem: 140 211<211 211 211 1212> 1088 210<399 1022>
LayerCount: 2
Fore
SplineSet
140 0 m 1
 140 1422 l 1
 896 1422 l 2
 1118 1422 1298 1243 1298 1022 c 2
 1298 396 l 2
 1298 177 1118 0 896 0 c 2
 140 0 l 1
351 211 m 1
 896 211 l 2
 1002 211 1088 295 1088 399 c 2
 1088 1022 l 2
 1088 1127 1002 1212 896 1212 c 2
 351 1212 l 1
 351 211 l 1
EndSplineSet
Validated: 1
EndChar

StartChar: E
Encoding: 69 69 40
GlifName: E_
Width: 1363
GlyphClass: 2
Flags: MW
HStem: 0 211<351 1243 351 1243> 635 210<471 1243 471 1243> 1212 210<351 1243 351 351>
VStem: 140 211<211 1212 211 1422 211 1422>
LayerCount: 2
Fore
SplineSet
140 0 m 1
 140 1422 l 1
 1243 1422 l 1
 1243 1212 l 1
 351 1212 l 1
 351 211 l 1
 1243 211 l 1
 1243 0 l 1
 140 0 l 1
471 635 m 1
 471 845 l 1
 1243 845 l 1
 1243 635 l 1
 471 635 l 1
EndSplineSet
Validated: 1
EndChar

StartChar: F
Encoding: 70 70 41
GlifName: F_
Width: 1212
GlyphClass: 2
Flags: MW
HStem: 0 21G<140 140 140 351> 635 210<471 1092 471 1092> 1212 210<351 1092 351 351>
VStem: 140 211<0 1212 0 1422 0 1422>
LayerCount: 2
Fore
SplineSet
140 0 m 1
 140 1422 l 1
 1092 1422 l 1
 1092 1212 l 1
 351 1212 l 1
 351 0 l 1
 140 0 l 1
471 635 m 1
 471 845 l 1
 1092 845 l 1
 1092 635 l 1
 471 635 l 1
EndSplineSet
Validated: 1
EndChar

StartChar: G
Encoding: 71 71 42
GlifName: G_
Width: 1421
GlyphClass: 2
Flags: MW
HStem: 0 210<427 877 544 877> 585 210<704 1090 704 1301> 1212 210<485 1217 544 1217>
VStem: 120 211<400 1022 1022 1023> 1090 211<399 400 400 585 585 585>
LayerCount: 2
Fore
SplineSet
120 400 m 2
 120 1022 l 2
 120 1243 310 1422 544 1422 c 2
 1217 1422 l 1
 1217 1212 l 1
 544 1212 l 2
 426 1212 331 1127 331 1023 c 2
 331 399 l 2
 331 295 426 210 544 210 c 2
 877 210 l 2
 995 210 1090 295 1090 399 c 2
 1090 585 l 1
 704 585 l 1
 704 795 l 1
 1301 795 l 1
 1301 400 l 2
 1301 179 1111 0 877 0 c 2
 544 0 l 2
 310 0 120 179 120 400 c 2
EndSplineSet
Validated: 1
EndChar

StartChar: H
Encoding: 72 72 43
GlifName: H_
Width: 1438
GlyphClass: 2
Flags: MW
HStem: 0 21G<140 140 140 351 1088 1088 1088 1298> 635 210<351 1088 351 1088> 1402 20G<140 351 351 351 1088 1298 1298 1298>
VStem: 140 211<0 635 845 1422> 1088 210<0 635 635 635 845 1422 0 1422>
LayerCount: 2
Fore
SplineSet
140 0 m 1
 140 1422 l 1
 351 1422 l 1
 351 845 l 1
 1088 845 l 1
 1088 1422 l 1
 1298 1422 l 1
 1298 0 l 1
 1088 0 l 1
 1088 635 l 1
 351 635 l 1
 351 0 l 1
 140 0 l 1
EndSplineSet
Validated: 1
EndChar

StartChar: I
Encoding: 73 73 44
GlifName: I_
Width: 491
GlyphClass: 2
Flags: MW
HStem: 0 21G<140 140 140 351> 1402 20G<140 351 351 351>
VStem: 140 211<0 1422 0 1422>
LayerCount: 2
Fore
SplineSet
140 0 m 1
 140 1422 l 1
 351 1422 l 1
 351 0 l 1
 140 0 l 1
EndSplineSet
Validated: 1
EndChar

StartChar: J
Encoding: 74 74 45
GlifName: J_
Width: 835
GlyphClass: 2
Flags: MW
HStem: 0 210<40 294 40 294> 1402 20G<485 695 695 695>
VStem: 485 210<398 1422>
LayerCount: 2
Fore
SplineSet
40 0 m 1
 40 210 l 1
 294 210 l 2
 399 210 485 294 485 398 c 2
 485 1422 l 1
 695 1422 l 1
 695 395 l 2
 695 177 515 0 294 0 c 2
 40 0 l 1
EndSplineSet
Validated: 1
EndChar

StartChar: K
Encoding: 75 75 46
GlifName: K_
Width: 1394
GlyphClass: 2
Flags: MW
HStem: 0 21G<140 140 140 351 1059 1059 1059 1354> 1402 20G<140 351 351 351 1020 1311 1311 1311>
VStem: 140 211<0 635 846 1422>
LayerCount: 2
Fore
SplineSet
140 0 m 1
 140 1422 l 1
 351 1422 l 1
 351 846 l 1
 456 846 l 1
 1020 1422 l 1
 1311 1422 l 1
 623 719 l 1
 1354 0 l 1
 1059 0 l 1
 413 635 l 1
 351 635 l 1
 351 0 l 1
 140 0 l 1
EndSplineSet
Validated: 1
EndChar

StartChar: L
Encoding: 76 76 47
GlifName: L_
Width: 1282
GlyphClass: 2
Flags: MW
HStem: 0 210<427.5 1242 537 1242> 1402 20G<140 350 350 350>
VStem: 140 210<398 1422>
LayerCount: 2
Fore
SplineSet
140 398 m 2
 140 1422 l 1
 350 1422 l 1
 350 398 l 2
 350 294 434 210 537 210 c 2
 1242 210 l 1
 1242 0 l 1
 537 0 l 2
 318 0 140 178 140 398 c 2
EndSplineSet
Validated: 1
EndChar

StartChar: M
Encoding: 77 77 48
GlifName: M_
Width: 1584
GlyphClass: 2
Flags: MW
HStem: 0 21G<140 140 140 351 1233 1233 1233 1444> 1402 20G<140 333 333 333 1251 1444 1444 1444>
VStem: 140 211<0 1063 0 1422> 1233 211<0 1063 1063 1063>
LayerCount: 2
Fore
SplineSet
140 0 m 1
 140 1422 l 1
 333 1422 l 1
 792 861 l 1
 1251 1422 l 1
 1444 1422 l 1
 1444 0 l 1
 1233 0 l 1
 1233 1063 l 1
 880 635 l 1
 705 635 l 1
 351 1063 l 1
 351 0 l 1
 140 0 l 1
EndSplineSet
Validated: 1
EndChar

StartChar: N
Encoding: 78 78 49
GlifName: N_
Width: 1384
GlyphClass: 2
Flags: MW
HStem: 0 21G<140 140 140 351 970 970 970 1244> 1402 20G<140 414 414 414 1033 1244 1244 1244>
VStem: 140 211<0 1102 0 1422> 1033 211<305 1422 0 1422>
LayerCount: 2
Fore
SplineSet
140 0 m 1
 140 1422 l 1
 414 1422 l 1
 1033 305 l 1
 1033 1422 l 1
 1244 1422 l 1
 1244 0 l 1
 970 0 l 1
 351 1102 l 1
 351 0 l 1
 140 0 l 1
EndSplineSet
Validated: 1
EndChar

StartChar: O
Encoding: 79 79 50
GlifName: O_
Width: 1461
GlyphClass: 2
Flags: MW
HStem: 0 210<447 897 564 897> 1212 210<505 897 564 897>
VStem: 140 211<400 1022 1022 1023> 1110 211<399 400 400 1022>
LayerCount: 2
Fore
SplineSet
140 400 m 2
 140 1022 l 2
 140 1243 330 1422 564 1422 c 2
 897 1422 l 2
 1131 1422 1321 1243 1321 1022 c 2
 1321 400 l 2
 1321 179 1131 0 897 0 c 2
 564 0 l 2
 330 0 140 179 140 400 c 2
351 399 m 2
 351 295 446 210 564 210 c 2
 897 210 l 2
 1015 210 1110 295 1110 399 c 2
 1110 1023 l 2
 1110 1127 1015 1212 897 1212 c 2
 564 1212 l 2
 446 1212 351 1127 351 1023 c 2
 351 399 l 2
EndSplineSet
Validated: 1
EndChar

StartChar: P
Encoding: 80 80 51
GlifName: P_
Width: 1348
GlyphClass: 2
Flags: MW
HStem: 0 21G<140 140 140 351> 585 210<471 892 471 892> 1212 210<351 892 351 351>
VStem: 140 211<0 1212 0 1422 0 1422> 1033 210<933 1072 834.5 1110.5>
LayerCount: 2
Fore
SplineSet
140 0 m 1
 140 1422 l 1
 892 1422 l 2
 1086 1422 1243 1265 1243 1072 c 2
 1243 930 l 2
 1243 739 1086 585 892 585 c 2
 471 585 l 1
 471 795 l 1
 892 795 l 2
 970 795 1033 856 1033 933 c 2
 1033 1072 l 2
 1033 1149 970 1212 892 1212 c 2
 351 1212 l 1
 351 0 l 1
 140 0 l 1
EndSplineSet
Validated: 1
EndChar

StartChar: Q
Encoding: 81 81 52
GlifName: Q_
Width: 1461
GlyphClass: 2
Flags: MW
HStem: 0 210<447 897 564 655> 1212 210<505 897 564 897>
VStem: 140 211<400 1022 1022 1023> 1110 211<399 400 400 1022>
LayerCount: 2
Fore
SplineSet
351 1023 m 2
 351 399 l 2
 351 295 446 210 564 210 c 2
 897 210 l 2
 1015 210 1110 295 1110 399 c 2
 1110 1023 l 2
 1110 1127 1015 1212 897 1212 c 2
 564 1212 l 2
 446 1212 351 1127 351 1023 c 2
140 400 m 2
 140 1022 l 2
 140 1243 330 1422 564 1422 c 2
 897 1422 l 2
 1131 1422 1321 1243 1321 1022 c 2
 1321 400 l 2
 1321 198 1162 28 951 3 c 1
 1077 -123 l 1
 928 -273 l 1
 655 0 l 1
 564 0 l 2
 330 0 140 179 140 400 c 2
EndSplineSet
Validated: 1
EndChar

StartChar: R
Encoding: 82 82 53
GlifName: R_
Width: 1375
GlyphClass: 2
Flags: MW
HStem: 0 21G<140 140 140 351 1058 1058 1058 1315> 585 210<471 634 471 892 891 892 892 931 471 990> 1212 210<351 892 351 351>
VStem: 140 211<0 1212 0 1422 0 1422> 1033 210<933 1072 833 1110.5>
LayerCount: 2
Fore
SplineSet
140 0 m 1
 140 1422 l 1
 892 1422 l 2
 1085 1422 1243 1265 1243 1072 c 2
 1243 930 l 2
 1243 736 1089 585 891 585 c 1
 1315 0 l 1
 1058 0 l 1
 634 585 l 1
 471 585 l 1
 471 795 l 1
 892 795 l 2
 970 795 1033 857 1033 933 c 2
 1033 1072 l 2
 1033 1149 970 1212 892 1212 c 2
 351 1212 l 1
 351 0 l 1
 140 0 l 1
EndSplineSet
Validated: 1
EndChar

StartChar: S
Encoding: 83 83 54
GlifName: S_
Width: 1399
GlyphClass: 2
Flags: MW
HStem: 0 211<121 926 121 926> 635 210<375.5 926 473 926> 1212 210<434 1209 473 1209>
VStem: 120 211<973 974 974 1072 938.5 1078 938.5 1173> 1068 211<346 499 499 500 250 536.5>
LayerCount: 2
Fore
SplineSet
120 973 m 2
 120 1078 l 2
 120 1268 278 1422 473 1422 c 2
 1209 1422 l 1
 1209 1212 l 1
 473 1212 l 2
 395 1212 331 1149 331 1072 c 2
 331 974 l 2
 331 903 395 845 473 845 c 2
 926 845 l 2
 1121 845 1279 690 1279 500 c 2
 1279 345 l 2
 1279 155 1121 0 926 0 c 2
 121 0 l 1
 121 211 l 1
 926 211 l 2
 1004 211 1068 271 1068 346 c 2
 1068 499 l 2
 1068 574 1004 635 926 635 c 2
 473 635 l 2
 278 635 120 786 120 973 c 2
EndSplineSet
Validated: 1
EndChar

StartChar: T
Encoding: 84 84 55
GlifName: T_
Width: 1238
GlyphClass: 2
Flags: MW
HStem: 0 21G<513 725 513 513> 1212 210<40 1198 40 513 725 725 725 1198>
VStem: 513 212<0 1212 0 1212>
LayerCount: 2
Fore
SplineSet
40 1212 m 1
 40 1422 l 1
 1198 1422 l 1
 1198 1212 l 1
 725 1212 l 1
 725 0 l 1
 513 0 l 1
 513 1212 l 1
 40 1212 l 1
EndSplineSet
Validated: 1
EndChar

StartChar: U
Encoding: 85 85 56
GlifName: U_
Width: 1438
GlyphClass: 2
Flags: MW
HStem: 0 211<433 894 545 894> 1402 20G<140 351 351 351 1088 1298 1298 1298>
VStem: 140 211<397 399 399 1422> 1088 210<399 1422>
LayerCount: 2
Fore
SplineSet
140 397 m 2
 140 1422 l 1
 351 1422 l 1
 351 399 l 2
 351 295 438 211 545 211 c 2
 894 211 l 2
 1001 211 1088 295 1088 399 c 2
 1088 1422 l 1
 1298 1422 l 1
 1298 397 l 2
 1298 178 1117 0 894 0 c 2
 545 0 l 2
 321 0 140 178 140 397 c 2
EndSplineSet
Validated: 1
EndChar

StartChar: V
Encoding: 86 86 57
GlifName: V_
Width: 1361
GlyphClass: 2
Flags: MW
HStem: 0 21G<549 812 549 549> 1402 20G<40 265 265 265 1096 1321 1321 1321>
LayerCount: 2
Fore
SplineSet
40 1422 m 1
 265 1422 l 1
 681 256 l 1
 1096 1422 l 1
 1321 1422 l 1
 812 0 l 1
 549 0 l 1
 40 1422 l 1
EndSplineSet
Validated: 1
EndChar

StartChar: W
Encoding: 87 87 58
GlifName: W_
Width: 1646
GlyphClass: 2
Flags: MW
HStem: 0 21G<317 508 317 317 1139 1329 1139 1139> 1402 20G<70 282 282 282 1365 1576 1576 1576>
LayerCount: 2
Fore
SplineSet
70 1422 m 1
 282 1422 l 1
 468 350 l 1
 724 816 l 1
 923 816 l 1
 1179 350 l 1
 1365 1422 l 1
 1576 1422 l 1
 1329 0 l 1
 1139 0 l 1
 823 572 l 1
 508 0 l 1
 317 0 l 1
 70 1422 l 1
EndSplineSet
Validated: 1
EndChar

StartChar: X
Encoding: 88 88 59
GlifName: X_
Width: 1372
GlyphClass: 2
Flags: MW
HStem: 0 21G<40 40 40 298 1075 1075 1075 1332> 1402 20G<40 298 298 298 1075 1332 1332 1332>
LayerCount: 2
Fore
SplineSet
40 0 m 1
 555 711 l 1
 40 1422 l 1
 298 1422 l 1
 687 883 l 1
 1075 1422 l 1
 1332 1422 l 1
 818 711 l 1
 1332 0 l 1
 1075 0 l 1
 687 540 l 1
 298 0 l 1
 40 0 l 1
EndSplineSet
Validated: 1
EndChar

StartChar: Y
Encoding: 89 89 60
GlifName: Y_
Width: 1371
GlyphClass: 2
Flags: MW
HStem: 0 21G<579 795 579 579> 1402 20G<40 297 297 297 1075 1331 1331 1331>
VStem: 579 216<0 679 0 679>
LayerCount: 2
Fore
SplineSet
40 1422 m 1
 297 1422 l 1
 687 883 l 1
 1075 1422 l 1
 1331 1422 l 1
 795 679 l 1
 795 0 l 1
 579 0 l 1
 579 679 l 1
 40 1422 l 1
EndSplineSet
Validated: 1
EndChar

StartChar: Z
Encoding: 90 90 61
GlifName: Z_
Width: 1347
GlyphClass: 2
Flags: MW
HStem: 0 208<422 1223 422 1223> 1212 210<120 927 120 1227>
LayerCount: 2
Fore
SplineSet
120 0 m 1
 120 155 l 1
 927 1212 l 1
 120 1212 l 1
 120 1422 l 1
 1227 1422 l 1
 1227 1265 l 1
 422 208 l 1
 1223 208 l 1
 1223 0 l 1
 120 0 l 1
EndSplineSet
Validated: 1
EndChar

StartChar: bracketleft
Encoding: 91 91 62
GlifName: bracketleft
Width: 610
GlyphClass: 2
Flags: MW
HStem: -390 207<323 575 323 575> 1422 208<323 575 323 323>
VStem: 115 208<-183 1422 -183 1630> 115 460<-390 -183 1422 1630>
LayerCount: 2
Fore
SplineSet
115 -390 m 1xd0
 115 1630 l 1
 575 1630 l 1
 575 1422 l 1xd0
 323 1422 l 1
 323 -183 l 1xe0
 575 -183 l 1
 575 -390 l 1
 115 -390 l 1xd0
EndSplineSet
Validated: 1
EndChar

StartChar: backslash
Encoding: 92 92 63
GlifName: backslash
Width: 1391
GlyphClass: 2
Flags: MW
HStem: -42 1582<20 1371 20 1131>
VStem: 20 1351
LayerCount: 2
Fore
SplineSet
20 1540 m 1
 260 1540 l 1
 1371 -42 l 1
 1131 -42 l 1
 20 1540 l 1
EndSplineSet
Validated: 1
EndChar

StartChar: bracketright
Encoding: 93 93 64
GlifName: bracketright
Width: 610
GlyphClass: 2
Flags: MW
HStem: -390 207<35 287 35 495 35 287> 1422 208<35 287 35 495>
VStem: 35 460<-390 -183 -183 -183 1422 1630 -390 1630> 287 208<-183 1422 1422 1422>
LayerCount: 2
Fore
SplineSet
35 -183 m 1xe0
 287 -183 l 1
 287 1422 l 1xd0
 35 1422 l 1
 35 1630 l 1
 495 1630 l 1
 495 -390 l 1
 35 -390 l 1
 35 -183 l 1xe0
EndSplineSet
Validated: 1
EndChar

StartChar: asciicircum
Encoding: 94 94 65
GlifName: asciicircum
Width: 873
GlyphClass: 2
Flags: MW
HStem: 1022 400<100 496 100 496 377 615 377 773>
VStem: 100 673<1022 1022>
LayerCount: 2
Fore
SplineSet
100 1022 m 1
 377 1422 l 1
 496 1422 l 1
 773 1022 l 1
 615 1022 l 1
 436 1270 l 1
 257 1022 l 1
 100 1022 l 1
EndSplineSet
Validated: 1
EndChar

StartChar: underscore
Encoding: 95 95 66
GlifName: underscore
Width: 1281
GlyphClass: 2
Flags: MW
HStem: -176 176<110 1171 110 1171>
LayerCount: 2
Fore
SplineSet
110 0 m 1
 1171 0 l 1
 1171 -176 l 1
 110 -176 l 1
 110 0 l 1
EndSplineSet
Validated: 1
EndChar

StartChar: grave
Encoding: 96 96 67
GlifName: grave
Width: 512
GlyphClass: 2
Flags: MW
HStem: 1170 422<283 298>
VStem: 100 312<1223 1504>
LayerCount: 2
Fore
SplineSet
100 1504 m 1
 283 1592 l 1
 412 1223 l 1
 298 1170 l 1
 100 1504 l 1
EndSplineSet
Validated: 1
EndChar

StartChar: a
Encoding: 97 97 68
GlifName: a
Width: 1182
GlyphClass: 2
Flags: MW
HStem: 0 211<381 731 484 731 484 1062 484 851> 825 211<439 1062 484 851>
VStem: 110 211<374 376 376 662> 851 211<0 825 825 825>
LayerCount: 2
Fore
SplineSet
110 374 m 2
 110 664 l 2
 110 869 278 1036 484 1036 c 2
 1062 1036 l 1
 1062 0 l 1
 851 0 l 1
 851 825 l 1
 484 825 l 2
 394 825 321 752 321 662 c 2
 321 376 l 2
 321 285 394 211 484 211 c 2
 731 211 l 1
 731 0 l 1
 484 0 l 2
 278 0 110 168 110 374 c 2
EndSplineSet
Validated: 1
Substitution2: "Einzelne Substitution Nachschlagetabelle 1 Subtabelle" ordfeminine
Substitution2: "'aalt' Zugriff auf alle Alternativen in Lateinisch Nachschlagetabelle 0 Subtabelle" ordfeminine
EndChar

StartChar: b
Encoding: 98 98 69
GlifName: b
Width: 1182
GlyphClass: 2
Flags: MW
HStem: 0 211<110 321 321 688> 825 211<441 688 441 688> 1402 20G<110 321 321 321>
VStem: 110 211<211 1422> 851 211<374 660 660 662>
LayerCount: 2
Fore
SplineSet
110 211 m 2
 110 1422 l 1
 321 1422 l 1
 321 211 l 1
 688 211 l 2
 778 211 851 284 851 374 c 2
 851 660 l 2
 851 751 778 825 688 825 c 2
 441 825 l 1
 441 1036 l 1
 688 1036 l 2
 894 1036 1062 868 1062 662 c 2
 1062 372 l 2
 1062 167 894 0 688 0 c 2
 321 0 l 2
 205 0 110 95 110 211 c 2
EndSplineSet
Validated: 1
EndChar

StartChar: c
Encoding: 99 99 70
GlifName: c
Width: 1187
GlyphClass: 2
Flags: MW
HStem: 0 211<388 1077 494 1077> 825 211<446.5 1077 494 1077>
VStem: 110 211<376 378 378 659>
LayerCount: 2
Fore
SplineSet
110 376 m 2
 110 662 l 2
 110 868 282 1036 494 1036 c 2
 1077 1036 l 1
 1077 825 l 1
 494 825 l 2
 399 825 321 751 321 659 c 2
 321 378 l 2
 321 286 398 211 494 211 c 2
 1077 211 l 1
 1077 0 l 1
 494 0 l 2
 282 0 110 169 110 376 c 2
EndSplineSet
Validated: 1
EndChar

StartChar: d
Encoding: 100 100 71
GlifName: d
Width: 1182
GlyphClass: 2
Flags: MW
HStem: 0 211<381 851 484 851> 825 211<439 731 484 731> 1402 20G<851 1062 1062 1062>
VStem: 110 211<372 374 374 660> 851 211<0 211 211 1422>
LayerCount: 2
Fore
SplineSet
110 372 m 2
 110 662 l 2
 110 868 278 1036 484 1036 c 2
 731 1036 l 1
 731 825 l 1
 484 825 l 2
 394 825 321 751 321 660 c 2
 321 374 l 2
 321 284 394 211 484 211 c 2
 851 211 l 1
 851 1422 l 1
 1062 1422 l 1
 1062 211 l 2
 1062 95 967 0 851 0 c 2
 484 0 l 2
 278 0 110 167 110 372 c 2
EndSplineSet
Validated: 1
EndChar

StartChar: e
Encoding: 101 101 72
GlifName: e
Width: 1182
GlyphClass: 2
Flags: MW
HStem: 0 211<330 999 410 999> 408 210<451 773 451 775> 825 211<341 773 773 775 331 773>
VStem: 120 211<292 293 293 822 822 825> 862 210<707 735 624 760>
LayerCount: 2
Fore
SplineSet
120 292 m 2
 120 822 l 2
 120 940 219 1036 341 1036 c 2
 773 1036 l 2
 938 1036 1072 901 1072 735 c 2
 1072 706 l 2
 1072 542 938 408 773 408 c 2
 451 408 l 1
 451 618 l 1
 775 618 l 2
 823 618 862 658 862 707 c 2
 862 735 l 2
 862 785 823 825 775 825 c 2
 331 825 l 1
 331 293 l 2
 331 248 366 211 410 211 c 2
 999 211 l 1
 999 0 l 1
 410 0 l 2
 250 0 120 131 120 292 c 2
EndSplineSet
Validated: 1
EndChar

StartChar: f
Encoding: 102 102 73
GlifName: f
Width: 719
GlyphClass: 2
Flags: MW
HStem: 0 21G<120 120 120 331> 826 210<331 653 331 653> 1212 210<394 649 418 649>
VStem: 120 211<0 826 1036 1125>
LayerCount: 2
Fore
SplineSet
120 0 m 1
 120 1125 l 2
 120 1289 254 1422 418 1422 c 2
 649 1422 l 1
 649 1212 l 1
 418 1212 l 2
 370 1212 331 1173 331 1125 c 2
 331 1036 l 1
 653 1036 l 1
 653 826 l 1
 331 826 l 1
 331 0 l 1
 120 0 l 1
EndSplineSet
Validated: 1
EndChar

StartChar: g
Encoding: 103 103 74
GlifName: g
Width: 1182
GlyphClass: 2
Flags: MW
HStem: -388 206<177 688 177 690> 0 210<381 731 484 731> 824 211<439 851 484 851>
VStem: 110 211<373 375 375 661> 851 211<-15 -14 -14 824>
LayerCount: 2
Fore
SplineSet
110 373 m 2
 110 663 l 2
 110 868 278 1035 484 1035 c 2
 851 1035 l 2
 967 1035 1062 940 1062 824 c 2
 1062 -14 l 2
 1062 -220 894 -388 688 -388 c 2
 177 -388 l 1
 177 -182 l 1
 690 -182 l 2
 779 -182 851 -107 851 -15 c 2
 851 824 l 1
 484 824 l 2
 394 824 321 751 321 661 c 2
 321 375 l 2
 321 284 394 210 484 210 c 2
 731 210 l 1
 731 0 l 1
 484 0 l 2
 278 0 110 167 110 373 c 2
EndSplineSet
Validated: 1
EndChar

StartChar: h
Encoding: 104 104 75
GlifName: h
Width: 1167
GlyphClass: 2
Flags: MW
HStem: 0 21G<120 120 120 331 836 836 836 1047> 825 211<331 657 331 657> 1402 20G<120 331 331 331>
VStem: 120 211<0 825 1036 1422> 836 211<0 660 660 663 0 704>
LayerCount: 2
Fore
SplineSet
120 0 m 1
 120 1422 l 1
 331 1422 l 1
 331 1036 l 1
 657 1036 l 2
 872 1036 1047 869 1047 663 c 2
 1047 0 l 1
 836 0 l 1
 836 660 l 2
 836 748 753 825 657 825 c 2
 331 825 l 1
 331 0 l 1
 120 0 l 1
EndSplineSet
Validated: 1
EndChar

StartChar: i
Encoding: 105 105 76
GlifName: i
Width: 452
GlyphClass: 2
Flags: MW
HStem: 0 21G<120 120 120 332> 1016 20G<120 332 332 332> 1188 260<190 262>
VStem: 96 260<1282 1354> 120 212<0 1036 0 1036>
LayerCount: 2
Fore
SplineSet
96 1318 m 0xf0
 96 1390 154 1448 226 1448 c 0
 298 1448 356 1390 356 1318 c 0
 356 1246 298 1188 226 1188 c 0
 154 1188 96 1246 96 1318 c 0xf0
120 0 m 1xe8
 120 1036 l 1
 332 1036 l 1
 332 0 l 1
 120 0 l 1xe8
EndSplineSet
Validated: 1
EndChar

StartChar: j
Encoding: 106 106 77
GlifName: j
Width: 527
GlyphClass: 2
Flags: MW
HStem: -391 211<40 113.5 40 181.5> 1016 20G<199 410 410 410> 1188 260<266 337.5 266 338>
VStem: 171 260<1281.5 1353> 199 211<-60 1036>
LayerCount: 2
Fore
SplineSet
40 -180 m 1xe8
 187 -180 199 -171 199 -60 c 2
 199 1036 l 1
 410 1036 l 1
 410 -60 l 2
 410 -313 323 -391 40 -391 c 1
 40 -180 l 1xe8
171 1317 m 0xf0
 171 1389 230 1448 302 1448 c 0
 373 1448 431 1390 431 1317 c 0
 431 1245 374 1188 302 1188 c 0
 229 1188 171 1246 171 1317 c 0xf0
EndSplineSet
Validated: 1
EndChar

StartChar: k
Encoding: 107 107 78
GlifName: k
Width: 1123
GlyphClass: 2
Flags: MW
HStem: 0 21G<120 120 120 331 798 798 798 1093> 1016 20G<777 1051 1051 1051> 1402 20G<120 331 331 331>
VStem: 120 211<0 428 639 1422>
LayerCount: 2
Fore
SplineSet
120 0 m 1
 120 1422 l 1
 331 1422 l 1
 331 639 l 1
 402 639 l 1
 777 1036 l 1
 1051 1036 l 1
 578 534 l 1
 1093 0 l 1
 798 0 l 1
 383 428 l 1
 331 428 l 1
 331 0 l 1
 120 0 l 1
EndSplineSet
Validated: 1
EndChar

StartChar: l
Encoding: 108 108 79
GlifName: l
Width: 451
GlyphClass: 2
Flags: MW
HStem: 0 21G<120 120 120 331> 1402 20G<120 331 331 331>
VStem: 120 211<0 1422 0 1422>
LayerCount: 2
Fore
SplineSet
120 0 m 1
 120 1422 l 1
 331 1422 l 1
 331 0 l 1
 120 0 l 1
EndSplineSet
Validated: 1
EndChar

StartChar: m
Encoding: 109 109 80
GlifName: m
Width: 1718
GlyphClass: 2
Flags: MW
HStem: 0 21G<120 120 120 331 751 751 751 962 1388 1388 1388 1598> 826 210<332 648 332 648 331 648 1068 1224>
VStem: 120 211<0 825 825 826 0 883> 751 211<0 732 0 758> 1388 210<0 660 660 663 0 706>
LayerCount: 2
Fore
SplineSet
120 0 m 1
 120 825 l 2
 120 941 215 1036 332 1036 c 2
 648 1036 l 2
 730 1036 806 1007 858 956 c 1
 910 1008 984 1036 1068 1036 c 2
 1224 1036 l 2
 1430 1036 1598 869 1598 663 c 2
 1598 0 l 1
 1388 0 l 1
 1388 660 l 2
 1388 752 1315 826 1224 826 c 2
 1068 826 l 2
 1009 826 962 784 962 732 c 2
 962 0 l 1
 751 0 l 1
 751 732 l 2
 751 784 705 826 648 826 c 2
 331 826 l 1
 331 0 l 1
 120 0 l 1
EndSplineSet
Validated: 1
EndChar

StartChar: n
Encoding: 110 110 81
GlifName: n
Width: 1192
GlyphClass: 2
Flags: MW
HStem: 0 21G<120 120 120 331 861 861 861 1072> 827 209<333 698 333 698 331 698>
VStem: 120 211<0 826 826 827 0 884> 861 211<0 659 659 662 0 705.5>
LayerCount: 2
Fore
SplineSet
120 0 m 1
 120 826 l 2
 120 942 215 1036 333 1036 c 2
 698 1036 l 2
 904 1036 1072 868 1072 662 c 2
 1072 0 l 1
 861 0 l 1
 861 659 l 2
 861 752 788 827 698 827 c 2
 331 827 l 1
 331 0 l 1
 120 0 l 1
EndSplineSet
Validated: 1
EndChar

StartChar: o
Encoding: 111 111 82
GlifName: o
Width: 1194
GlyphClass: 2
Flags: MW
HStem: 0 211<381 710 484 710> 825 211<439 710 484 710>
VStem: 110 211<374 376 376 660> 873 211<376 660 660 662>
LayerCount: 2
Fore
SplineSet
110 374 m 2
 110 662 l 2
 110 868 278 1036 484 1036 c 2
 710 1036 l 2
 916 1036 1084 868 1084 662 c 2
 1084 374 l 2
 1084 168 916 0 710 0 c 2
 484 0 l 2
 278 0 110 168 110 374 c 2
321 376 m 2
 321 285 394 211 484 211 c 2
 710 211 l 2
 800 211 873 285 873 376 c 2
 873 660 l 2
 873 751 800 825 710 825 c 2
 484 825 l 2
 394 825 321 751 321 660 c 2
 321 376 l 2
EndSplineSet
Validated: 1
Substitution2: "Einzelne Substitution Nachschlagetabelle 1 Subtabelle" ordmasculine
Substitution2: "'aalt' Zugriff auf alle Alternativen in Lateinisch Nachschlagetabelle 0 Subtabelle" ordmasculine
EndChar

StartChar: p
Encoding: 112 112 83
GlifName: p
Width: 1182
GlyphClass: 2
Flags: MW
HStem: 0 211<441 688 441 688> 825 211<321 688 321 688>
VStem: 110 211<-386 825 -386 883> 851 211<376 662 662 664>
LayerCount: 2
Fore
SplineSet
110 -386 m 1
 110 825 l 2
 110 941 205 1036 321 1036 c 2
 688 1036 l 2
 894 1036 1062 869 1062 664 c 2
 1062 374 l 2
 1062 168 894 0 688 0 c 2
 441 0 l 1
 441 211 l 1
 688 211 l 2
 778 211 851 285 851 376 c 2
 851 662 l 2
 851 752 778 825 688 825 c 2
 321 825 l 1
 321 -386 l 1
 110 -386 l 1
EndSplineSet
Validated: 1
EndChar

StartChar: q
Encoding: 113 113 84
GlifName: q
Width: 1182
GlyphClass: 2
Flags: MW
HStem: 0 211<381 731 484 731> 825 211<439 851 484 851>
VStem: 110 211<374 376 376 662> 851 211<-386 825 -386 825>
LayerCount: 2
Fore
SplineSet
110 374 m 2
 110 664 l 2
 110 869 278 1036 484 1036 c 2
 851 1036 l 2
 967 1036 1062 941 1062 825 c 2
 1062 -386 l 1
 851 -386 l 1
 851 825 l 1
 484 825 l 2
 394 825 321 752 321 662 c 2
 321 376 l 2
 321 285 394 211 484 211 c 2
 731 211 l 1
 731 0 l 1
 484 0 l 2
 278 0 110 168 110 374 c 2
EndSplineSet
Validated: 1
EndChar

StartChar: r
Encoding: 114 114 85
GlifName: r
Width: 719
GlyphClass: 2
Flags: MW
HStem: 0 21G<120 120 120 331> 826 210<394 649 418 649>
VStem: 120 211<0 742 0 746 0 826>
LayerCount: 2
Fore
SplineSet
120 0 m 1
 120 746 l 2
 120 906 254 1036 418 1036 c 2
 649 1036 l 1
 649 826 l 1
 418 826 l 2
 370 826 331 789 331 742 c 2
 331 0 l 1
 120 0 l 1
EndSplineSet
Validated: 1
EndChar

StartChar: s
Encoding: 115 115 86
GlifName: s
Width: 1193
GlyphClass: 2
Flags: MW
HStem: 0 211<157 786 157 786> 428 210<326 786 408 786> 825 211<384 1016 408 1016>
VStem: 110 211<720 745 697.5 825.5> 873 210<293 345 345 346 211.5 368>
LayerCount: 2
Fore
SplineSet
110 720 m 2
 110 745 l 2
 110 906 244 1036 408 1036 c 2
 1016 1036 l 1
 1016 825 l 1
 408 825 l 2
 360 825 321 789 321 745 c 2
 321 720 l 2
 321 675 360 638 408 638 c 2
 786 638 l 2
 950 638 1083 507 1083 346 c 2
 1083 292 l 2
 1083 131 950 0 786 0 c 2
 157 0 l 1
 157 211 l 1
 786 211 l 2
 834 211 873 248 873 293 c 2
 873 345 l 2
 873 391 834 428 786 428 c 2
 408 428 l 2
 244 428 110 559 110 720 c 2
EndSplineSet
Validated: 1
EndChar

StartChar: t
Encoding: 116 116 87
GlifName: t
Width: 805
GlyphClass: 2
Flags: MW
HStem: 0 211<421 735 506 735 506 735> 825 211<70 205 70 205 416 735> 1402 20G<205 416 416 416>
VStem: 205 211<293 294 294 825 1036 1422>
LayerCount: 2
Fore
SplineSet
70 825 m 1
 70 1036 l 1
 205 1036 l 1
 205 1422 l 1
 416 1422 l 1
 416 1036 l 1
 735 1036 l 1
 735 825 l 1
 416 825 l 1
 416 294 l 2
 416 248 456 211 506 211 c 2
 735 211 l 1
 735 0 l 1
 503 0 l 2
 339 0 205 131 205 293 c 2
 205 825 l 1
 70 825 l 1
EndSplineSet
Validated: 1
EndChar

StartChar: u
Encoding: 117 117 88
GlifName: u
Width: 1192
GlyphClass: 2
Flags: MW
HStem: 0 209<391 861 494 859> 1016 20G<120 331 331 331 861 1072 1072 1072>
VStem: 120 211<374 377 377 1036> 861 211<209 210 210 1036>
LayerCount: 2
Fore
SplineSet
120 374 m 2
 120 1036 l 1
 331 1036 l 1
 331 377 l 2
 331 284 404 209 494 209 c 2
 861 209 l 1
 861 1036 l 1
 1072 1036 l 1
 1072 210 l 2
 1072 94 977 0 859 0 c 2
 494 0 l 2
 288 0 120 168 120 374 c 2
EndSplineSet
Validated: 1
EndChar

StartChar: v
Encoding: 118 118 89
GlifName: v
Width: 1076
GlyphClass: 2
Flags: MW
HStem: 0 21G<434 641 434 434> 1016 20G<40 262 262 262 814 1036 1036 1036>
LayerCount: 2
Fore
SplineSet
40 1036 m 1
 262 1036 l 1
 539 305 l 1
 814 1036 l 1
 1036 1036 l 1
 641 0 l 1
 434 0 l 1
 40 1036 l 1
EndSplineSet
Validated: 1
EndChar

StartChar: w
Encoding: 119 119 90
GlifName: w
Width: 1492
GlyphClass: 2
Flags: MW
HStem: 0 21G<240 425 240 240 1068 1253 1068 1068> 1016 20G<60 272 272 272 1221 1432 1432 1432>
LayerCount: 2
Fore
SplineSet
60 1036 m 1
 272 1036 l 1
 391 350 l 1
 647 787 l 1
 846 787 l 1
 1102 350 l 1
 1221 1036 l 1
 1432 1036 l 1
 1253 0 l 1
 1068 0 l 1
 747 543 l 1
 425 0 l 1
 240 0 l 1
 60 1036 l 1
EndSplineSet
Validated: 1
EndChar

StartChar: x
Encoding: 120 120 91
GlifName: x
Width: 1199
GlyphClass: 2
Flags: MW
HStem: 0 21G<40 40 40 308 892 892 892 1159> 1016 20G<40 309 309 309 891 1159 1159 1159>
LayerCount: 2
Fore
SplineSet
40 0 m 1
 462 519 l 1
 40 1036 l 1
 309 1036 l 1
 600 677 l 1
 891 1036 l 1
 1159 1036 l 1
 738 519 l 1
 1159 0 l 1
 892 0 l 1
 600 359 l 1
 308 0 l 1
 40 0 l 1
EndSplineSet
Validated: 1
EndChar

StartChar: y
Encoding: 121 121 92
GlifName: y
Width: 1121
GlyphClass: 2
Flags: MW
HStem: -390 21G<280 511 280 280> 1016 20G<60 284 284 284 828 1061 1061 1061>
LayerCount: 2
Fore
SplineSet
60 1036 m 1
 284 1036 l 1
 553 318 l 1
 828 1036 l 1
 1061 1036 l 1
 511 -390 l 1
 280 -390 l 1
 441 34 l 1
 60 1036 l 1
EndSplineSet
Validated: 1
EndChar

StartChar: z
Encoding: 122 122 93
GlifName: z
Width: 1175
GlyphClass: 2
Flags: MW
HStem: 0 210<439 1065 439 1065> 826 210<110 733 110 1065>
LayerCount: 2
Fore
SplineSet
110 0 m 1
 110 161 l 1
 733 826 l 1
 110 826 l 1
 110 1036 l 1
 1065 1036 l 1
 1065 878 l 1
 439 210 l 1
 1065 210 l 1
 1065 0 l 1
 110 0 l 1
EndSplineSet
Validated: 1
EndChar

StartChar: braceleft
Encoding: 123 123 94
GlifName: braceleft
Width: 725
GlyphClass: 2
Flags: MW
HStem: -390 210<576.5 685 576.5 685> 521 214<90 142> 1422 210<565 685>
VStem: 223 211<-38 406 853 1261>
LayerCount: 2
Fore
SplineSet
90 521 m 1
 90 735 l 1
 212 735 223 745 223 853 c 2
 223 1261 l 2
 223 1575 294 1632 685 1632 c 1
 685 1422 l 1
 445 1422 434 1415 434 1261 c 2
 434 853 l 2
 434 771 408 685 367 629 c 1
 410 573 434 493 434 406 c 2
 434 -38 l 2
 434 -161 468 -180 685 -180 c 1
 685 -390 l 1
 298 -390 223 -333 223 -38 c 2
 223 406 l 2
 223 496 194 521 90 521 c 1
EndSplineSet
Validated: 1
EndChar

StartChar: bar
Encoding: 124 124 95
GlifName: bar
Width: 428
GlyphClass: 2
Flags: MW
VStem: 120 189<-382 1532 -382 1532>
LayerCount: 2
Fore
SplineSet
120 -382 m 1
 120 1532 l 1
 309 1532 l 1
 309 -382 l 1
 120 -382 l 1
EndSplineSet
Validated: 1
EndChar

StartChar: braceright
Encoding: 125 125 96
GlifName: braceright
Width: 725
GlyphClass: 2
Flags: MW
HStem: -390 210<40 148.5 40 233.5> 521 214<583 635> 1422 210<40 160>
VStem: 291 211<-38 406 853 1261>
LayerCount: 2
Fore
SplineSet
40 -180 m 1
 257 -180 291 -161 291 -38 c 2
 291 406 l 2
 291 493 315 573 358 629 c 1
 317 685 291 771 291 853 c 2
 291 1261 l 2
 291 1415 280 1422 40 1422 c 1
 40 1632 l 1
 431 1632 502 1575 502 1261 c 2
 502 853 l 2
 502 745 513 735 635 735 c 1
 635 521 l 1
 531 521 502 496 502 406 c 2
 502 -38 l 2
 502 -333 427 -390 40 -390 c 1
 40 -180 l 1
EndSplineSet
Validated: 1
EndChar

StartChar: asciitilde
Encoding: 126 126 97
GlifName: asciitilde
Width: 1275
GlyphClass: 2
Flags: MW
HStem: 402 196<840 896.5 840 948.5> 507 199<374.5 423>
VStem: 110 203<402 437 402 490.5> 964 201<671.5 707>
LayerCount: 2
Fore
SplineSet
110 402 m 1xb0
 110 579 234 706 407 706 c 0x70
 489 706 569 687 683 641 c 0
 766 610 816 598 864 598 c 0
 929 598 964 636 964 707 c 1
 1165 707 l 1
 1165 515 1048 402 849 402 c 0xb0
 772 402 705 418 561 470 c 0
 486 497 441 507 405 507 c 0x70
 344 507 313 472 313 402 c 1
 110 402 l 1xb0
EndSplineSet
Validated: 1
EndChar

StartChar: exclamdown
Encoding: 161 161 99
GlifName: exclamdown
Width: 500
GlyphClass: 2
Flags: MW
HStem: -390 21G<144 144 144 356> 993 260<214 286>
VStem: 120 260<1087 1159> 144 212<-390 841 -390 841>
LayerCount: 2
Fore
SplineSet
120 1123 m 0xe0
 120 1195 178 1253 250 1253 c 0
 322 1253 380 1195 380 1123 c 0
 380 1051 322 993 250 993 c 0
 178 993 120 1051 120 1123 c 0xe0
144 -390 m 1xd0
 144 841 l 1
 356 841 l 1
 356 -390 l 1
 144 -390 l 1xd0
EndSplineSet
Validated: 1
EndChar

StartChar: cent
Encoding: 162 162 100
GlifName: cent
Width: 1202
GlyphClass: 2
Flags: MW
HStem: 0 21G<585 770 585 585> 197 210<398 585 504 585 770 1088 504 770> 1022 211<456.5 585 504 585 504 770 770 1088> 1402 20G<585 770 770 770>
VStem: 120 211<572 575 575 856> 585 185<0 197 0 197 407 1022 1233 1422>
LayerCount: 2
Fore
SplineSet
331 856 m 2
 331 575 l 2
 331 482 409 407 504 407 c 2
 585 407 l 1
 585 1022 l 1
 504 1022 l 2
 409 1022 331 948 331 856 c 2
120 572 m 2
 120 858 l 2
 120 1065 292 1233 504 1233 c 2
 585 1233 l 1
 585 1422 l 1
 770 1422 l 1
 770 1233 l 1
 1088 1233 l 1
 1088 1022 l 1
 770 1022 l 1
 770 407 l 1
 1088 407 l 1
 1088 197 l 1
 770 197 l 1
 770 0 l 1
 585 0 l 1
 585 197 l 1
 504 197 l 2
 292 197 120 365 120 572 c 2
EndSplineSet
Validated: 1
EndChar

StartChar: sterling
Encoding: 163 163 101
GlifName: sterling
Width: 1214
GlyphClass: 2
Flags: MW
HStem: 0 211<402 1094 402 1094> 635 211<110 224 110 224 110 227 438 438 438 962> 1212 210<561.5 1094 619 1094>
VStem: 227 211<444 635 382 635>
LayerCount: 2
Fore
SplineSet
110 635 m 1
 110 846 l 1
 224 846 l 1
 220 928 218 1009 218 1064 c 0
 218 1271 387 1422 619 1422 c 2
 1094 1422 l 1
 1094 1212 l 1
 619 1212 l 2
 504 1212 429 1154 429 1065 c 0
 429 992 431 891 434 846 c 1
 962 846 l 1
 962 635 l 1
 438 635 l 1
 438 444 l 2
 438 320 429 261 402 211 c 1
 1094 211 l 1
 1094 0 l 1
 146 0 l 1
 146 167 l 1
 203 225 227 307 227 444 c 2
 227 635 l 1
 110 635 l 1
EndSplineSet
Validated: 1
EndChar

StartChar: currency
Encoding: 164 164 102
GlifName: currency
Width: 1024
GlyphClass: 2
Flags: MW
HStem: 279 160<477 548> 867 160<475.5 548 475.5 571>
VStem: 139 160<615.5 688> 726 159<616.5 689 616.5 712>
LayerCount: 2
Fore
SplineSet
299 653 m 0
 299 535 394 439 512 439 c 0
 630 439 726 535 726 653 c 0
 726 771 630 867 512 867 c 0
 394 867 299 771 299 653 c 0
213 250 m 1
 110 355 l 1
 201 447 l 1
 160 508 139 578 139 653 c 0
 139 723 161 796 201 859 c 1
 110 951 l 1
 213 1056 l 1
 305 963 l 1
 368 1005 439 1027 512 1027 c 0
 584 1027 656 1005 719 963 c 1
 810 1056 l 1
 914 951 l 1
 823 859 l 1
 864 794 885 725 885 653 c 0
 885 580 863 507 823 447 c 1
 914 355 l 1
 810 250 l 1
 719 343 l 1
 655 301 584 279 512 279 c 0
 442 279 370 301 305 343 c 1
 213 250 l 1
EndSplineSet
Validated: 1
EndChar

StartChar: yen
Encoding: 165 165 103
GlifName: yen
Width: 1417
GlyphClass: 2
Flags: MW
HStem: 0 21G<602 818 602 602> 276 188<256 602 256 602 818 1163> 584 186<256 536 256 602 256 536 884 1163> 1402 20G<63 320 320 320 1098 1354 1354 1354>
VStem: 602 216<0 276 0 276 464 584>
LayerCount: 2
Fore
SplineSet
63 1422 m 1
 320 1422 l 1
 710 883 l 1
 1098 1422 l 1
 1354 1422 l 1
 884 770 l 1
 1163 770 l 1
 1163 584 l 1
 818 584 l 1
 818 464 l 1
 1163 464 l 1
 1163 276 l 1
 818 276 l 1
 818 0 l 1
 602 0 l 1
 602 276 l 1
 256 276 l 1
 256 464 l 1
 602 464 l 1
 602 584 l 1
 256 584 l 1
 256 770 l 1
 536 770 l 1
 63 1422 l 1
EndSplineSet
Validated: 1
EndChar

StartChar: brokenbar
Encoding: 166 166 104
GlifName: brokenbar
Width: 437
GlyphClass: 2
Flags: MW
HStem: -390 21G<120 120 120 317>
VStem: 120 197<-390 424 -390 424 725 1540>
LayerCount: 2
Fore
SplineSet
120 -390 m 1
 120 424 l 1
 317 424 l 1
 317 -390 l 1
 120 -390 l 1
120 725 m 1
 120 1540 l 1
 317 1540 l 1
 317 725 l 1
 120 725 l 1
EndSplineSet
Validated: 1
EndChar

StartChar: section
Encoding: 167 167 105
GlifName: section
Width: 1192
GlyphClass: 2
Flags: MW
HStem: 0 211<164 707 707 708 164 707> 415 211<312.5 810 386 707> 825 211<371 807 430 807 807 810> 1212 210<426 998 449 998>
VStem: 120 211<681 690 690 761 672.5 768 672.5 809.5> 155 211<1108 1129 1088 1210.5> 782 211<298 301 301 327 218 349> 862 210<690 761 761 767 632 778.5>
LayerCount: 2
Fore
SplineSet
331 761 m 2xf9
 331 690 l 2
 331 655 356 626 386 626 c 2
 810 626 l 2
 839 626 862 655 862 690 c 2
 862 761 l 2
 862 796 839 825 810 825 c 2
 386 825 l 2
 356 825 331 796 331 761 c 2xf9
120 681 m 2
 120 768 l 2xfa
 120 851 141 923 180 971 c 1
 163 1011 155 1057 155 1108 c 2
 155 1129 l 2
 155 1292 286 1422 449 1422 c 2
 998 1422 l 1
 998 1212 l 1
 449 1212 l 2
 403 1212 366 1175 366 1129 c 2
 366 1108 l 2
 366 1068 394 1036 430 1036 c 2
 807 1036 l 2
 953 1036 1072 916 1072 767 c 2
 1072 681 l 2xf5
 1072 583 1042 513 976 455 c 1
 988 415 993 380 993 327 c 2
 993 301 l 2
 993 135 865 0 708 0 c 2
 164 0 l 1
 164 211 l 1
 707 211 l 2
 748 211 782 250 782 298 c 2
 782 327 l 2xfa
 782 371 745 415 707 415 c 2
 386 415 l 2
 239 415 120 534 120 681 c 2
EndSplineSet
Validated: 1
EndChar

StartChar: dieresis
Encoding: 168 168 106
GlifName: dieresis
Width: 801
GlyphClass: 2
Flags: MW
HStem: 1201 221<199.5 261 539.5 601>
VStem: 120 221<1280.5 1342> 460 221<1280.5 1342>
LayerCount: 2
Fore
SplineSet
120 1311 m 0
 120 1373 169 1422 230 1422 c 0
 292 1422 341 1373 341 1311 c 0
 341 1250 292 1201 230 1201 c 0
 169 1201 120 1250 120 1311 c 0
460 1311 m 0
 460 1373 509 1422 570 1422 c 0
 632 1422 681 1373 681 1311 c 0
 681 1250 632 1201 570 1201 c 0
 509 1201 460 1250 460 1311 c 0
EndSplineSet
Validated: 1
EndChar

StartChar: copyright
Encoding: 169 169 107
GlifName: copyright
Width: 1277
GlyphClass: 2
Flags: MW
HStem: 366 127<343.5 856 421 856> 578 127<539 872 602 872> 1089 127<574.5 872 602 872> 1297 127<378.5 856 421 856>
VStem: 140 127<647 1144> 373 128<806 988> 1010 127<647 1144>
LayerCount: 2
Fore
SplineSet
267 1144 m 2
 267 647 l 2
 267 562 336 493 421 493 c 2
 856 493 l 2
 941 493 1010 562 1010 647 c 2
 1010 1144 l 2
 1010 1228 941 1297 856 1297 c 2
 421 1297 l 2
 336 1297 267 1228 267 1144 c 2
373 806 m 2
 373 988 l 2
 373 1114 476 1216 602 1216 c 2
 872 1216 l 1
 872 1089 l 1
 602 1089 l 2
 547 1089 501 1043 501 988 c 2
 501 806 l 2
 501 750 546 705 602 705 c 2
 872 705 l 1
 872 578 l 1
 602 578 l 2
 476 578 373 680 373 806 c 2
140 647 m 2
 140 1144 l 2
 140 1299 266 1424 421 1424 c 2
 856 1424 l 2
 1011 1424 1137 1299 1137 1144 c 2
 1137 647 l 2
 1137 492 1011 366 856 366 c 2
 421 366 l 2
 266 366 140 492 140 647 c 2
EndSplineSet
Validated: 1
EndChar

StartChar: ordfeminine
Encoding: 170 170 108
GlifName: ordfeminine
Width: 830
GlyphClass: 2
Flags: MW
HStem: 777 128<299 583 368 583 368 710> 1294 128<334.5 710 368 583>
VStem: 120 128<1006 1007 1007 1193> 583 127<905 1294 1294 1294>
LayerCount: 2
Fore
SplineSet
120 1006 m 2
 120 1194 l 2
 120 1321 229 1422 368 1422 c 2
 710 1422 l 1
 710 777 l 1
 368 777 l 2
 230 777 120 878 120 1006 c 2
248 1007 m 2
 248 950 301 905 368 905 c 2
 583 905 l 1
 583 1294 l 1
 368 1294 l 2
 301 1294 248 1250 248 1193 c 2
 248 1007 l 2
EndSplineSet
Validated: 1
EndChar

StartChar: guillemotleft
Encoding: 171 171 109
GlifName: guillemotleft
Width: 1288
GlyphClass: 2
Flags: MW
HStem: 94 913<686 686 686 1178>
VStem: 110 1068<94 604 94 604>
LayerCount: 2
Fore
SplineSet
110 497 m 1
 110 604 l 1
 686 1007 l 1
 686 783 l 1
 355 549 l 1
 686 317 l 1
 686 94 l 1
 110 497 l 1
603 497 m 1
 603 604 l 1
 1178 1007 l 1
 1178 783 l 1
 848 549 l 1
 1178 317 l 1
 1178 94 l 1
 603 497 l 1
EndSplineSet
Validated: 1
EndChar

StartChar: logicalnot
Encoding: 172 172 110
GlifName: logicalnot
Width: 1233
GlyphClass: 2
Flags: MW
HStem: 466 176<110 1124 110 948>
VStem: 948 176<231 466 466 466>
LayerCount: 2
Fore
SplineSet
110 466 m 1
 110 642 l 1
 1124 642 l 1
 1124 231 l 1
 948 231 l 1
 948 466 l 1
 110 466 l 1
EndSplineSet
Validated: 1
EndChar

StartChar: uni00AD
Encoding: 173 173 111
GlifName: uni00A_D_
Width: 847
GlyphClass: 2
Flags: MW
HStem: 466 176<110 737 110 737>
VStem: 110 627<466 642 466 642>
LayerCount: 2
Fore
SplineSet
110 466 m 1
 110 642 l 1
 737 642 l 1
 737 466 l 1
 110 466 l 1
EndSplineSet
Validated: 1
EndChar

StartChar: registered
Encoding: 174 174 112
GlifName: registered
Width: 1277
GlyphClass: 2
Flags: MW
HStem: 366 127<343.5 856 421 856> 825 127<515 576 515 708> 1092 124<515 515 515 708> 1297 127<378.5 856 421 856>
VStem: 140 127<647 1144> 388 127<577 825 952 1092> 747 127<999 1044 954.5 1057> 1010 127<647 1144>
LayerCount: 2
Fore
SplineSet
515 1092 m 1
 515 952 l 1
 708 952 l 2
 729 952 747 973 747 999 c 2
 747 1044 l 2
 747 1070 729 1092 708 1092 c 2
 515 1092 l 1
267 1144 m 2
 267 647 l 2
 267 562 336 493 421 493 c 2
 856 493 l 2
 941 493 1010 562 1010 647 c 2
 1010 1144 l 2
 1010 1228 941 1297 856 1297 c 2
 421 1297 l 2
 336 1297 267 1228 267 1144 c 2
140 647 m 2
 140 1144 l 2
 140 1299 266 1424 421 1424 c 2
 856 1424 l 2
 1011 1424 1137 1299 1137 1144 c 2
 1137 647 l 2
 1137 492 1011 366 856 366 c 2
 421 366 l 2
 266 366 140 492 140 647 c 2
515 577 m 1
 388 577 l 1
 388 1216 l 1
 708 1216 l 2
 798 1216 874 1138 874 1044 c 2
 874 999 l 2
 874 910 809 837 722 827 c 1
 912 577 l 1
 765 577 l 1
 576 825 l 1
 515 825 l 1
 515 577 l 1
EndSplineSet
Validated: 1
EndChar

StartChar: macron
Encoding: 175 175 113
GlifName: macron
Width: 837
GlyphClass: 2
Flags: MW
HStem: 1275 147<120 717 120 717>
VStem: 120 597<1275 1422 1275 1422>
LayerCount: 2
Fore
SplineSet
120 1275 m 1
 120 1422 l 1
 717 1422 l 1
 717 1275 l 1
 120 1275 l 1
EndSplineSet
Validated: 1
EndChar

StartChar: degree
Encoding: 176 176 114
GlifName: degree
Width: 718
GlyphClass: 2
Flags: MW
HStem: 915 118<274 385 333 385> 1304 118<307 385 333 385>
VStem: 120 118<1127 1210 1101 1268.5> 480 118<1127 1210 1068.5 1236>
LayerCount: 2
Fore
SplineSet
120 1127 m 2
 120 1210 l 2
 120 1327 215 1422 333 1422 c 2
 385 1422 l 2
 503 1422 598 1327 598 1210 c 2
 598 1127 l 2
 598 1010 503 915 385 915 c 2
 333 915 l 2
 215 915 120 1010 120 1127 c 2
238 1127 m 2
 238 1075 281 1033 333 1033 c 2
 385 1033 l 2
 437 1033 480 1075 480 1127 c 2
 480 1210 l 2
 480 1262 437 1304 385 1304 c 2
 333 1304 l 2
 281 1304 238 1262 238 1210 c 2
 238 1127 l 2
EndSplineSet
Validated: 1
EndChar

StartChar: plusminus
Encoding: 177 177 115
GlifName: plusminus
Width: 1213
GlyphClass: 2
Flags: MW
HStem: -3 176<110 1104 110 1104> 660 176<110 519 110 519 695 1104>
VStem: 519 176<262 660 262 660 836 1234>
LayerCount: 2
Fore
SplineSet
110 -3 m 1
 110 173 l 1
 1104 173 l 1
 1104 -3 l 1
 110 -3 l 1
110 660 m 1
 110 836 l 1
 519 836 l 1
 519 1234 l 1
 695 1234 l 1
 695 836 l 1
 1104 836 l 1
 1104 660 l 1
 695 660 l 1
 695 262 l 1
 519 262 l 1
 519 660 l 1
 110 660 l 1
EndSplineSet
Validated: 1
EndChar

StartChar: twosuperior
Encoding: 178 178 116
GlifName: twosuperior
Width: 786
GlyphClass: 2
Flags: MW
HStem: 596 131<70 715 200 715 200 715> 1291 131<111 509 111 509>
VStem: 70 130<727 879 879 880 727 924.5> 586 130<1164 1216 1216 1222 1115 1237>
LayerCount: 2
Fore
SplineSet
70 596 m 1
 70 879 l 2
 70 970 108 1009 216 1029 c 2
 523 1086 l 2
 560 1093 586 1126 586 1164 c 2
 586 1216 l 2
 586 1258 552 1291 509 1291 c 2
 111 1291 l 1
 111 1422 l 1
 509 1422 l 2
 623 1422 716 1332 716 1222 c 2
 716 1164 l 2
 716 1066 654 982 570 966 c 2
 226 901 l 2
 205 897 200 893 200 880 c 2
 200 727 l 1
 715 727 l 1
 715 596 l 1
 70 596 l 1
EndSplineSet
Validated: 1
EndChar

StartChar: threesuperior
Encoding: 179 179 117
GlifName: threesuperior
Width: 790
GlyphClass: 2
Flags: MW
HStem: 596 131<70 512 70 511> 967 130<289 484 289 484> 1291 131<70 494 494 496 70 494>
VStem: 574 130<1180 1217 1217 1219 1149.5 1237.5> 590 130<802 879 744.5 880 744.5 903.5>
LayerCount: 2
Fore
SplineSet
70 596 m 1xe8
 70 727 l 1
 512 727 l 2
 555 727 590 761 590 802 c 2
 590 880 l 2xe8
 590 927 542 967 484 967 c 2
 289 967 l 1
 289 1097 l 1
 484 1097 l 2
 534 1097 574 1134 574 1180 c 2
 574 1217 l 2
 574 1258 539 1291 496 1291 c 2
 70 1291 l 1
 70 1422 l 1
 494 1422 l 2
 610 1422 704 1331 704 1219 c 2
 704 1178 l 2xf0
 704 1121 681 1072 637 1038 c 1
 695 1001 720 953 720 879 c 2
 720 801 l 2
 720 688 626 596 511 596 c 2
 70 596 l 1xe8
EndSplineSet
Validated: 1
EndChar

StartChar: acute
Encoding: 180 180 118
GlifName: acute
Width: 512
GlyphClass: 2
Flags: MW
HStem: 1170 422<214 229>
VStem: 100 312<1223 1504>
LayerCount: 2
Fore
SplineSet
100 1223 m 1
 229 1592 l 1
 412 1504 l 1
 214 1170 l 1
 100 1223 l 1
EndSplineSet
Validated: 1
EndChar

StartChar: uni00B5
Encoding: 181 181 119
GlifName: uni00B_5
Width: 1192
GlyphClass: 2
Flags: MW
HStem: -390 21G<120 120 120 330> 0 209<466.5 861 494 859> 1016 20G<120 331 331 331 861 1072 1072 1072>
VStem: 120 211<330.5 377 377 1036> 861 211<209 210 210 1036>
LayerCount: 2
Fore
SplineSet
120 -390 m 1
 120 1036 l 1
 331 1036 l 1
 331 377 l 2
 331 284 404 209 494 209 c 2
 861 209 l 1
 861 1036 l 1
 1072 1036 l 1
 1072 210 l 2
 1072 94 977 0 859 0 c 2
 494 0 l 2
 439 0 384 13 330 38 c 1
 330 -390 l 1
 120 -390 l 1
EndSplineSet
Validated: 1
EndChar

StartChar: paragraph
Encoding: 182 182 120
GlifName: paragraph
Width: 1039
GlyphClass: 2
Flags: MW
HStem: 0 21G<480 626 480 480 752 899 752 752> 1402 20G<497 626 626 626 752 899 899 899>
VStem: 90 536<968 1172> 480 146<0 719 719 719> 752 147<0 1422 0 1422>
LayerCount: 2
Fore
SplineSet
90 1069 m 0xe8
 90 1275 259 1422 497 1422 c 2
 626 1422 l 1
 626 0 l 1
 480 0 l 1
 480 719 l 1xd8
 247 726 90 867 90 1069 c 0xe8
752 0 m 1
 752 1422 l 1
 899 1422 l 1
 899 0 l 1
 752 0 l 1
EndSplineSet
Validated: 1
EndChar

StartChar: periodcentered
Encoding: 183 183 121
GlifName: periodcentered
Width: 461
GlyphClass: 2
Flags: MW
HStem: 775 221<199.5 261>
VStem: 120 221<855.5 916.5>
LayerCount: 2
Fore
SplineSet
120 886 m 0
 120 947 169 996 230 996 c 0
 292 996 341 947 341 886 c 0
 341 824 292 775 230 775 c 0
 169 775 120 825 120 886 c 0
EndSplineSet
Validated: 1
EndChar

StartChar: cedilla
Encoding: 184 184 122
GlifName: cedilla
Width: 502
GlyphClass: 2
Flags: MW
HStem: -313 150<201.5 302>
VStem: 251 151<-227.5 -122>
LayerCount: 2
Fore
SplineSet
100 -149 m 1
 182 -162 193 -163 210 -163 c 0
 240 -163 251 -154 251 -132 c 0
 251 -112 244 -89 212 0 c 1
 360 0 l 1
 388 -75 402 -136 402 -183 c 0
 402 -272 354 -313 250 -313 c 0
 217 -313 188 -310 100 -297 c 1
 100 -149 l 1
EndSplineSet
Validated: 1
EndChar

StartChar: onesuperior
Encoding: 185 185 123
GlifName: onesuperior
Width: 413
GlyphClass: 2
Flags: MW
HStem: 1291 131<40 313 40 183>
VStem: 40 273<1291 1422 596 1422> 183 130<596 1291 1291 1291>
LayerCount: 2
Fore
SplineSet
40 1291 m 1xc0
 40 1422 l 1xc0
 313 1422 l 1
 313 596 l 1
 183 596 l 1
 183 1291 l 1xa0
 40 1291 l 1xc0
EndSplineSet
Validated: 1
EndChar

StartChar: ordmasculine
Encoding: 186 186 124
GlifName: ordmasculine
Width: 809
GlyphClass: 2
Flags: MW
HStem: 774 128<281.5 466 343 466> 1294 128<317 466 343 466>
VStem: 120 128<998.5 1007 1007 1200> 561 128<996 1189 1189 1197.5>
LayerCount: 2
Fore
SplineSet
248 1200 m 2
 248 1007 l 2
 248 990 248 989 249 984 c 0
 255 937 296 902 343 902 c 2
 466 902 l 2
 518 902 561 944 561 996 c 2
 561 1189 l 2
 561 1206 561 1207 560 1212 c 0
 554 1259 513 1294 466 1294 c 2
 343 1294 l 2
 291 1294 248 1252 248 1200 c 2
120 996 m 2
 120 1200 l 2
 120 1323 220 1422 343 1422 c 2
 466 1422 l 2
 589 1422 689 1323 689 1200 c 2
 689 996 l 2
 689 873 589 774 466 774 c 2
 343 774 l 2
 220 774 120 873 120 996 c 2
EndSplineSet
Validated: 1
EndChar

StartChar: guillemotright
Encoding: 187 187 125
GlifName: guillemotright
Width: 1288
GlyphClass: 2
Flags: MW
HStem: 94 913<110 110 110 602>
VStem: 110 1068<94 604 317 604 497 1007 497 1007>
LayerCount: 2
Fore
SplineSet
110 94 m 1
 110 317 l 1
 440 549 l 1
 110 783 l 1
 110 1007 l 1
 685 604 l 1
 685 497 l 1
 110 94 l 1
602 94 m 1
 602 317 l 1
 933 549 l 1
 602 783 l 1
 602 1007 l 1
 1178 604 l 1
 1178 497 l 1
 602 94 l 1
EndSplineSet
Validated: 1
EndChar

StartChar: onequarter
Encoding: 188 188 126
GlifName: onequarter
Width: 2043
GlyphClass: 3
Flags: MW
HStem: 0 21G<265 265 265 426 1793 1793 1793 1923> 335 131<1511 1512 1512 1793> 1292 130<120 393 120 263>
VStem: 120 273<1292 1422 588 1422> 263 130<588 1292 1292 1292> 1305 130<541 543 543 830> 1793 130<0 335 335 335 466 830 0 830>
LayerCount: 2
Fore
SplineSet
120 1292 m 1xf6
 120 1422 l 1xf6
 393 1422 l 1
 393 588 l 1
 263 588 l 1
 263 1292 l 1xee
 120 1292 l 1xf6
265 0 m 1
 1272 1422 l 1
 1433 1422 l 1
 426 0 l 1
 265 0 l 1
1305 541 m 2
 1305 830 l 1
 1435 830 l 1
 1435 543 l 2
 1435 500 1468 466 1511 466 c 2
 1793 466 l 1
 1793 830 l 1
 1923 830 l 1
 1923 0 l 1
 1793 0 l 1
 1793 335 l 1
 1512 335 l 2
 1397 335 1305 427 1305 541 c 2
EndSplineSet
Validated: 1
Ligature2: "Ligaturen Substitution Nachschlagetabelle 2 Subtabelle" onesuperior fraction four
Ligature2: "Ligaturen Substitution Nachschlagetabelle 2 Subtabelle" onesuperior slash four
Ligature2: "Ligaturen Substitution Nachschlagetabelle 2 Subtabelle" one fraction four
Ligature2: "Ligaturen Substitution Nachschlagetabelle 2 Subtabelle" one slash four
EndChar

StartChar: onehalf
Encoding: 189 189 127
GlifName: onehalf
Width: 2030
GlyphClass: 3
Flags: MW
HStem: 0 131<1392 1909 1392 1909> 699 131<1303 1703 1303 1703> 1292 130<120 393 120 263>
VStem: 120 273<1292 1422 588 1422> 263 130<588 1292 1292 1292> 1261 131<131 281 281 283 131 326> 1780 130<569 622 622 627 518.5 643.5>
LayerCount: 2
Fore
SplineSet
120 1292 m 1xf6
 120 1422 l 1xf6
 393 1422 l 1
 393 588 l 1
 263 588 l 1
 263 1292 l 1xee
 120 1292 l 1xf6
265 0 m 1
 1273 1422 l 1
 1433 1422 l 1
 425 0 l 1
 265 0 l 1
1261 0 m 1
 1261 281 l 2
 1261 371 1299 409 1409 430 c 2
 1717 489 l 2
 1754 496 1780 530 1780 569 c 2
 1780 622 l 2
 1780 665 1746 699 1703 699 c 2
 1303 699 l 1
 1303 830 l 1
 1703 830 l 2
 1817 830 1910 739 1910 627 c 2
 1910 568 l 2
 1910 469 1848 385 1764 369 c 2
 1418 304 l 2
 1397 300 1392 296 1392 283 c 2
 1392 131 l 1
 1909 131 l 1
 1909 0 l 1
 1261 0 l 1
EndSplineSet
Validated: 1
Ligature2: "Ligaturen Substitution Nachschlagetabelle 2 Subtabelle" onesuperior fraction twosuperior
Ligature2: "Ligaturen Substitution Nachschlagetabelle 2 Subtabelle" onesuperior slash twosuperior
Ligature2: "Ligaturen Substitution Nachschlagetabelle 2 Subtabelle" one fraction twosuperior
Ligature2: "Ligaturen Substitution Nachschlagetabelle 2 Subtabelle" one fraction two
Ligature2: "Ligaturen Substitution Nachschlagetabelle 2 Subtabelle" one slash twosuperior
Ligature2: "Ligaturen Substitution Nachschlagetabelle 2 Subtabelle" one slash two
EndChar

StartChar: threequarters
Encoding: 190 190 128
GlifName: threequarters
Width: 2329
GlyphClass: 3
Flags: MW
HStem: 0 21G<551 551 551 711 2069 2069 2069 2199> 335 131<1787 1788 1788 2069> 596 131<120 562 120 561> 967 130<339 534 339 534> 1291 131<120 544 544 546 120 544>
VStem: 624 130<1180 1217 1217 1219 1149.5 1237.5> 640 130<802 879 744.5 880 744.5 903.5> 1581 130<541 543 543 830> 2069 130<0 335 335 335 466 830 0 830>
LayerCount: 2
Fore
SplineSet
120 596 m 1xfb80
 120 727 l 1
 562 727 l 2
 605 727 640 761 640 802 c 2
 640 880 l 2xfb80
 640 927 592 967 534 967 c 2
 339 967 l 1
 339 1097 l 1
 534 1097 l 2
 584 1097 624 1134 624 1180 c 2
 624 1217 l 2
 624 1258 589 1291 546 1291 c 2
 120 1291 l 1
 120 1422 l 1
 544 1422 l 2
 660 1422 754 1331 754 1219 c 2
 754 1178 l 2xfd80
 754 1121 731 1072 687 1038 c 1
 745 1001 770 953 770 879 c 2
 770 801 l 2
 770 688 676 596 561 596 c 2
 120 596 l 1xfb80
551 0 m 1
 1551 1422 l 1
 1711 1422 l 1
 711 0 l 1
 551 0 l 1
1581 541 m 2
 1581 830 l 1
 1711 830 l 1
 1711 543 l 2
 1711 500 1744 466 1787 466 c 2
 2069 466 l 1
 2069 830 l 1
 2199 830 l 1
 2199 0 l 1
 2069 0 l 1
 2069 335 l 1
 1788 335 l 2
 1673 335 1581 427 1581 541 c 2
EndSplineSet
Validated: 1
Ligature2: "Ligaturen Substitution Nachschlagetabelle 2 Subtabelle" threesuperior fraction four
Ligature2: "Ligaturen Substitution Nachschlagetabelle 2 Subtabelle" threesuperior slash four
Ligature2: "Ligaturen Substitution Nachschlagetabelle 2 Subtabelle" three fraction four
Ligature2: "Ligaturen Substitution Nachschlagetabelle 2 Subtabelle" three slash four
EndChar

StartChar: questiondown
Encoding: 191 191 129
GlifName: questiondown
Width: 1149
GlyphClass: 2
Flags: MW
HStem: -390 210<320 1029 410 1029> 804 238<659 725>
VStem: 90 211<-72 -71 -71 66 -101 72 -101 166> 586 211<554 726 481 726>
LayerCount: 2
Fore
SplineSet
90 -72 m 2
 90 72 l 2
 90 260 171 352 416 442 c 0
 548 489 586 514 586 554 c 2
 586 726 l 1
 797 726 l 1
 797 554 l 2
 797 408 703 320 456 234 c 0
 342 192 301 148 301 66 c 2
 301 -71 l 2
 301 -131 350 -180 410 -180 c 2
 1029 -180 l 1
 1029 -390 l 1
 410 -390 l 2
 230 -390 90 -252 90 -72 c 2
573 923 m 0
 573 989 626 1042 692 1042 c 0
 758 1042 811 989 811 923 c 0
 811 857 758 804 692 804 c 0
 626 804 573 857 573 923 c 0
EndSplineSet
Validated: 1
EndChar

StartChar: Agrave
Encoding: 192 192 130
GlifName: A_grave
Width: 1361
GlyphClass: 2
Flags: MW
HStem: 0 21G<40 40 40 265 1096 1096 1096 1321> 428 210<620 865 620 941 544 865> 1402 20G<549 812 812 812> 1544 422<666 681>
VStem: 483 312<1597 1878>
LayerCount: 2
Fore
SplineSet
483 1878 m 1
 666 1966 l 1
 795 1597 l 1
 681 1544 l 1
 483 1878 l 1
40 0 m 1
 549 1422 l 1
 812 1422 l 1
 1321 0 l 1
 1096 0 l 1
 941 428 l 1
 544 428 l 1
 620 638 l 1
 865 638 l 1
 681 1146 l 1
 265 0 l 1
 40 0 l 1
EndSplineSet
Validated: 1
EndChar

StartChar: Aacute
Encoding: 193 193 131
GlifName: A_acute
Width: 1361
GlyphClass: 2
Flags: MW
HStem: 0 21G<40 40 40 265 1096 1096 1096 1321> 428 210<620 865 620 941 544 865> 1402 20G<549 812 812 812> 1544 422<681 696>
VStem: 567 312<1597 1878>
LayerCount: 2
Fore
SplineSet
567 1597 m 1
 696 1966 l 1
 879 1878 l 1
 681 1544 l 1
 567 1597 l 1
40 0 m 1
 549 1422 l 1
 812 1422 l 1
 1321 0 l 1
 1096 0 l 1
 941 428 l 1
 544 428 l 1
 620 638 l 1
 865 638 l 1
 681 1146 l 1
 265 0 l 1
 40 0 l 1
EndSplineSet
Validated: 1
EndChar

StartChar: Acircumflex
Encoding: 194 194 132
GlifName: A_circumflex
Width: 1361
GlyphClass: 2
Flags: MW
HStem: 0 21G<40 40 40 265 1096 1096 1096 1321> 428 210<620 865 620 941 544 865> 1402 20G<549 812 812 812> 1544 309<369 758 369 758 603 851 603 992>
VStem: 369 623<1544 1544>
LayerCount: 2
Fore
SplineSet
369 1544 m 1
 603 1853 l 1
 758 1853 l 1
 992 1544 l 1
 851 1544 l 1
 680 1716 l 1
 510 1544 l 1
 369 1544 l 1
40 0 m 1
 549 1422 l 1
 812 1422 l 1
 1321 0 l 1
 1096 0 l 1
 941 428 l 1
 544 428 l 1
 620 638 l 1
 865 638 l 1
 681 1146 l 1
 265 0 l 1
 40 0 l 1
EndSplineSet
Validated: 1
EndChar

StartChar: Atilde
Encoding: 195 195 133
GlifName: A_tilde
Width: 1361
GlyphClass: 2
Flags: MW
HStem: 0 21G<40 40 40 265 1096 1096 1096 1321> 428 210<620 865 620 941 544 865> 1402 20G<549 812 812 812> 1544 154<802.5 823.5 792.5 871.5> 1625 148<536.5 561.5 490 567.5>
VStem: 352 155<1552 1577> 853 157<1744 1768>
LayerCount: 2
Fore
SplineSet
352 1552 m 1xee
 353 1680 434 1773 546 1773 c 0xee
 577 1773 609 1764 677 1736 c 0
 750 1706 777 1698 808 1698 c 0
 839 1698 853 1720 853 1768 c 1
 1010 1768 l 1
 1010 1644 925 1544 818 1544 c 0xf6
 787 1544 755 1554 685 1584 c 0
 610 1616 583 1625 552 1625 c 0
 521 1625 507 1602 507 1552 c 1
 352 1552 l 1xee
40 0 m 1
 549 1422 l 1
 812 1422 l 1
 1321 0 l 1
 1096 0 l 1
 941 428 l 1
 544 428 l 1
 620 638 l 1
 865 638 l 1
 681 1146 l 1
 265 0 l 1
 40 0 l 1
EndSplineSet
Validated: 1
EndChar

StartChar: Adieresis
Encoding: 196 196 134
GlifName: A_dieresis
Width: 1361
GlyphClass: 2
Flags: MW
HStem: 0 21G<40 40 40 265 1096 1096 1096 1321> 428 210<620 865 620 941 544 865> 1402 20G<549 812 812 812> 1544 221<479.5 541 819.5 881>
VStem: 400 221<1623.5 1685> 740 221<1623.5 1685>
LayerCount: 2
Fore
SplineSet
400 1654 m 0
 400 1716 449 1765 510 1765 c 0
 572 1765 621 1716 621 1654 c 0
 621 1593 572 1544 510 1544 c 0
 449 1544 400 1593 400 1654 c 0
740 1654 m 0
 740 1716 789 1765 850 1765 c 0
 912 1765 961 1716 961 1654 c 0
 961 1593 912 1544 850 1544 c 0
 789 1544 740 1593 740 1654 c 0
40 0 m 1
 549 1422 l 1
 812 1422 l 1
 1321 0 l 1
 1096 0 l 1
 941 428 l 1
 544 428 l 1
 620 638 l 1
 865 638 l 1
 681 1146 l 1
 265 0 l 1
 40 0 l 1
EndSplineSet
Validated: 1
EndChar

StartChar: Aring
Encoding: 197 197 135
GlifName: A_ring
Width: 1361
GlyphClass: 2
Flags: MW
HStem: 0 21G<40 265 40 40 1096 1096 1096 1321> 428 210<620 865 620 941 544 865> 1402 20G<549 812 812 812> 1459 118<613 700 660 700> 1722 118<645.5 700 660 700>
VStem: 490 118<1628 1671 1614 1718> 752 118<1628 1671 1581 1685>
LayerCount: 2
Fore
SplineSet
608 1671 m 2
 608 1628 l 2
 608 1600 631 1577 660 1577 c 2
 700 1577 l 2
 729 1577 752 1600 752 1628 c 2
 752 1671 l 2
 752 1699 729 1722 700 1722 c 2
 660 1722 l 2
 631 1722 608 1699 608 1671 c 2
265 0 m 1
 40 0 l 1
 549 1422 l 1
 812 1422 l 1
 1321 0 l 1
 1096 0 l 1
 941 428 l 1
 544 428 l 1
 620 638 l 1
 865 638 l 1
 681 1146 l 1
 265 0 l 1
490 1628 m 2
 490 1671 l 2
 490 1765 566 1840 660 1840 c 2
 700 1840 l 2
 794 1840 870 1765 870 1671 c 2
 870 1628 l 2
 870 1534 794 1459 700 1459 c 2
 660 1459 l 2
 566 1459 490 1534 490 1628 c 2
EndSplineSet
Validated: 1
EndChar

StartChar: AE
Encoding: 198 198 136
GlifName: A_E_
Width: 2044
GlyphClass: 3
Flags: MW
HStem: 0 211<819 1924 1029 1924 1029 1924> 428 210<606 819 606 819 533 819> 635 210<1151 1923 1151 1923> 1212 210<685 819 685 685 1029 1924 1029 1029>
VStem: 819 210<211 428 428 428 638 1212 211 1212>
LayerCount: 2
Fore
SplineSet
40 0 m 1xd8
 533 1422 l 1
 1924 1422 l 1
 1924 1212 l 1
 1029 1212 l 1
 1029 211 l 1
 1924 211 l 1
 1924 0 l 1
 819 0 l 1
 819 428 l 1
 533 428 l 1
 606 638 l 1
 819 638 l 1
 819 1212 l 1
 685 1212 l 1
 264 0 l 1
 40 0 l 1xd8
1151 635 m 1xb8
 1151 845 l 1
 1923 845 l 1
 1923 635 l 1
 1151 635 l 1xb8
EndSplineSet
Validated: 1
EndChar

StartChar: Ccedilla
Encoding: 199 199 137
GlifName: C_cedilla
Width: 1381
GlyphClass: 2
Flags: MW
HStem: -303 150<611.5 712> 0 211<414 1271 526 625 773 1271 773 773> 1212 210<472 1271 526 1271>
VStem: 120 211<393 396 396 1022> 660 152<-217.5 -112.5>
LayerCount: 2
Fore
SplineSet
120 393 m 2
 120 1022 l 2
 120 1243 302 1422 526 1422 c 2
 1271 1422 l 1
 1271 1212 l 1
 526 1212 l 2
 418 1212 331 1127 331 1022 c 2
 331 396 l 2
 331 294 418 211 526 211 c 2
 1271 211 l 1
 1271 0 l 1
 773 0 l 1
 799 -74 812 -130 812 -173 c 0
 812 -262 764 -303 660 -303 c 0
 627 -303 598 -300 510 -287 c 1
 510 -139 l 1
 592 -152 603 -153 620 -153 c 0
 649 -153 660 -145 660 -122 c 0
 660 -103 654 -82 625 0 c 1
 526 0 l 2
 302 0 120 176 120 393 c 2
EndSplineSet
Validated: 1
EndChar

StartChar: Egrave
Encoding: 200 200 138
GlifName: E_grave
Width: 1363
GlyphClass: 2
Flags: MW
HStem: 0 211<351 1243 351 1243> 635 210<471 1243 471 1243> 1212 210<351 1243 351 351> 1544 422<677 692>
VStem: 140 211<211 1212 211 1422 211 1422> 494 312<1597 1878>
LayerCount: 2
Fore
SplineSet
494 1878 m 1
 677 1966 l 1
 806 1597 l 1
 692 1544 l 1
 494 1878 l 1
140 0 m 1
 140 1422 l 1
 1243 1422 l 1
 1243 1212 l 1
 351 1212 l 1
 351 211 l 1
 1243 211 l 1
 1243 0 l 1
 140 0 l 1
471 635 m 1
 471 845 l 1
 1243 845 l 1
 1243 635 l 1
 471 635 l 1
EndSplineSet
Validated: 1
EndChar

StartChar: Eacute
Encoding: 201 201 139
GlifName: E_acute
Width: 1363
GlyphClass: 2
Flags: MW
HStem: 0 211<351 1243 351 1243> 635 210<471 1243 471 1243> 1212 210<351 1243 351 351> 1544 422<692 707>
VStem: 140 211<211 1212 211 1422 211 1422> 578 312<1597 1878>
LayerCount: 2
Fore
SplineSet
578 1597 m 1
 707 1966 l 1
 890 1878 l 1
 692 1544 l 1
 578 1597 l 1
140 0 m 1
 140 1422 l 1
 1243 1422 l 1
 1243 1212 l 1
 351 1212 l 1
 351 211 l 1
 1243 211 l 1
 1243 0 l 1
 140 0 l 1
471 635 m 1
 471 845 l 1
 1243 845 l 1
 1243 635 l 1
 471 635 l 1
EndSplineSet
Validated: 1
EndChar

StartChar: Ecircumflex
Encoding: 202 202 140
GlifName: E_circumflex
Width: 1363
GlyphClass: 2
Flags: MW
HStem: 0 211<351 1243 351 1243> 635 210<471 1243 471 1243> 1212 210<351 1243 351 351> 1544 309<380 769 380 769 614 862 614 1003>
VStem: 140 211<211 1212 211 1422 211 1422> 380 623<1544 1544>
LayerCount: 2
Fore
SplineSet
380 1544 m 1
 614 1853 l 1
 769 1853 l 1
 1003 1544 l 1
 862 1544 l 1
 691 1716 l 1
 521 1544 l 1
 380 1544 l 1
140 0 m 1
 140 1422 l 1
 1243 1422 l 1
 1243 1212 l 1
 351 1212 l 1
 351 211 l 1
 1243 211 l 1
 1243 0 l 1
 140 0 l 1
471 635 m 1
 471 845 l 1
 1243 845 l 1
 1243 635 l 1
 471 635 l 1
EndSplineSet
Validated: 1
EndChar

StartChar: Edieresis
Encoding: 203 203 141
GlifName: E_dieresis
Width: 1363
GlyphClass: 2
Flags: MW
HStem: 0 211<351 1243 351 1243> 635 210<471 1243 471 1243> 1212 210<351 1243 351 351> 1544 221<490.5 552 830.5 892>
VStem: 140 211<211 1212 211 1422 211 1422> 411 221<1623.5 1685> 751 221<1623.5 1685>
LayerCount: 2
Fore
SplineSet
411 1654 m 0
 411 1716 460 1765 521 1765 c 0
 583 1765 632 1716 632 1654 c 0
 632 1593 583 1544 521 1544 c 0
 460 1544 411 1593 411 1654 c 0
751 1654 m 0
 751 1716 800 1765 861 1765 c 0
 923 1765 972 1716 972 1654 c 0
 972 1593 923 1544 861 1544 c 0
 800 1544 751 1593 751 1654 c 0
140 0 m 1
 140 1422 l 1
 1243 1422 l 1
 1243 1212 l 1
 351 1212 l 1
 351 211 l 1
 1243 211 l 1
 1243 0 l 1
 140 0 l 1
471 635 m 1
 471 845 l 1
 1243 845 l 1
 1243 635 l 1
 471 635 l 1
EndSplineSet
Validated: 1
EndChar

StartChar: Igrave
Encoding: 204 204 142
GlifName: I_grave
Width: 491
GlyphClass: 2
Flags: MW
HStem: 0 21G<140 140 140 351> 1402 20G<140 351 351 351> 1544 422<231 246>
VStem: 48 312<1597 1878> 140 211<0 1422 0 1422>
LayerCount: 2
Fore
SplineSet
48 1878 m 1xf0
 231 1966 l 1
 360 1597 l 1
 246 1544 l 1
 48 1878 l 1xf0
140 0 m 1xe8
 140 1422 l 1
 351 1422 l 1
 351 0 l 1
 140 0 l 1xe8
EndSplineSet
Validated: 1
EndChar

StartChar: Iacute
Encoding: 205 205 143
GlifName: I_acute
Width: 491
GlyphClass: 2
Flags: MW
HStem: 0 21G<140 140 140 351> 1402 20G<140 351 351 351> 1544 422<246 261>
VStem: 132 312<1597 1878> 140 211<0 1422 0 1422>
LayerCount: 2
Fore
SplineSet
132 1597 m 1xf0
 261 1966 l 1
 444 1878 l 1
 246 1544 l 1
 132 1597 l 1xf0
140 0 m 1xe8
 140 1422 l 1
 351 1422 l 1
 351 0 l 1
 140 0 l 1xe8
EndSplineSet
Validated: 1
EndChar

StartChar: Icircumflex
Encoding: 206 206 144
GlifName: I_circumflex
Width: 491
GlyphClass: 2
Flags: MW
HStem: 0 21G<140 140 140 351> 1402 20G<140 351 351 351> 1544 309<-66 323 -66 323 168 416 168 557>
VStem: -66 623<1544 1544> 140 211<0 1422 0 1422>
LayerCount: 2
Fore
SplineSet
-66 1544 m 1xf0
 168 1853 l 1
 323 1853 l 1
 557 1544 l 1
 416 1544 l 1
 245 1716 l 1
 75 1544 l 1
 -66 1544 l 1xf0
140 0 m 1xe8
 140 1422 l 1
 351 1422 l 1
 351 0 l 1
 140 0 l 1xe8
EndSplineSet
Validated: 1
EndChar

StartChar: Idieresis
Encoding: 207 207 145
GlifName: I_dieresis
Width: 491
GlyphClass: 2
Flags: MW
HStem: 0 21G<140 140 140 351> 1402 20G<140 351 351 351> 1544 221<44.5 106 384.5 446>
VStem: -35 221<1623.5 1685> 140 211<0 1422 0 1422> 305 221<1623.5 1685>
LayerCount: 2
Fore
SplineSet
-35 1654 m 0xf4
 -35 1716 14 1765 75 1765 c 0
 137 1765 186 1716 186 1654 c 0
 186 1593 137 1544 75 1544 c 0
 14 1544 -35 1593 -35 1654 c 0xf4
305 1654 m 0
 305 1716 354 1765 415 1765 c 0
 477 1765 526 1716 526 1654 c 0
 526 1593 477 1544 415 1544 c 0
 354 1544 305 1593 305 1654 c 0
140 0 m 1xe8
 140 1422 l 1
 351 1422 l 1
 351 0 l 1
 140 0 l 1xe8
EndSplineSet
Validated: 1
EndChar

StartChar: Eth
Encoding: 208 208 146
GlifName: E_th
Width: 1465
GlyphClass: 2
Flags: MW
HStem: 0 211<397 942 397 942 187 942> 650 170<90 187 90 187 397 867> 1212 210<397 942 397 397>
VStem: 187 210<211 211 211 650 820 1212> 1135 210<399 1022>
LayerCount: 2
Fore
SplineSet
90 650 m 1
 90 820 l 1
 187 820 l 1
 187 1422 l 1
 942 1422 l 2
 1164 1422 1345 1243 1345 1022 c 2
 1345 396 l 2
 1345 177 1164 0 942 0 c 2
 187 0 l 1
 187 650 l 1
 90 650 l 1
397 211 m 1
 942 211 l 2
 1048 211 1135 295 1135 399 c 2
 1135 1022 l 2
 1135 1127 1048 1212 942 1212 c 2
 397 1212 l 1
 397 820 l 1
 867 820 l 1
 867 650 l 1
 397 650 l 1
 397 211 l 1
EndSplineSet
Validated: 1
EndChar

StartChar: Ntilde
Encoding: 209 209 147
GlifName: N_tilde
Width: 1384
GlyphClass: 2
Flags: MW
HStem: 0 21G<140 140 140 351 970 970 970 1244> 1402 20G<140 414 414 414 1033 1244 1244 1244> 1544 154<813.5 834.5 803.5 882.5> 1625 148<547.5 572.5 501 578.5>
VStem: 140 211<0 1102 0 1422> 363 155<1552 1577> 864 157<1744 1768> 1033 211<305 1422 0 1422>
LayerCount: 2
Fore
SplineSet
363 1552 m 1xdf
 364 1680 445 1773 557 1773 c 0xdf
 588 1773 620 1764 688 1736 c 0
 761 1706 788 1698 819 1698 c 0
 850 1698 864 1720 864 1768 c 1
 1021 1768 l 1
 1021 1644 936 1544 829 1544 c 0xef
 798 1544 766 1554 696 1584 c 0
 621 1616 594 1625 563 1625 c 0
 532 1625 518 1602 518 1552 c 1
 363 1552 l 1xdf
140 0 m 1
 140 1422 l 1
 414 1422 l 1
 1033 305 l 1
 1033 1422 l 1
 1244 1422 l 1
 1244 0 l 1
 970 0 l 1
 351 1102 l 1
 351 0 l 1
 140 0 l 1
EndSplineSet
Validated: 1
EndChar

StartChar: Ograve
Encoding: 210 210 148
GlifName: O_grave
Width: 1461
GlyphClass: 2
Flags: MW
HStem: 0 210<447 897 564 897> 1212 210<505 897 564 897> 1544 422<716 731>
VStem: 140 211<400 1022 1022 1023> 533 312<1597 1878> 1110 211<399 400 400 1022>
LayerCount: 2
Fore
SplineSet
351 1023 m 2
 351 399 l 2
 351 295 446 210 564 210 c 2
 897 210 l 2
 1015 210 1110 295 1110 399 c 2
 1110 1023 l 2
 1110 1127 1015 1212 897 1212 c 2
 564 1212 l 2
 446 1212 351 1127 351 1023 c 2
140 400 m 2
 140 1022 l 2
 140 1243 330 1422 564 1422 c 2
 897 1422 l 2
 1131 1422 1321 1243 1321 1022 c 2
 1321 400 l 2
 1321 179 1131 0 897 0 c 2
 564 0 l 2
 330 0 140 179 140 400 c 2
731 1544 m 1
 533 1878 l 1
 716 1966 l 1
 845 1597 l 1
 731 1544 l 1
EndSplineSet
Validated: 1
EndChar

StartChar: Oacute
Encoding: 211 211 149
GlifName: O_acute
Width: 1461
GlyphClass: 2
Flags: MW
HStem: 0 210<447 897 564 897> 1212 210<505 897 564 897> 1544 422<731 746>
VStem: 140 211<400 1022 1022 1023> 617 312<1597 1878> 1110 211<399 400 400 1022>
LayerCount: 2
Fore
SplineSet
351 1023 m 2
 351 399 l 2
 351 295 446 210 564 210 c 2
 897 210 l 2
 1015 210 1110 295 1110 399 c 2
 1110 1023 l 2
 1110 1127 1015 1212 897 1212 c 2
 564 1212 l 2
 446 1212 351 1127 351 1023 c 2
140 400 m 2
 140 1022 l 2
 140 1243 330 1422 564 1422 c 2
 897 1422 l 2
 1131 1422 1321 1243 1321 1022 c 2
 1321 400 l 2
 1321 179 1131 0 897 0 c 2
 564 0 l 2
 330 0 140 179 140 400 c 2
731 1544 m 1
 617 1597 l 1
 746 1966 l 1
 929 1878 l 1
 731 1544 l 1
EndSplineSet
Validated: 1
EndChar

StartChar: Ocircumflex
Encoding: 212 212 150
GlifName: O_circumflex
Width: 1461
GlyphClass: 2
Flags: MW
HStem: 0 210<447 897 564 897> 1212 210<505 897 564 897> 1544 309<419 808 419 808 653 901 653 1042>
VStem: 140 211<400 1022 1022 1023> 419 623<1544 1544> 1110 211<399 400 400 1022>
CounterMasks: 1 1c
LayerCount: 2
Fore
SplineSet
351 1023 m 2
 351 399 l 2
 351 295 446 210 564 210 c 2
 897 210 l 2
 1015 210 1110 295 1110 399 c 2
 1110 1023 l 2
 1110 1127 1015 1212 897 1212 c 2
 564 1212 l 2
 446 1212 351 1127 351 1023 c 2
140 400 m 2
 140 1022 l 2
 140 1243 330 1422 564 1422 c 2
 897 1422 l 2
 1131 1422 1321 1243 1321 1022 c 2
 1321 400 l 2
 1321 179 1131 0 897 0 c 2
 564 0 l 2
 330 0 140 179 140 400 c 2
560 1544 m 1
 419 1544 l 1
 653 1853 l 1
 808 1853 l 1
 1042 1544 l 1
 901 1544 l 1
 730 1716 l 1
 560 1544 l 1
EndSplineSet
Validated: 1
EndChar

StartChar: Otilde
Encoding: 213 213 151
GlifName: O_tilde
Width: 1461
GlyphClass: 2
Flags: MW
HStem: 0 210<447 897 564 897> 1212 210<505 897 564 897> 1544 154<852.5 873.5 842.5 921.5> 1625 148<586.5 611.5 540 617.5>
VStem: 140 211<400 1022 1022 1023> 402 155<1552 1577> 903 157<1744 1768> 1110 211<399 400 400 1022>
LayerCount: 2
Fore
SplineSet
351 1023 m 2xdf
 351 399 l 2
 351 295 446 210 564 210 c 2
 897 210 l 2
 1015 210 1110 295 1110 399 c 2
 1110 1023 l 2
 1110 1127 1015 1212 897 1212 c 2
 564 1212 l 2
 446 1212 351 1127 351 1023 c 2xdf
140 400 m 2
 140 1022 l 2
 140 1243 330 1422 564 1422 c 2
 897 1422 l 2
 1131 1422 1321 1243 1321 1022 c 2
 1321 400 l 2
 1321 179 1131 0 897 0 c 2
 564 0 l 2
 330 0 140 179 140 400 c 2
557 1552 m 1
 402 1552 l 1
 403 1680 484 1773 596 1773 c 0xdf
 627 1773 659 1764 727 1736 c 0
 800 1706 827 1698 858 1698 c 0
 889 1698 903 1720 903 1768 c 1
 1060 1768 l 1
 1060 1644 975 1544 868 1544 c 0xef
 837 1544 805 1554 735 1584 c 0
 660 1616 633 1625 602 1625 c 0
 571 1625 557 1602 557 1552 c 1
EndSplineSet
Validated: 1
EndChar

StartChar: Odieresis
Encoding: 214 214 152
GlifName: O_dieresis
Width: 1461
GlyphClass: 2
Flags: MW
HStem: 0 210<447 897 564 897> 1212 210<505 897 564 897> 1544 221<529.5 591 869.5 931>
VStem: 140 211<400 1022 1022 1023> 450 221<1623.5 1685> 790 221<1623.5 1685> 1110 211<399 400 400 1022>
LayerCount: 2
Fore
SplineSet
351 1023 m 2
 351 399 l 2
 351 295 446 210 564 210 c 2
 897 210 l 2
 1015 210 1110 295 1110 399 c 2
 1110 1023 l 2
 1110 1127 1015 1212 897 1212 c 2
 564 1212 l 2
 446 1212 351 1127 351 1023 c 2
140 400 m 2
 140 1022 l 2
 140 1243 330 1422 564 1422 c 2
 897 1422 l 2
 1131 1422 1321 1243 1321 1022 c 2
 1321 400 l 2
 1321 179 1131 0 897 0 c 2
 564 0 l 2
 330 0 140 179 140 400 c 2
450 1654 m 0
 450 1716 499 1765 560 1765 c 0
 622 1765 671 1716 671 1654 c 0
 671 1593 622 1544 560 1544 c 0
 499 1544 450 1593 450 1654 c 0
790 1654 m 0
 790 1716 839 1765 900 1765 c 0
 962 1765 1011 1716 1011 1654 c 0
 1011 1593 962 1544 900 1544 c 0
 839 1544 790 1593 790 1654 c 0
EndSplineSet
Validated: 1
EndChar

StartChar: multiply
Encoding: 215 215 153
GlifName: multiply
Width: 1034
GlyphClass: 2
Flags: MW
HStem: 110 858<228 228 228 807>
VStem: 90 855<251 826 826 826>
LayerCount: 2
Fore
SplineSet
90 251 m 1
 378 539 l 1
 90 826 l 1
 228 968 l 1
 517 677 l 1
 807 968 l 1
 945 826 l 1
 656 539 l 1
 944 251 l 1
 807 110 l 1
 517 400 l 1
 228 110 l 1
 90 251 l 1
EndSplineSet
Validated: 1
EndChar

StartChar: Oslash
Encoding: 216 216 154
GlifName: O_slash
Width: 1462
GlyphClass: 2
Flags: MW
HStem: 0 210<533.5 901 567 901> 1212 210<508.5 901 567 901>
VStem: 143 212<400 1022 1022 1023> 1113 212<399 400 400 1022>
LayerCount: 2
Fore
SplineSet
355 1023 m 2
 355 399 l 2
 355 382 356 370 359 359 c 1
 953 1206 l 1
 936 1210 919 1212 901 1212 c 2
 567 1212 l 2
 450 1212 355 1128 355 1023 c 2
1100 1089 m 1
 493 222 l 1
 516 214 541 210 567 210 c 2
 901 210 l 2
 1018 210 1113 294 1113 399 c 2
 1113 1023 l 2
 1113 1048 1109 1070 1100 1089 c 1
259 -111 m 1
 105 -4 l 1
 224 165 l 1
 171 233 143 315 143 400 c 2
 143 1022 l 2
 143 1243 333 1422 567 1422 c 2
 901 1422 l 2
 962 1422 1022 1409 1078 1385 c 1
 1203 1564 l 1
 1357 1457 l 1
 1230 1274 l 1
 1292 1202 1325 1114 1325 1022 c 2
 1325 400 l 2
 1325 179 1135 0 901 0 c 2
 567 0 l 2
 500 0 433 16 370 46 c 1
 259 -111 l 1
EndSplineSet
Validated: 1
EndChar

StartChar: Ugrave
Encoding: 217 217 155
GlifName: U_grave
Width: 1438
GlyphClass: 2
Flags: MW
HStem: 0 211<433 894 545 894> 1402 20G<140 351 351 351 1088 1298 1298 1298> 1544 422<694 709>
VStem: 140 211<397 399 399 1422> 511 312<1597 1878> 1088 210<399 1422>
LayerCount: 2
Fore
SplineSet
511 1878 m 1
 694 1966 l 1
 823 1597 l 1
 709 1544 l 1
 511 1878 l 1
140 397 m 2
 140 1422 l 1
 351 1422 l 1
 351 399 l 2
 351 295 438 211 545 211 c 2
 894 211 l 2
 1001 211 1088 295 1088 399 c 2
 1088 1422 l 1
 1298 1422 l 1
 1298 397 l 2
 1298 178 1117 0 894 0 c 2
 545 0 l 2
 321 0 140 178 140 397 c 2
EndSplineSet
Validated: 1
EndChar

StartChar: Uacute
Encoding: 218 218 156
GlifName: U_acute
Width: 1438
GlyphClass: 2
Flags: MW
HStem: 0 211<433 894 545 894> 1402 20G<140 351 351 351 1088 1298 1298 1298> 1544 422<709 724>
VStem: 140 211<397 399 399 1422> 595 312<1597 1878> 1088 210<399 1422>
LayerCount: 2
Fore
SplineSet
595 1597 m 1
 724 1966 l 1
 907 1878 l 1
 709 1544 l 1
 595 1597 l 1
140 397 m 2
 140 1422 l 1
 351 1422 l 1
 351 399 l 2
 351 295 438 211 545 211 c 2
 894 211 l 2
 1001 211 1088 295 1088 399 c 2
 1088 1422 l 1
 1298 1422 l 1
 1298 397 l 2
 1298 178 1117 0 894 0 c 2
 545 0 l 2
 321 0 140 178 140 397 c 2
EndSplineSet
Validated: 1
EndChar

StartChar: Ucircumflex
Encoding: 219 219 157
GlifName: U_circumflex
Width: 1438
GlyphClass: 2
Flags: MW
HStem: 0 211<433 894 545 894> 1402 20G<140 351 351 351 1088 1298 1298 1298> 1544 309<398 787 398 787 632 880 632 1021>
VStem: 140 211<397 399 399 1422> 398 623<1544 1544> 1088 210<399 1422>
LayerCount: 2
Fore
SplineSet
398 1544 m 1
 632 1853 l 1
 787 1853 l 1
 1021 1544 l 1
 880 1544 l 1
 709 1716 l 1
 539 1544 l 1
 398 1544 l 1
140 397 m 2
 140 1422 l 1
 351 1422 l 1
 351 399 l 2
 351 295 438 211 545 211 c 2
 894 211 l 2
 1001 211 1088 295 1088 399 c 2
 1088 1422 l 1
 1298 1422 l 1
 1298 397 l 2
 1298 178 1117 0 894 0 c 2
 545 0 l 2
 321 0 140 178 140 397 c 2
EndSplineSet
Validated: 1
EndChar

StartChar: Udieresis
Encoding: 220 220 158
GlifName: U_dieresis
Width: 1438
GlyphClass: 2
Flags: MW
HStem: 0 211<433 894 545 894> 1402 20G<140 351 351 351 1088 1298 1298 1298> 1544 221<508.5 570 848.5 910>
VStem: 140 211<397 399 399 1422> 429 221<1623.5 1685> 769 221<1623.5 1685> 1088 210<399 1422>
LayerCount: 2
Fore
SplineSet
429 1654 m 0
 429 1716 478 1765 539 1765 c 0
 601 1765 650 1716 650 1654 c 0
 650 1593 601 1544 539 1544 c 0
 478 1544 429 1593 429 1654 c 0
769 1654 m 0
 769 1716 818 1765 879 1765 c 0
 941 1765 990 1716 990 1654 c 0
 990 1593 941 1544 879 1544 c 0
 818 1544 769 1593 769 1654 c 0
140 397 m 2
 140 1422 l 1
 351 1422 l 1
 351 399 l 2
 351 295 438 211 545 211 c 2
 894 211 l 2
 1001 211 1088 295 1088 399 c 2
 1088 1422 l 1
 1298 1422 l 1
 1298 397 l 2
 1298 178 1117 0 894 0 c 2
 545 0 l 2
 321 0 140 178 140 397 c 2
EndSplineSet
Validated: 1
EndChar

StartChar: Yacute
Encoding: 221 221 159
GlifName: Y_acute
Width: 1371
GlyphClass: 2
Flags: MW
HStem: 0 21G<579 795 579 579> 1402 20G<40 297 297 297 1075 1331 1331 1331> 1544 422<686 701>
VStem: 572 312<1597 1878> 579 216<0 679 0 679>
LayerCount: 2
Fore
SplineSet
572 1597 m 1xf0
 701 1966 l 1
 884 1878 l 1
 686 1544 l 1
 572 1597 l 1xf0
40 1422 m 1
 297 1422 l 1
 687 883 l 1
 1075 1422 l 1
 1331 1422 l 1
 795 679 l 1
 795 0 l 1
 579 0 l 1
 579 679 l 1xe8
 40 1422 l 1
EndSplineSet
Validated: 1
EndChar

StartChar: Thorn
Encoding: 222 222 160
GlifName: T_horn
Width: 1195
GlyphClass: 2
Flags: MW
HStem: 0 21G<120 331 120 120> 189 211<467.5 721 495 721> 1014 211<450 721 495 721> 1402 20G<120 331 331 331>
VStem: 120 211<0 227 1187 1422> 884 211<565 849 849 851>
LayerCount: 2
Fore
SplineSet
332 849 m 2
 332 565 l 2
 332 474 405 400 495 400 c 2
 721 400 l 2
 811 400 884 474 884 565 c 2
 884 849 l 2
 884 940 811 1014 721 1014 c 2
 495 1014 l 2
 405 1014 332 940 332 849 c 2
331 0 m 1
 120 0 l 1
 120 1422 l 1
 331 1422 l 1
 331 1187 l 1
 385 1212 440 1225 495 1225 c 2
 721 1225 l 2
 927 1225 1095 1057 1095 851 c 2
 1095 563 l 2
 1095 357 927 189 721 189 c 2
 495 189 l 2
 440 189 385 202 331 227 c 1
 331 0 l 1
EndSplineSet
Validated: 1
EndChar

StartChar: germandbls
Encoding: 223 223 161
GlifName: germandbls
Width: 1203
GlyphClass: 2
Flags: MW
HStem: 0 210<140 717 458 717 458 717 717 728> 639 210<458 700 700 708 458 700> 1212 210<455 700 495 700>
VStem: 140 210<0 1087 0 1179.5> 844 210<994 1087 941 1121.5> 873 210<335 494 242.5 537>
LayerCount: 2
Fore
SplineSet
140 0 m 1xf8
 140 1087 l 2
 140 1272 299 1422 495 1422 c 2
 700 1422 l 2
 895 1422 1054 1272 1054 1087 c 2
 1054 994 l 2xf8
 1054 888 1021 813 949 758 c 1
 1036 710 1083 617 1083 494 c 2
 1083 335 l 2
 1083 150 924 0 728 0 c 2
 458 0 l 1
 458 210 l 1
 717 210 l 2
 804 210 873 266 873 335 c 2
 873 494 l 2xf4
 873 580 806 639 708 639 c 2
 458 639 l 1
 458 849 l 1
 700 849 l 2
 780 849 844 914 844 994 c 2
 844 1087 l 2
 844 1156 780 1212 700 1212 c 2
 495 1212 l 2
 415 1212 350 1156 350 1087 c 2
 350 0 l 1
 140 0 l 1xf8
EndSplineSet
Validated: 1
EndChar

StartChar: agrave
Encoding: 224 224 162
GlifName: agrave
Width: 1182
GlyphClass: 2
Flags: MW
HStem: 0 211<381 731 484 731 484 1062 484 851> 825 211<439 1062 484 851> 1158 422<571 586>
VStem: 110 211<374 376 376 662> 388 312<1211 1492> 851 211<0 825 825 825>
LayerCount: 2
Fore
SplineSet
388 1492 m 1
 571 1580 l 1
 700 1211 l 1
 586 1158 l 1
 388 1492 l 1
110 374 m 2
 110 664 l 2
 110 869 278 1036 484 1036 c 2
 1062 1036 l 1
 1062 0 l 1
 851 0 l 1
 851 825 l 1
 484 825 l 2
 394 825 321 752 321 662 c 2
 321 376 l 2
 321 285 394 211 484 211 c 2
 731 211 l 1
 731 0 l 1
 484 0 l 2
 278 0 110 168 110 374 c 2
EndSplineSet
Validated: 1
EndChar

StartChar: aacute
Encoding: 225 225 163
GlifName: aacute
Width: 1182
GlyphClass: 2
Flags: MW
HStem: 0 211<381 731 484 731 484 1062 484 851> 825 211<439 1062 484 851> 1158 422<586 601>
VStem: 110 211<374 376 376 662> 472 312<1211 1492> 851 211<0 825 825 825>
LayerCount: 2
Fore
SplineSet
472 1211 m 1
 601 1580 l 1
 784 1492 l 1
 586 1158 l 1
 472 1211 l 1
110 374 m 2
 110 664 l 2
 110 869 278 1036 484 1036 c 2
 1062 1036 l 1
 1062 0 l 1
 851 0 l 1
 851 825 l 1
 484 825 l 2
 394 825 321 752 321 662 c 2
 321 376 l 2
 321 285 394 211 484 211 c 2
 731 211 l 1
 731 0 l 1
 484 0 l 2
 278 0 110 168 110 374 c 2
EndSplineSet
Validated: 1
EndChar

StartChar: acircumflex
Encoding: 226 226 164
GlifName: acircumflex
Width: 1182
GlyphClass: 2
Flags: MW
HStem: 0 211<381 731 484 731 484 1062 484 851> 825 211<439 1062 484 851> 1158 309<275 664 275 664 509 757 509 898>
VStem: 110 211<374 376 376 662> 275 623<1158 1158> 851 211<0 825 825 825>
LayerCount: 2
Fore
SplineSet
275 1158 m 1xe8
 509 1467 l 1
 664 1467 l 1
 898 1158 l 1
 757 1158 l 1
 586 1330 l 1
 416 1158 l 1
 275 1158 l 1xe8
110 374 m 2xf4
 110 664 l 2
 110 869 278 1036 484 1036 c 2
 1062 1036 l 1
 1062 0 l 1
 851 0 l 1
 851 825 l 1
 484 825 l 2
 394 825 321 752 321 662 c 2
 321 376 l 2
 321 285 394 211 484 211 c 2
 731 211 l 1
 731 0 l 1
 484 0 l 2
 278 0 110 168 110 374 c 2xf4
EndSplineSet
Validated: 1
EndChar

StartChar: atilde
Encoding: 227 227 165
GlifName: atilde
Width: 1182
GlyphClass: 2
Flags: MW
HStem: 0 211<381 731 484 731 484 1062 484 851> 825 211<439 1062 484 851> 1158 154<707.5 728.5 697.5 776.5> 1239 148<441.5 466.5 395 472.5>
VStem: 110 211<374 376 376 662> 257 155<1166 1191> 758 157<1358 1382> 851 211<0 825 825 825>
LayerCount: 2
Fore
SplineSet
257 1166 m 1xd6
 258 1294 339 1387 451 1387 c 0xd6
 482 1387 514 1378 582 1350 c 0
 655 1320 682 1312 713 1312 c 0
 744 1312 758 1334 758 1382 c 1
 915 1382 l 1
 915 1258 830 1158 723 1158 c 0xea
 692 1158 660 1168 590 1198 c 0
 515 1230 488 1239 457 1239 c 0
 426 1239 412 1216 412 1166 c 1
 257 1166 l 1xd6
110 374 m 2xe9
 110 664 l 2
 110 869 278 1036 484 1036 c 2
 1062 1036 l 1
 1062 0 l 1
 851 0 l 1
 851 825 l 1
 484 825 l 2
 394 825 321 752 321 662 c 2
 321 376 l 2
 321 285 394 211 484 211 c 2
 731 211 l 1
 731 0 l 1
 484 0 l 2
 278 0 110 168 110 374 c 2xe9
EndSplineSet
Validated: 1
EndChar

StartChar: adieresis
Encoding: 228 228 166
GlifName: adieresis
Width: 1182
GlyphClass: 2
Flags: MW
HStem: 0 211<381 731 484 731 484 1062 484 851> 825 211<439 1062 484 851> 1158 221<385.5 447 725.5 787>
VStem: 110 211<374 376 376 662> 306 221<1237.5 1299> 646 221<1237.5 1299> 851 211<0 825 825 825>
LayerCount: 2
Fore
SplineSet
306 1268 m 0xec
 306 1330 355 1379 416 1379 c 0
 478 1379 527 1330 527 1268 c 0
 527 1207 478 1158 416 1158 c 0
 355 1158 306 1207 306 1268 c 0xec
646 1268 m 0
 646 1330 695 1379 756 1379 c 0
 818 1379 867 1330 867 1268 c 0
 867 1207 818 1158 756 1158 c 0
 695 1158 646 1207 646 1268 c 0
110 374 m 2xf2
 110 664 l 2
 110 869 278 1036 484 1036 c 2
 1062 1036 l 1
 1062 0 l 1
 851 0 l 1
 851 825 l 1
 484 825 l 2
 394 825 321 752 321 662 c 2
 321 376 l 2
 321 285 394 211 484 211 c 2
 731 211 l 1
 731 0 l 1
 484 0 l 2
 278 0 110 168 110 374 c 2xf2
EndSplineSet
Validated: 1
EndChar

StartChar: aring
Encoding: 229 229 167
GlifName: aring
Width: 1182
GlyphClass: 2
Flags: MW
HStem: 0 211<381 731 484 731 484 1062 484 851> 825 211<439 1062 484 851> 1158 118<519 606 566 606> 1421 118<551.5 606 566 606>
VStem: 110 211<374 376 376 662> 396 118<1327 1370 1313 1417> 658 118<1327 1370 1280 1384> 851 211<0 825 825 825>
LayerCount: 2
Fore
SplineSet
514 1370 m 2
 514 1327 l 2
 514 1299 537 1276 566 1276 c 2
 606 1276 l 2
 635 1276 658 1299 658 1327 c 2
 658 1370 l 2
 658 1398 635 1421 606 1421 c 2
 566 1421 l 2
 537 1421 514 1398 514 1370 c 2
110 374 m 2
 110 664 l 2
 110 869 278 1036 484 1036 c 2
 1062 1036 l 1
 1062 0 l 1
 851 0 l 1
 851 825 l 1
 484 825 l 2
 394 825 321 752 321 662 c 2
 321 376 l 2
 321 285 394 211 484 211 c 2
 731 211 l 1
 731 0 l 1
 484 0 l 2
 278 0 110 168 110 374 c 2
396 1327 m 2
 396 1370 l 2
 396 1464 472 1539 566 1539 c 2
 606 1539 l 2
 700 1539 776 1464 776 1370 c 2
 776 1327 l 2
 776 1233 700 1158 606 1158 c 2
 566 1158 l 2
 472 1158 396 1233 396 1327 c 2
EndSplineSet
Validated: 1
EndChar

StartChar: ae
Encoding: 230 230 168
GlifName: ae
Width: 1913
GlyphClass: 3
Flags: MW
HStem: 0 211<381 731 484 731 484 1062 484 851 1141 1730> 408 210<1182 1504 1182 1506> 825 211<439 1504 484 851 1062 1504 1504 1506 1062 1062>
VStem: 110 211<374 376 376 662> 851 211<0 11 270.5 293 293 825> 1593 210<707 735 624 760>
LayerCount: 2
Fore
SplineSet
110 374 m 2
 110 664 l 2
 110 869 278 1036 484 1036 c 2
 1504 1036 l 2
 1669 1036 1803 901 1803 735 c 2
 1803 706 l 2
 1803 542 1669 408 1504 408 c 2
 1182 408 l 1
 1182 618 l 1
 1506 618 l 2
 1554 618 1593 658 1593 707 c 2
 1593 735 l 2
 1593 785 1554 825 1506 825 c 2
 1062 825 l 1
 1062 293 l 2
 1062 248 1097 211 1141 211 c 2
 1730 211 l 1
 1730 0 l 1
 1141 0 l 2
 1116 0 1091 4 1062 11 c 1
 1062 0 l 1
 851 0 l 1
 851 825 l 1
 484 825 l 2
 394 825 321 752 321 662 c 2
 321 376 l 2
 321 285 394 211 484 211 c 2
 731 211 l 1
 731 0 l 1
 484 0 l 2
 278 0 110 168 110 374 c 2
EndSplineSet
Validated: 1
EndChar

StartChar: ccedilla
Encoding: 231 231 169
GlifName: ccedilla
Width: 1187
GlyphClass: 2
Flags: MW
HStem: -303 150<509.5 610> 0 211<388 1077 494 523 671 1077 671 671> 825 211<446.5 1077 494 1077>
VStem: 110 211<376 378 378 659> 558 152<-217.5 -112.5>
LayerCount: 2
Fore
SplineSet
110 376 m 2
 110 662 l 2
 110 868 282 1036 494 1036 c 2
 1077 1036 l 1
 1077 825 l 1
 494 825 l 2
 399 825 321 751 321 659 c 2
 321 378 l 2
 321 286 398 211 494 211 c 2
 1077 211 l 1
 1077 0 l 1
 671 0 l 1
 697 -74 710 -130 710 -173 c 0
 710 -262 662 -303 558 -303 c 0
 525 -303 496 -300 408 -287 c 1
 408 -139 l 1
 490 -152 501 -153 518 -153 c 0
 547 -153 558 -145 558 -122 c 0
 558 -103 552 -82 523 0 c 1
 494 0 l 2
 282 0 110 169 110 376 c 2
EndSplineSet
Validated: 1
EndChar

StartChar: egrave
Encoding: 232 232 170
GlifName: egrave
Width: 1182
GlyphClass: 2
Flags: MW
HStem: 0 211<330 999 410 999> 408 210<451 773 451 775> 825 211<341 773 773 775 331 773> 1158 422<581 596>
VStem: 120 211<292 293 293 822 822 825> 398 312<1211 1492> 862 210<707 735 624 760>
LayerCount: 2
Fore
SplineSet
398 1492 m 1
 581 1580 l 1
 710 1211 l 1
 596 1158 l 1
 398 1492 l 1
120 292 m 2
 120 822 l 2
 120 940 219 1036 341 1036 c 2
 773 1036 l 2
 938 1036 1072 901 1072 735 c 2
 1072 706 l 2
 1072 542 938 408 773 408 c 2
 451 408 l 1
 451 618 l 1
 775 618 l 2
 823 618 862 658 862 707 c 2
 862 735 l 2
 862 785 823 825 775 825 c 2
 331 825 l 1
 331 293 l 2
 331 248 366 211 410 211 c 2
 999 211 l 1
 999 0 l 1
 410 0 l 2
 250 0 120 131 120 292 c 2
EndSplineSet
Validated: 1
EndChar

StartChar: eacute
Encoding: 233 233 171
GlifName: eacute
Width: 1182
GlyphClass: 2
Flags: MW
HStem: 0 211<330 999 410 999> 408 210<451 773 451 775> 825 211<341 773 773 775 331 773> 1158 422<596 611>
VStem: 120 211<292 293 293 822 822 825> 482 312<1211 1492> 862 210<707 735 624 760>
LayerCount: 2
Fore
SplineSet
482 1211 m 1
 611 1580 l 1
 794 1492 l 1
 596 1158 l 1
 482 1211 l 1
120 292 m 2
 120 822 l 2
 120 940 219 1036 341 1036 c 2
 773 1036 l 2
 938 1036 1072 901 1072 735 c 2
 1072 706 l 2
 1072 542 938 408 773 408 c 2
 451 408 l 1
 451 618 l 1
 775 618 l 2
 823 618 862 658 862 707 c 2
 862 735 l 2
 862 785 823 825 775 825 c 2
 331 825 l 1
 331 293 l 2
 331 248 366 211 410 211 c 2
 999 211 l 1
 999 0 l 1
 410 0 l 2
 250 0 120 131 120 292 c 2
EndSplineSet
Validated: 1
EndChar

StartChar: ecircumflex
Encoding: 234 234 172
GlifName: ecircumflex
Width: 1182
GlyphClass: 2
Flags: MW
HStem: 0 211<330 999 410 999> 408 210<451 773 451 775> 825 211<341 773 773 775 331 773> 1158 309<285 674 285 674 519 767 519 908>
VStem: 120 211<292 293 293 822 822 825> 285 623<1158 1158> 862 210<707 735 624 760>
LayerCount: 2
Fore
SplineSet
285 1158 m 1xf4
 519 1467 l 1
 674 1467 l 1
 908 1158 l 1
 767 1158 l 1
 596 1330 l 1
 426 1158 l 1
 285 1158 l 1xf4
120 292 m 2xfa
 120 822 l 2
 120 940 219 1036 341 1036 c 2
 773 1036 l 2
 938 1036 1072 901 1072 735 c 2
 1072 706 l 2
 1072 542 938 408 773 408 c 2
 451 408 l 1
 451 618 l 1
 775 618 l 2
 823 618 862 658 862 707 c 2
 862 735 l 2
 862 785 823 825 775 825 c 2
 331 825 l 1
 331 293 l 2
 331 248 366 211 410 211 c 2
 999 211 l 1
 999 0 l 1
 410 0 l 2
 250 0 120 131 120 292 c 2xfa
EndSplineSet
Validated: 1
EndChar

StartChar: edieresis
Encoding: 235 235 173
GlifName: edieresis
Width: 1182
GlyphClass: 2
Flags: MW
HStem: 0 211<330 999 410 999> 408 210<451 773 451 775> 825 211<341 773 773 775 331 773> 1158 221<395.5 457 735.5 797>
VStem: 120 211<292 293 293 822 822 825> 316 221<1237.5 1299> 656 221<1237.5 1299> 862 210<707 735 624 760>
LayerCount: 2
Fore
SplineSet
316 1268 m 0xf6
 316 1330 365 1379 426 1379 c 0
 488 1379 537 1330 537 1268 c 0
 537 1207 488 1158 426 1158 c 0
 365 1158 316 1207 316 1268 c 0xf6
656 1268 m 0
 656 1330 705 1379 766 1379 c 0
 828 1379 877 1330 877 1268 c 0
 877 1207 828 1158 766 1158 c 0
 705 1158 656 1207 656 1268 c 0
120 292 m 2xf9
 120 822 l 2
 120 940 219 1036 341 1036 c 2
 773 1036 l 2
 938 1036 1072 901 1072 735 c 2
 1072 706 l 2
 1072 542 938 408 773 408 c 2
 451 408 l 1
 451 618 l 1
 775 618 l 2
 823 618 862 658 862 707 c 2
 862 735 l 2
 862 785 823 825 775 825 c 2
 331 825 l 1
 331 293 l 2
 331 248 366 211 410 211 c 2
 999 211 l 1
 999 0 l 1
 410 0 l 2
 250 0 120 131 120 292 c 2xf9
EndSplineSet
Validated: 1
EndChar

StartChar: igrave
Encoding: 236 236 174
GlifName: igrave
Width: 465
GlyphClass: 2
Flags: MW
HStem: 0 21G<127 127 127 338> 1016 20G<127 338 338 338> 1158 422<218 233>
VStem: 35 312<1211 1492> 127 211<0 1036 0 1036>
LayerCount: 2
Fore
SplineSet
35 1492 m 1xf0
 218 1580 l 1
 347 1211 l 1
 233 1158 l 1
 35 1492 l 1xf0
127 0 m 1xe8
 127 1036 l 1
 338 1036 l 1
 338 0 l 1
 127 0 l 1xe8
EndSplineSet
Validated: 1
EndChar

StartChar: iacute
Encoding: 237 237 175
GlifName: iacute
Width: 465
GlyphClass: 2
Flags: MW
HStem: 0 21G<127 127 127 338> 1016 20G<127 338 338 338> 1158 422<233 248>
VStem: 119 312<1211 1492> 127 211<0 1036 0 1036>
LayerCount: 2
Fore
SplineSet
119 1211 m 1xf0
 248 1580 l 1
 431 1492 l 1
 233 1158 l 1
 119 1211 l 1xf0
127 0 m 1xe8
 127 1036 l 1
 338 1036 l 1
 338 0 l 1
 127 0 l 1xe8
EndSplineSet
Validated: 1
EndChar

StartChar: icircumflex
Encoding: 238 238 176
GlifName: icircumflex
Width: 465
GlyphClass: 2
Flags: MW
HStem: 0 21G<127 127 127 338> 1016 20G<127 338 338 338> 1158 309<-79 310 -79 310 155 403 155 544>
VStem: -79 623<1158 1158> 127 211<0 1036 0 1036>
LayerCount: 2
Fore
SplineSet
-79 1158 m 1xf0
 155 1467 l 1
 310 1467 l 1
 544 1158 l 1
 403 1158 l 1
 232 1330 l 1
 62 1158 l 1
 -79 1158 l 1xf0
127 0 m 1xe8
 127 1036 l 1
 338 1036 l 1
 338 0 l 1
 127 0 l 1xe8
EndSplineSet
Validated: 1
EndChar

StartChar: idieresis
Encoding: 239 239 177
GlifName: idieresis
Width: 465
GlyphClass: 2
Flags: MW
HStem: 0 21G<127 127 127 338> 1016 20G<127 338 338 338> 1158 221<31.5 93 371.5 433>
VStem: -48 221<1237.5 1299> 127 211<0 1036 0 1036> 292 221<1237.5 1299>
LayerCount: 2
Fore
SplineSet
-48 1268 m 0xf4
 -48 1330 1 1379 62 1379 c 0
 124 1379 173 1330 173 1268 c 0
 173 1207 124 1158 62 1158 c 0
 1 1158 -48 1207 -48 1268 c 0xf4
292 1268 m 0
 292 1330 341 1379 402 1379 c 0
 464 1379 513 1330 513 1268 c 0
 513 1207 464 1158 402 1158 c 0
 341 1158 292 1207 292 1268 c 0
127 0 m 1xe8
 127 1036 l 1
 338 1036 l 1
 338 0 l 1
 127 0 l 1xe8
EndSplineSet
Validated: 1
EndChar

StartChar: eth
Encoding: 240 240 178
GlifName: eth
Width: 1266
GlyphClass: 2
Flags: MW
HStem: 0 211<381 851 484 851> 825 211<439 731 484 731> 1217 206<321 688 688 690 321 688>
VStem: 110 211<372 374 374 660> 851 211<0 211 211 1049>
LayerCount: 2
Fore
SplineSet
110 372 m 2
 110 662 l 2
 110 868 278 1036 484 1036 c 2
 731 1036 l 1
 731 825 l 1
 484 825 l 2
 394 825 321 751 321 660 c 2
 321 374 l 2
 321 284 394 211 484 211 c 2
 851 211 l 1
 851 1050 l 2
 851 1142 779 1217 690 1217 c 2
 321 1217 l 1
 321 1423 l 1
 688 1423 l 2
 797 1423 899 1376 971 1293 c 1
 1182 1415 l 1
 1256 1288 l 1
 1044 1165 l 1
 1056 1131 1062 1091 1062 1049 c 2
 1062 211 l 2
 1062 95 967 0 851 0 c 2
 484 0 l 2
 278 0 110 167 110 372 c 2
EndSplineSet
Validated: 1
EndChar

StartChar: ntilde
Encoding: 241 241 179
GlifName: ntilde
Width: 1192
GlyphClass: 2
Flags: MW
HStem: 0 21G<120 120 120 331 861 861 861 1072> 827 209<333 698 333 698 331 698> 1158 154<717.5 738.5 707.5 786.5> 1239 148<451.5 476.5 405 482.5>
VStem: 120 211<0 826 826 827 0 884> 267 155<1166 1191> 768 157<1358 1382> 861 211<0 659 659 662 0 705.5>
LayerCount: 2
Fore
SplineSet
267 1166 m 1xd6
 268 1294 349 1387 461 1387 c 0xd6
 492 1387 524 1378 592 1350 c 0
 665 1320 692 1312 723 1312 c 0
 754 1312 768 1334 768 1382 c 1
 925 1382 l 1
 925 1258 840 1158 733 1158 c 0xea
 702 1158 670 1168 600 1198 c 0
 525 1230 498 1239 467 1239 c 0
 436 1239 422 1216 422 1166 c 1
 267 1166 l 1xd6
120 0 m 1xe9
 120 826 l 2
 120 942 215 1036 333 1036 c 2
 698 1036 l 2
 904 1036 1072 868 1072 662 c 2
 1072 0 l 1
 861 0 l 1
 861 659 l 2
 861 752 788 827 698 827 c 2
 331 827 l 1
 331 0 l 1
 120 0 l 1xe9
EndSplineSet
Validated: 1
EndChar

StartChar: ograve
Encoding: 242 242 180
GlifName: ograve
Width: 1194
GlyphClass: 2
Flags: MW
HStem: 0 211<381 710 484 710> 825 211<439 710 484 710> 1158 422<582 597>
VStem: 110 211<374 376 376 660> 399 312<1211 1492> 873 211<376 660 660 662>
LayerCount: 2
Fore
SplineSet
321 660 m 2
 321 376 l 2
 321 285 394 211 484 211 c 2
 710 211 l 2
 800 211 873 285 873 376 c 2
 873 660 l 2
 873 751 800 825 710 825 c 2
 484 825 l 2
 394 825 321 751 321 660 c 2
110 374 m 2
 110 662 l 2
 110 868 278 1036 484 1036 c 2
 710 1036 l 2
 916 1036 1084 868 1084 662 c 2
 1084 374 l 2
 1084 168 916 0 710 0 c 2
 484 0 l 2
 278 0 110 168 110 374 c 2
597 1158 m 1
 399 1492 l 1
 582 1580 l 1
 711 1211 l 1
 597 1158 l 1
EndSplineSet
Validated: 1
EndChar

StartChar: oacute
Encoding: 243 243 181
GlifName: oacute
Width: 1194
GlyphClass: 2
Flags: MW
HStem: 0 211<381 710 484 710> 825 211<439 710 484 710> 1158 422<597 612>
VStem: 110 211<374 376 376 660> 483 312<1211 1492> 873 211<376 660 660 662>
LayerCount: 2
Fore
SplineSet
321 660 m 2
 321 376 l 2
 321 285 394 211 484 211 c 2
 710 211 l 2
 800 211 873 285 873 376 c 2
 873 660 l 2
 873 751 800 825 710 825 c 2
 484 825 l 2
 394 825 321 751 321 660 c 2
110 374 m 2
 110 662 l 2
 110 868 278 1036 484 1036 c 2
 710 1036 l 2
 916 1036 1084 868 1084 662 c 2
 1084 374 l 2
 1084 168 916 0 710 0 c 2
 484 0 l 2
 278 0 110 168 110 374 c 2
597 1158 m 1
 483 1211 l 1
 612 1580 l 1
 795 1492 l 1
 597 1158 l 1
EndSplineSet
Validated: 1
EndChar

StartChar: ocircumflex
Encoding: 244 244 182
GlifName: ocircumflex
Width: 1194
GlyphClass: 2
Flags: MW
HStem: 0 211<381 710 484 710> 825 211<439 710 484 710> 1158 309<286 675 286 675 520 768 520 909>
VStem: 110 211<374 376 376 660> 286 623<1158 1158> 873 211<376 660 660 662>
LayerCount: 2
Fore
SplineSet
321 660 m 2xf4
 321 376 l 2
 321 285 394 211 484 211 c 2
 710 211 l 2
 800 211 873 285 873 376 c 2
 873 660 l 2
 873 751 800 825 710 825 c 2
 484 825 l 2
 394 825 321 751 321 660 c 2xf4
110 374 m 2
 110 662 l 2
 110 868 278 1036 484 1036 c 2
 710 1036 l 2
 916 1036 1084 868 1084 662 c 2
 1084 374 l 2
 1084 168 916 0 710 0 c 2
 484 0 l 2
 278 0 110 168 110 374 c 2
427 1158 m 1
 286 1158 l 1
 520 1467 l 1
 675 1467 l 1
 909 1158 l 1xe8
 768 1158 l 1
 597 1330 l 1
 427 1158 l 1
EndSplineSet
Validated: 1
EndChar

StartChar: otilde
Encoding: 245 245 183
GlifName: otilde
Width: 1194
GlyphClass: 2
Flags: MW
HStem: 0 211<381 710 484 710> 825 211<439 710 484 710> 1158 154<718.5 739.5 708.5 787.5> 1239 148<452.5 477.5 406 483.5>
VStem: 110 211<374 376 376 660> 268 155<1166 1191> 769 157<1358 1382> 873 211<376 660 660 662>
LayerCount: 2
Fore
SplineSet
321 660 m 2xe9
 321 376 l 2
 321 285 394 211 484 211 c 2
 710 211 l 2
 800 211 873 285 873 376 c 2
 873 660 l 2
 873 751 800 825 710 825 c 2
 484 825 l 2
 394 825 321 751 321 660 c 2xe9
110 374 m 2
 110 662 l 2
 110 868 278 1036 484 1036 c 2
 710 1036 l 2
 916 1036 1084 868 1084 662 c 2
 1084 374 l 2
 1084 168 916 0 710 0 c 2
 484 0 l 2
 278 0 110 168 110 374 c 2
423 1166 m 1xd6
 268 1166 l 1
 269 1294 350 1387 462 1387 c 0xd6
 493 1387 525 1378 593 1350 c 0
 666 1320 693 1312 724 1312 c 0
 755 1312 769 1334 769 1382 c 1
 926 1382 l 1
 926 1258 841 1158 734 1158 c 0xea
 703 1158 671 1168 601 1198 c 0
 526 1230 499 1239 468 1239 c 0
 437 1239 423 1216 423 1166 c 1xd6
EndSplineSet
Validated: 1
EndChar

StartChar: odieresis
Encoding: 246 246 184
GlifName: odieresis
Width: 1194
GlyphClass: 2
Flags: MW
HStem: 0 211<381 710 484 710> 825 211<439 710 484 710> 1158 221<396.5 458 736.5 798>
VStem: 110 211<374 376 376 660> 317 221<1237.5 1299> 657 221<1237.5 1299> 873 211<376 660 660 662>
LayerCount: 2
Fore
SplineSet
321 660 m 2xf2
 321 376 l 2
 321 285 394 211 484 211 c 2
 710 211 l 2
 800 211 873 285 873 376 c 2
 873 660 l 2
 873 751 800 825 710 825 c 2
 484 825 l 2
 394 825 321 751 321 660 c 2xf2
110 374 m 2
 110 662 l 2
 110 868 278 1036 484 1036 c 2
 710 1036 l 2
 916 1036 1084 868 1084 662 c 2
 1084 374 l 2
 1084 168 916 0 710 0 c 2
 484 0 l 2
 278 0 110 168 110 374 c 2
317 1268 m 0xec
 317 1330 366 1379 427 1379 c 0
 489 1379 538 1330 538 1268 c 0
 538 1207 489 1158 427 1158 c 0
 366 1158 317 1207 317 1268 c 0xec
657 1268 m 0
 657 1330 706 1379 767 1379 c 0
 829 1379 878 1330 878 1268 c 0
 878 1207 829 1158 767 1158 c 0
 706 1158 657 1207 657 1268 c 0
EndSplineSet
Validated: 1
EndChar

StartChar: divide
Encoding: 247 247 185
GlifName: divide
Width: 1237
GlyphClass: 2
Flags: MW
HStem: 144 220<587.5 649> 464 178<120 1117 120 1117> 742 222<587.5 649>
VStem: 508 221<223.5 284.5 822.5 883.5>
LayerCount: 2
Fore
SplineSet
120 464 m 1
 120 642 l 1
 1117 642 l 1
 1117 464 l 1
 120 464 l 1
508 254 m 0
 508 315 557 364 618 364 c 0
 680 364 729 315 729 254 c 0
 729 193 680 144 618 144 c 0
 557 144 508 193 508 254 c 0
508 853 m 0
 508 914 557 964 618 964 c 0
 680 964 729 915 729 853 c 0
 729 791 680 742 618 742 c 0
 557 742 508 792 508 853 c 0
EndSplineSet
Validated: 1
EndChar

StartChar: oslash
Encoding: 248 248 186
GlifName: oslash
Width: 1194
GlyphClass: 2
Flags: MW
HStem: 0 211<462 710 492 710 492 710> 825 211<439 710 484 691>
VStem: 110 211<374 376 376 660> 873 211<376 660 660 662>
LayerCount: 2
Fore
SplineSet
321 660 m 2
 321 376 l 2
 321 354 325 333 333 314 c 1
 691 825 l 1
 484 825 l 2
 394 825 321 751 321 660 c 2
857 732 m 1
 492 211 l 1
 710 211 l 2
 800 211 873 285 873 376 c 2
 873 660 l 2
 873 686 868 710 857 732 c 1
110 374 m 2
 110 662 l 2
 110 868 278 1036 484 1036 c 2
 710 1036 l 2
 752 1036 792 1030 826 1018 c 1
 917 1148 l 1
 1072 1039 l 1
 985 915 l 1
 1049 845 1084 755 1084 662 c 2
 1084 374 l 2
 1084 168 916 0 710 0 c 2
 484 0 l 2
 440 0 398 7 359 21 c 1
 266 -111 l 1
 111 -3 l 1
 203 128 l 1
 143 197 110 284 110 374 c 2
EndSplineSet
Validated: 1
EndChar

StartChar: ugrave
Encoding: 249 249 187
GlifName: ugrave
Width: 1192
GlyphClass: 2
Flags: MW
HStem: 0 209<391 861 494 859> 1016 20G<120 331 331 331 861 1072 1072 1072> 1158 422<581 596>
VStem: 120 211<374 377 377 1036> 398 312<1211 1492> 861 211<209 210 210 1036>
LayerCount: 2
Fore
SplineSet
398 1492 m 1
 581 1580 l 1
 710 1211 l 1
 596 1158 l 1
 398 1492 l 1
120 374 m 2
 120 1036 l 1
 331 1036 l 1
 331 377 l 2
 331 284 404 209 494 209 c 2
 861 209 l 1
 861 1036 l 1
 1072 1036 l 1
 1072 210 l 2
 1072 94 977 0 859 0 c 2
 494 0 l 2
 288 0 120 168 120 374 c 2
EndSplineSet
Validated: 1
EndChar

StartChar: uacute
Encoding: 250 250 188
GlifName: uacute
Width: 1192
GlyphClass: 2
Flags: MW
HStem: 0 209<391 861 494 859> 1016 20G<120 331 331 331 861 1072 1072 1072> 1158 422<596 611>
VStem: 120 211<374 377 377 1036> 482 312<1211 1492> 861 211<209 210 210 1036>
LayerCount: 2
Fore
SplineSet
482 1211 m 1
 611 1580 l 1
 794 1492 l 1
 596 1158 l 1
 482 1211 l 1
120 374 m 2
 120 1036 l 1
 331 1036 l 1
 331 377 l 2
 331 284 404 209 494 209 c 2
 861 209 l 1
 861 1036 l 1
 1072 1036 l 1
 1072 210 l 2
 1072 94 977 0 859 0 c 2
 494 0 l 2
 288 0 120 168 120 374 c 2
EndSplineSet
Validated: 1
EndChar

StartChar: ucircumflex
Encoding: 251 251 189
GlifName: ucircumflex
Width: 1192
GlyphClass: 2
Flags: MW
HStem: 0 209<391 861 494 859> 1016 20G<120 331 331 331 861 1072 1072 1072> 1158 309<285 674 285 674 519 767 519 908>
VStem: 120 211<374 377 377 1036> 285 623<1158 1158> 861 211<209 210 210 1036>
LayerCount: 2
Fore
SplineSet
285 1158 m 1xe8
 519 1467 l 1
 674 1467 l 1
 908 1158 l 1
 767 1158 l 1
 596 1330 l 1
 426 1158 l 1
 285 1158 l 1xe8
120 374 m 2xf4
 120 1036 l 1
 331 1036 l 1
 331 377 l 2
 331 284 404 209 494 209 c 2
 861 209 l 1
 861 1036 l 1
 1072 1036 l 1
 1072 210 l 2
 1072 94 977 0 859 0 c 2
 494 0 l 2
 288 0 120 168 120 374 c 2xf4
EndSplineSet
Validated: 1
EndChar

StartChar: udieresis
Encoding: 252 252 190
GlifName: udieresis
Width: 1192
GlyphClass: 2
Flags: MW
HStem: 0 209<391 861 494 859> 1016 20G<120 331 331 331 861 1072 1072 1072> 1158 221<395.5 457 735.5 797>
VStem: 120 211<374 377 377 1036> 316 221<1237.5 1299> 656 221<1237.5 1299> 861 211<209 210 210 1036>
LayerCount: 2
Fore
SplineSet
316 1268 m 0xec
 316 1330 365 1379 426 1379 c 0
 488 1379 537 1330 537 1268 c 0
 537 1207 488 1158 426 1158 c 0
 365 1158 316 1207 316 1268 c 0xec
656 1268 m 0
 656 1330 705 1379 766 1379 c 0
 828 1379 877 1330 877 1268 c 0
 877 1207 828 1158 766 1158 c 0
 705 1158 656 1207 656 1268 c 0
120 374 m 2xf2
 120 1036 l 1
 331 1036 l 1
 331 377 l 2
 331 284 404 209 494 209 c 2
 861 209 l 1
 861 1036 l 1
 1072 1036 l 1
 1072 210 l 2
 1072 94 977 0 859 0 c 2
 494 0 l 2
 288 0 120 168 120 374 c 2xf2
EndSplineSet
Validated: 1
EndChar

StartChar: yacute
Encoding: 253 253 191
GlifName: yacute
Width: 1121
GlyphClass: 2
Flags: MW
HStem: -390 21G<280 511 280 280> 1016 20G<60 284 284 284 828 1061 1061 1061> 1158 422<561 576>
VStem: 447 312<1211 1492>
LayerCount: 2
Fore
SplineSet
447 1211 m 1
 576 1580 l 1
 759 1492 l 1
 561 1158 l 1
 447 1211 l 1
60 1036 m 1
 284 1036 l 1
 553 318 l 1
 828 1036 l 1
 1061 1036 l 1
 511 -390 l 1
 280 -390 l 1
 441 34 l 1
 60 1036 l 1
EndSplineSet
Validated: 1
EndChar

StartChar: thorn
Encoding: 254 254 192
GlifName: thorn
Width: 1224
GlyphClass: 2
Flags: MW
HStem: -390 21G<140 351 140 140> 0 211<484.5 740 514 740> 825 211<469 740 514 740> 1402 20G<140 351 351 351>
VStem: 140 211<-390 37 330.5 376 376 660 999 1422> 903 211<376 660 660 662>
LayerCount: 2
Fore
SplineSet
351 660 m 2
 351 376 l 2
 351 285 424 211 514 211 c 2
 740 211 l 2
 830 211 903 285 903 376 c 2
 903 660 l 2
 903 751 830 825 740 825 c 2
 514 825 l 2
 424 825 351 751 351 660 c 2
351 -390 m 1
 140 -390 l 1
 140 1422 l 1
 351 1422 l 1
 351 999 l 1
 400 1024 455 1036 514 1036 c 2
 740 1036 l 2
 946 1036 1114 868 1114 662 c 2
 1114 374 l 2
 1114 168 946 0 740 0 c 2
 514 0 l 2
 455 0 400 12 351 37 c 1
 351 -390 l 1
EndSplineSet
Validated: 1
EndChar

StartChar: ydieresis
Encoding: 255 255 193
GlifName: ydieresis
Width: 1121
GlyphClass: 2
Flags: MW
HStem: -390 21G<280 511 280 280> 1016 20G<60 284 284 284 828 1061 1061 1061> 1158 221<359.5 421 699.5 761>
VStem: 280 221<1237.5 1299> 620 221<1237.5 1299>
LayerCount: 2
Fore
SplineSet
280 1268 m 0
 280 1330 329 1379 390 1379 c 0
 452 1379 501 1330 501 1268 c 0
 501 1207 452 1158 390 1158 c 0
 329 1158 280 1207 280 1268 c 0
620 1268 m 0
 620 1330 669 1379 730 1379 c 0
 792 1379 841 1330 841 1268 c 0
 841 1207 792 1158 730 1158 c 0
 669 1158 620 1207 620 1268 c 0
60 1036 m 1
 284 1036 l 1
 553 318 l 1
 828 1036 l 1
 1061 1036 l 1
 511 -390 l 1
 280 -390 l 1
 441 34 l 1
 60 1036 l 1
EndSplineSet
Validated: 1
EndChar

StartChar: Amacron
Encoding: 256 256 194
GlifName: A_macron
Width: 1361
GlyphClass: 2
Flags: MW
HStem: 0 21G<40 40 40 265 1096 1096 1096 1321> 428 210<620 865 620 941 544 865> 1402 20G<549 812 812 812> 1544 147<382 979 382 979>
VStem: 382 597<1544 1691 1544 1691>
LayerCount: 2
Fore
SplineSet
382 1544 m 1
 382 1691 l 1
 979 1691 l 1
 979 1544 l 1
 382 1544 l 1
40 0 m 1
 549 1422 l 1
 812 1422 l 1
 1321 0 l 1
 1096 0 l 1
 941 428 l 1
 544 428 l 1
 620 638 l 1
 865 638 l 1
 681 1146 l 1
 265 0 l 1
 40 0 l 1
EndSplineSet
Validated: 1
EndChar

StartChar: amacron
Encoding: 257 257 195
GlifName: amacron
Width: 1182
GlyphClass: 2
Flags: MW
HStem: 0 211<381 731 484 731 484 1062 484 851> 825 211<439 1062 484 851> 1158 147<288 885 288 885>
VStem: 110 211<374 376 376 662> 288 597<1158 1305 1158 1305> 851 211<0 825 825 825>
LayerCount: 2
Fore
SplineSet
288 1158 m 1xe8
 288 1305 l 1
 885 1305 l 1
 885 1158 l 1
 288 1158 l 1xe8
110 374 m 2xf4
 110 664 l 2
 110 869 278 1036 484 1036 c 2
 1062 1036 l 1
 1062 0 l 1
 851 0 l 1
 851 825 l 1
 484 825 l 2
 394 825 321 752 321 662 c 2
 321 376 l 2
 321 285 394 211 484 211 c 2
 731 211 l 1
 731 0 l 1
 484 0 l 2
 278 0 110 168 110 374 c 2xf4
EndSplineSet
Validated: 1
EndChar

StartChar: Abreve
Encoding: 258 258 196
GlifName: A_breve
Width: 1361
GlyphClass: 2
Flags: MW
HStem: 0 21G<40 40 40 265 1096 1096 1096 1321> 428 210<620 865 620 941 544 865> 1402 20G<549 812 812 812> 1544 134<636 726 636 763>
VStem: 383 134<1797 1842 1797 1842> 845 134<1797 1842>
LayerCount: 2
Fore
SplineSet
383 1842 m 1
 517 1842 l 1
 517 1752 591 1678 681 1678 c 0
 771 1678 845 1752 845 1842 c 1
 979 1842 l 1
 979 1678 845 1544 681 1544 c 0
 517 1544 383 1678 383 1842 c 1
40 0 m 1
 549 1422 l 1
 812 1422 l 1
 1321 0 l 1
 1096 0 l 1
 941 428 l 1
 544 428 l 1
 620 638 l 1
 865 638 l 1
 681 1146 l 1
 265 0 l 1
 40 0 l 1
EndSplineSet
Validated: 1
EndChar

StartChar: abreve
Encoding: 259 259 197
GlifName: abreve
Width: 1182
GlyphClass: 2
Flags: MW
HStem: 0 211<381 731 484 731 484 1062 484 851> 825 211<439 1062 484 851> 1158 134<541 631 541 668>
VStem: 110 211<374 376 376 662> 288 134<1411 1456 1411 1456> 750 134<1411 1456> 851 211<0 825 825 825>
LayerCount: 2
Fore
SplineSet
288 1456 m 1xec
 422 1456 l 1
 422 1366 496 1292 586 1292 c 0
 676 1292 750 1366 750 1456 c 1
 884 1456 l 1
 884 1292 750 1158 586 1158 c 0
 422 1158 288 1292 288 1456 c 1xec
110 374 m 2xf2
 110 664 l 2
 110 869 278 1036 484 1036 c 2
 1062 1036 l 1
 1062 0 l 1
 851 0 l 1
 851 825 l 1
 484 825 l 2
 394 825 321 752 321 662 c 2
 321 376 l 2
 321 285 394 211 484 211 c 2
 731 211 l 1
 731 0 l 1
 484 0 l 2
 278 0 110 168 110 374 c 2xf2
EndSplineSet
Validated: 1
EndChar

StartChar: Aogonek
Encoding: 260 260 198
GlifName: A_ogonek
Width: 1361
GlyphClass: 2
Flags: MW
HStem: -303 150<1196 1296.5> 0 21G<40 40 40 265 1096 1096 1096 1135 1283 1283 1283 1321> 428 210<620 865 620 941 544 865> 1402 20G<549 812 812 812>
VStem: 1096 151<-217.5 -113 -133 0>
LayerCount: 2
Fore
SplineSet
40 0 m 1
 549 1422 l 1
 812 1422 l 1
 1321 0 l 1
 1283 0 l 1
 1252 -89 1247 -104 1247 -122 c 0
 1247 -144 1258 -153 1288 -153 c 0
 1305 -153 1316 -152 1398 -139 c 1
 1398 -287 l 1
 1310 -300 1281 -303 1248 -303 c 0
 1144 -303 1096 -262 1096 -173 c 0
 1096 -130 1109 -74 1135 0 c 1
 1096 0 l 1
 941 428 l 1
 544 428 l 1
 620 638 l 1
 865 638 l 1
 681 1146 l 1
 265 0 l 1
 40 0 l 1
EndSplineSet
Validated: 1
EndChar

StartChar: aogonek
Encoding: 261 261 199
GlifName: aogonek
Width: 1182
GlyphClass: 2
Flags: MW
HStem: -303 150<944 1044.5> 0 211<381 731 484 731 484 882 484 851> 825 211<439 1062 484 851>
VStem: 110 211<374 376 376 662> 844 151<-217.5 -112.5> 851 211<0 825 825 825>
LayerCount: 2
Fore
SplineSet
110 374 m 2xf4
 110 664 l 2
 110 869 278 1036 484 1036 c 2
 1062 1036 l 1
 1062 0 l 1xf4
 1030 0 l 1
 1001 -82 995 -103 995 -122 c 0
 995 -144 1006 -153 1036 -153 c 0
 1053 -153 1064 -152 1146 -139 c 1
 1146 -287 l 1
 1058 -300 1029 -303 996 -303 c 0
 892 -303 844 -262 844 -173 c 0xf8
 844 -129 857 -71 882 0 c 1
 851 0 l 1
 851 825 l 1
 484 825 l 2
 394 825 321 752 321 662 c 2
 321 376 l 2
 321 285 394 211 484 211 c 2
 731 211 l 1
 731 0 l 1
 484 0 l 2
 278 0 110 168 110 374 c 2xf4
EndSplineSet
Validated: 1
EndChar

StartChar: Cacute
Encoding: 262 262 200
GlifName: C_acute
Width: 1381
GlyphClass: 2
Flags: MW
HStem: 0 211<414 1271 526 1271> 1212 210<472 1271 526 1271> 1544 422<624 639>
VStem: 120 211<393 396 396 1022> 510 312<1597 1878>
LayerCount: 2
Fore
SplineSet
510 1597 m 1
 639 1966 l 1
 822 1878 l 1
 624 1544 l 1
 510 1597 l 1
120 393 m 2
 120 1022 l 2
 120 1243 302 1422 526 1422 c 2
 1271 1422 l 1
 1271 1212 l 1
 526 1212 l 2
 418 1212 331 1127 331 1022 c 2
 331 396 l 2
 331 294 418 211 526 211 c 2
 1271 211 l 1
 1271 0 l 1
 526 0 l 2
 302 0 120 176 120 393 c 2
EndSplineSet
Validated: 1
EndChar

StartChar: cacute
Encoding: 263 263 201
GlifName: cacute
Width: 1187
GlyphClass: 2
Flags: MW
HStem: 0 211<388 1077 494 1077> 825 211<446.5 1077 494 1077> 1158 422<522 537>
VStem: 110 211<376 378 378 659> 408 312<1211 1492>
LayerCount: 2
Fore
SplineSet
408 1211 m 1
 537 1580 l 1
 720 1492 l 1
 522 1158 l 1
 408 1211 l 1
110 376 m 2
 110 662 l 2
 110 868 282 1036 494 1036 c 2
 1077 1036 l 1
 1077 825 l 1
 494 825 l 2
 399 825 321 751 321 659 c 2
 321 378 l 2
 321 286 398 211 494 211 c 2
 1077 211 l 1
 1077 0 l 1
 494 0 l 2
 282 0 110 169 110 376 c 2
EndSplineSet
Validated: 1
EndChar

StartChar: Ccircumflex
Encoding: 264 264 202
GlifName: C_circumflex
Width: 1381
GlyphClass: 2
Flags: MW
HStem: 0 211<414 1271 526 1271> 1212 210<472 1271 526 1271> 1544 309<384 773 384 773 618 866 618 1007>
VStem: 120 211<393 396 396 1022> 384 623<1544 1544>
LayerCount: 2
Fore
SplineSet
384 1544 m 1
 618 1853 l 1
 773 1853 l 1
 1007 1544 l 1
 866 1544 l 1
 695 1716 l 1
 525 1544 l 1
 384 1544 l 1
120 393 m 2
 120 1022 l 2
 120 1243 302 1422 526 1422 c 2
 1271 1422 l 1
 1271 1212 l 1
 526 1212 l 2
 418 1212 331 1127 331 1022 c 2
 331 396 l 2
 331 294 418 211 526 211 c 2
 1271 211 l 1
 1271 0 l 1
 526 0 l 2
 302 0 120 176 120 393 c 2
EndSplineSet
Validated: 1
EndChar

StartChar: ccircumflex
Encoding: 265 265 203
GlifName: ccircumflex
Width: 1187
GlyphClass: 2
Flags: MW
HStem: 0 211<388 1077 494 1077> 825 211<446.5 1077 494 1077> 1158 309<282 671 282 671 516 764 516 905>
VStem: 110 211<376 378 378 659> 282 623<1158 1158>
LayerCount: 2
Fore
SplineSet
282 1158 m 1xe8
 516 1467 l 1
 671 1467 l 1
 905 1158 l 1
 764 1158 l 1
 593 1330 l 1
 423 1158 l 1
 282 1158 l 1xe8
110 376 m 2xf0
 110 662 l 2
 110 868 282 1036 494 1036 c 2
 1077 1036 l 1
 1077 825 l 1
 494 825 l 2
 399 825 321 751 321 659 c 2
 321 378 l 2xf0
 321 286 398 211 494 211 c 2
 1077 211 l 1
 1077 0 l 1
 494 0 l 2xe8
 282 0 110 169 110 376 c 2xf0
EndSplineSet
Validated: 1
EndChar

StartChar: Cdotaccent
Encoding: 266 266 204
GlifName: C_dotaccent
Width: 1381
GlyphClass: 2
Flags: MW
HStem: 0 211<414 1271 526 1271> 1212 210<472 1271 526 1271> 1544 221<665.5 726.5>
VStem: 120 211<393 396 396 1022> 585 221<1623.5 1685>
LayerCount: 2
Fore
SplineSet
585 1654 m 0
 585 1716 634 1765 696 1765 c 0
 757 1765 806 1716 806 1654 c 0
 806 1593 757 1544 696 1544 c 0
 635 1544 585 1593 585 1654 c 0
120 393 m 2
 120 1022 l 2
 120 1243 302 1422 526 1422 c 2
 1271 1422 l 1
 1271 1212 l 1
 526 1212 l 2
 418 1212 331 1127 331 1022 c 2
 331 396 l 2
 331 294 418 211 526 211 c 2
 1271 211 l 1
 1271 0 l 1
 526 0 l 2
 302 0 120 176 120 393 c 2
EndSplineSet
Validated: 1
EndChar

StartChar: cdotaccent
Encoding: 267 267 205
GlifName: cdotaccent
Width: 1187
GlyphClass: 2
Flags: MW
HStem: 0 211<388 1077 494 1077> 825 211<446.5 1077 494 1077> 1158 221<563.5 624.5>
VStem: 110 211<376 378 378 659> 483 221<1237.5 1299>
LayerCount: 2
Fore
SplineSet
483 1268 m 0
 483 1330 532 1379 594 1379 c 0
 655 1379 704 1330 704 1268 c 0
 704 1207 655 1158 594 1158 c 0
 533 1158 483 1207 483 1268 c 0
110 376 m 2
 110 662 l 2
 110 868 282 1036 494 1036 c 2
 1077 1036 l 1
 1077 825 l 1
 494 825 l 2
 399 825 321 751 321 659 c 2
 321 378 l 2
 321 286 398 211 494 211 c 2
 1077 211 l 1
 1077 0 l 1
 494 0 l 2
 282 0 110 169 110 376 c 2
EndSplineSet
Validated: 1
EndChar

StartChar: Ccaron
Encoding: 268 268 206
GlifName: C_caron
Width: 1381
GlyphClass: 2
Flags: MW
HStem: 0 211<414 1271 526 1271> 1212 210<472 1271 526 1271> 1544 309<384 773 384 618>
VStem: 120 211<393 396 396 1022> 384 623<1853 1853>
LayerCount: 2
Fore
SplineSet
384 1853 m 1
 525 1853 l 1
 695 1681 l 1
 866 1853 l 1
 1007 1853 l 1
 773 1544 l 1
 618 1544 l 1
 384 1853 l 1
120 393 m 2
 120 1022 l 2
 120 1243 302 1422 526 1422 c 2
 1271 1422 l 1
 1271 1212 l 1
 526 1212 l 2
 418 1212 331 1127 331 1022 c 2
 331 396 l 2
 331 294 418 211 526 211 c 2
 1271 211 l 1
 1271 0 l 1
 526 0 l 2
 302 0 120 176 120 393 c 2
EndSplineSet
Validated: 1
EndChar

StartChar: ccaron
Encoding: 269 269 207
GlifName: ccaron
Width: 1187
GlyphClass: 2
Flags: MW
HStem: 0 211<388 1077 494 1077> 825 211<446.5 1077 494 1077> 1158 309<282 671 282 516>
VStem: 110 211<376 378 378 659> 282 623<1467 1467>
LayerCount: 2
Fore
SplineSet
282 1467 m 1xe8
 423 1467 l 1
 593 1295 l 1
 764 1467 l 1
 905 1467 l 1
 671 1158 l 1
 516 1158 l 1
 282 1467 l 1xe8
110 376 m 2xf0
 110 662 l 2
 110 868 282 1036 494 1036 c 2
 1077 1036 l 1
 1077 825 l 1
 494 825 l 2
 399 825 321 751 321 659 c 2
 321 378 l 2xf0
 321 286 398 211 494 211 c 2
 1077 211 l 1
 1077 0 l 1
 494 0 l 2xe8
 282 0 110 169 110 376 c 2xf0
EndSplineSet
Validated: 1
EndChar

StartChar: Dcaron
Encoding: 270 270 208
GlifName: D_caron
Width: 1418
GlyphClass: 2
Flags: MW
HStem: 0 211<351 896 351 896> 1212 210<351 351 351 896> 1544 309<408 642 408 797>
VStem: 140 211<211 1212 211 1422 211 1422> 408 623<1853 1853> 1088 210<399 1022>
LayerCount: 2
Fore
SplineSet
351 1212 m 1
 351 211 l 1
 896 211 l 2
 1002 211 1088 295 1088 399 c 2
 1088 1022 l 2
 1088 1127 1002 1212 896 1212 c 2
 351 1212 l 1
896 0 m 2
 140 0 l 1
 140 1422 l 1
 896 1422 l 2
 1118 1422 1298 1243 1298 1022 c 2
 1298 396 l 2
 1298 177 1118 0 896 0 c 2
642 1544 m 1
 408 1853 l 1
 549 1853 l 1
 719 1681 l 1
 890 1853 l 1
 1031 1853 l 1
 797 1544 l 1
 642 1544 l 1
EndSplineSet
Validated: 1
EndChar

StartChar: dcaron
Encoding: 271 271 209
GlifName: dcaron
Width: 1182
GlyphClass: 2
Flags: MW
HStem: 0 211<381 851 484 851> 825 211<439 731 484 731> 1000 422<851 1287> 1402 20G<851 1062 1062 1062 1302 1302>
VStem: 110 211<372 374 374 660> 851 211<0 211 211 1422> 1173 312<1053 1334>
LayerCount: 2
Fore
SplineSet
1173 1053 m 1xae
 1302 1422 l 1
 1485 1334 l 1
 1287 1000 l 1
 1173 1053 l 1xae
110 372 m 2
 110 662 l 2
 110 868 278 1036 484 1036 c 2
 731 1036 l 1
 731 825 l 1
 484 825 l 2xde
 394 825 321 751 321 660 c 2
 321 374 l 2
 321 284 394 211 484 211 c 2
 851 211 l 1
 851 1422 l 1
 1062 1422 l 1
 1062 211 l 2
 1062 95 967 0 851 0 c 2
 484 0 l 2
 278 0 110 167 110 372 c 2
EndSplineSet
Validated: 1
EndChar

StartChar: Dcroat
Encoding: 272 272 210
GlifName: D_croat
Width: 1465
GlyphClass: 2
Flags: MW
HStem: 0 211<397 942 397 942 187 942> 650 170<90 187 90 187 397 867> 1212 210<397 942 397 397>
VStem: 187 210<211 211 211 650 820 1212> 1135 210<399 1022>
LayerCount: 2
Fore
SplineSet
90 650 m 1
 90 820 l 1
 187 820 l 1
 187 1422 l 1
 942 1422 l 2
 1164 1422 1345 1243 1345 1022 c 2
 1345 396 l 2
 1345 177 1164 0 942 0 c 2
 187 0 l 1
 187 650 l 1
 90 650 l 1
397 211 m 1
 942 211 l 2
 1048 211 1135 295 1135 399 c 2
 1135 1022 l 2
 1135 1127 1048 1212 942 1212 c 2
 397 1212 l 1
 397 820 l 1
 867 820 l 1
 867 650 l 1
 397 650 l 1
 397 211 l 1
EndSplineSet
Validated: 1
EndChar

StartChar: dcroat
Encoding: 273 273 211
GlifName: dcroat
Width: 1262
GlyphClass: 2
Flags: MW
HStem: 0 211<381 851 484 851> 825 211<439 731 484 731> 1156 147<691 851 691 851 1062 1222> 1402 20G<851 1062 1062 1062>
VStem: 110 211<372 374 374 660> 851 211<0 211 211 1156 1303 1422>
LayerCount: 2
Fore
SplineSet
110 372 m 2
 110 662 l 2
 110 868 278 1036 484 1036 c 2
 731 1036 l 1
 731 825 l 1
 484 825 l 2
 394 825 321 751 321 660 c 2
 321 374 l 2
 321 284 394 211 484 211 c 2
 851 211 l 1
 851 1156 l 1
 691 1156 l 1
 691 1303 l 1
 851 1303 l 1
 851 1422 l 1
 1062 1422 l 1
 1062 1303 l 1
 1222 1303 l 1
 1222 1156 l 1
 1062 1156 l 1
 1062 211 l 2
 1062 95 967 0 851 0 c 2
 484 0 l 2
 278 0 110 167 110 372 c 2
EndSplineSet
Validated: 1
EndChar

StartChar: Emacron
Encoding: 274 274 212
GlifName: E_macron
Width: 1363
GlyphClass: 2
Flags: MW
HStem: 0 211<351 1243 351 1243> 635 210<471 1243 471 1243> 1212 210<351 1243 351 351> 1544 147<393 990 393 990>
VStem: 140 211<211 1212 211 1422 211 1422> 393 597<1544 1691 1544 1691>
LayerCount: 2
Fore
SplineSet
393 1544 m 1
 393 1691 l 1
 990 1691 l 1
 990 1544 l 1
 393 1544 l 1
140 0 m 1
 140 1422 l 1
 1243 1422 l 1
 1243 1212 l 1
 351 1212 l 1
 351 211 l 1
 1243 211 l 1
 1243 0 l 1
 140 0 l 1
471 635 m 1
 471 845 l 1
 1243 845 l 1
 1243 635 l 1
 471 635 l 1
EndSplineSet
Validated: 1
EndChar

StartChar: emacron
Encoding: 275 275 213
GlifName: emacron
Width: 1182
GlyphClass: 2
Flags: MW
HStem: 0 211<330 999 410 999> 408 210<451 773 451 775> 825 211<341 773 773 775 331 773> 1158 147<298 895 298 895>
VStem: 120 211<292 293 293 822 822 825> 298 597<1158 1305 1158 1305> 862 210<707 735 624 760>
LayerCount: 2
Fore
SplineSet
298 1158 m 1xf4
 298 1305 l 1
 895 1305 l 1
 895 1158 l 1
 298 1158 l 1xf4
120 292 m 2xfa
 120 822 l 2
 120 940 219 1036 341 1036 c 2
 773 1036 l 2
 938 1036 1072 901 1072 735 c 2
 1072 706 l 2
 1072 542 938 408 773 408 c 2
 451 408 l 1
 451 618 l 1
 775 618 l 2
 823 618 862 658 862 707 c 2
 862 735 l 2
 862 785 823 825 775 825 c 2
 331 825 l 1
 331 293 l 2
 331 248 366 211 410 211 c 2
 999 211 l 1
 999 0 l 1
 410 0 l 2
 250 0 120 131 120 292 c 2xfa
EndSplineSet
Validated: 1
EndChar

StartChar: Ebreve
Encoding: 276 276 214
GlifName: E_breve
Width: 1363
GlyphClass: 2
Flags: MW
HStem: 0 211<351 1243 351 1243> 635 210<471 1243 471 1243> 1212 210<351 1243 351 351> 1544 134<647 737 647 774>
VStem: 140 211<211 1212 211 1422 211 1422> 394 134<1797 1842 1797 1842> 856 134<1797 1842>
LayerCount: 2
Fore
SplineSet
394 1842 m 1
 528 1842 l 1
 528 1752 602 1678 692 1678 c 0
 782 1678 856 1752 856 1842 c 1
 990 1842 l 1
 990 1678 856 1544 692 1544 c 0
 528 1544 394 1678 394 1842 c 1
140 0 m 1
 140 1422 l 1
 1243 1422 l 1
 1243 1212 l 1
 351 1212 l 1
 351 211 l 1
 1243 211 l 1
 1243 0 l 1
 140 0 l 1
471 635 m 1
 471 845 l 1
 1243 845 l 1
 1243 635 l 1
 471 635 l 1
EndSplineSet
Validated: 1
EndChar

StartChar: ebreve
Encoding: 277 277 215
GlifName: ebreve
Width: 1182
GlyphClass: 2
Flags: MW
HStem: 0 211<330 999 410 999> 408 210<451 773 451 775> 825 211<341 773 773 775 331 773> 1158 134<551 641 551 678>
VStem: 120 211<292 293 293 822 822 825> 298 134<1411 1456 1411 1456> 760 134<1411 1456> 862 210<707 735 624 760>
LayerCount: 2
Fore
SplineSet
298 1456 m 1xf6
 432 1456 l 1
 432 1366 506 1292 596 1292 c 0
 686 1292 760 1366 760 1456 c 1
 894 1456 l 1
 894 1292 760 1158 596 1158 c 0
 432 1158 298 1292 298 1456 c 1xf6
120 292 m 2xf9
 120 822 l 2
 120 940 219 1036 341 1036 c 2
 773 1036 l 2
 938 1036 1072 901 1072 735 c 2
 1072 706 l 2
 1072 542 938 408 773 408 c 2
 451 408 l 1
 451 618 l 1
 775 618 l 2
 823 618 862 658 862 707 c 2
 862 735 l 2
 862 785 823 825 775 825 c 2
 331 825 l 1
 331 293 l 2
 331 248 366 211 410 211 c 2
 999 211 l 1
 999 0 l 1
 410 0 l 2
 250 0 120 131 120 292 c 2xf9
EndSplineSet
Validated: 1
EndChar

StartChar: Edotaccent
Encoding: 278 278 216
GlifName: E_dotaccent
Width: 1363
GlyphClass: 2
Flags: MW
HStem: 0 211<351 1243 351 1243> 635 210<471 1243 471 1243> 1212 210<351 1243 351 351> 1544 221<661.5 722.5>
VStem: 140 211<211 1212 211 1422 211 1422> 581 221<1623.5 1685>
LayerCount: 2
Fore
SplineSet
581 1654 m 0
 581 1716 630 1765 692 1765 c 0
 753 1765 802 1716 802 1654 c 0
 802 1593 753 1544 692 1544 c 0
 631 1544 581 1593 581 1654 c 0
140 0 m 1
 140 1422 l 1
 1243 1422 l 1
 1243 1212 l 1
 351 1212 l 1
 351 211 l 1
 1243 211 l 1
 1243 0 l 1
 140 0 l 1
471 635 m 1
 471 845 l 1
 1243 845 l 1
 1243 635 l 1
 471 635 l 1
EndSplineSet
Validated: 1
EndChar

StartChar: edotaccent
Encoding: 279 279 217
GlifName: edotaccent
Width: 1182
GlyphClass: 2
Flags: MW
HStem: 0 211<330 999 410 999> 408 210<451 773 451 775> 825 211<341 773 773 775 331 773> 1158 221<565.5 626.5>
VStem: 120 211<292 293 293 822 822 825> 485 221<1237.5 1299> 862 210<707 735 624 760>
LayerCount: 2
Fore
SplineSet
485 1268 m 0
 485 1330 534 1379 596 1379 c 0
 657 1379 706 1330 706 1268 c 0
 706 1207 657 1158 596 1158 c 0
 535 1158 485 1207 485 1268 c 0
120 292 m 2
 120 822 l 2
 120 940 219 1036 341 1036 c 2
 773 1036 l 2
 938 1036 1072 901 1072 735 c 2
 1072 706 l 2
 1072 542 938 408 773 408 c 2
 451 408 l 1
 451 618 l 1
 775 618 l 2
 823 618 862 658 862 707 c 2
 862 735 l 2
 862 785 823 825 775 825 c 2
 331 825 l 1
 331 293 l 2
 331 248 366 211 410 211 c 2
 999 211 l 1
 999 0 l 1
 410 0 l 2
 250 0 120 131 120 292 c 2
EndSplineSet
Validated: 1
EndChar

StartChar: Eogonek
Encoding: 280 280 218
GlifName: E_ogonek
Width: 1363
GlyphClass: 2
Flags: MW
HStem: -303 150<750 850.5> 0 211<351 688 836 836 836 1243> 635 210<471 1243 471 1243> 1212 210<351 1243 351 351>
VStem: 140 211<211 1212 211 1422 211 1422> 650 150<-217.5 -113>
LayerCount: 2
Fore
SplineSet
140 0 m 1
 140 1422 l 1
 1243 1422 l 1
 1243 1212 l 1
 351 1212 l 1
 351 211 l 1
 1243 211 l 1
 1243 0 l 1
 836 0 l 1
 805 -89 800 -104 800 -122 c 0
 800 -144 812 -153 842 -153 c 0
 859 -153 870 -152 952 -139 c 1
 952 -287 l 1
 864 -300 835 -303 802 -303 c 0
 698 -303 650 -262 650 -173 c 0
 650 -129 663 -71 688 0 c 1
 140 0 l 1
471 635 m 1
 471 845 l 1
 1243 845 l 1
 1243 635 l 1
 471 635 l 1
EndSplineSet
Validated: 1
EndChar

StartChar: eogonek
Encoding: 281 281 219
GlifName: eogonek
Width: 1182
GlyphClass: 2
Flags: MW
HStem: -303 150<580 680.5> 0 211<330 999 410 518 666 999 666 666> 408 210<451 773 451 775> 825 211<341 773 773 775 331 773>
VStem: 120 211<292 293 293 822 822 825> 480 151<-217.5 -112.5> 862 210<707 735 624 760>
LayerCount: 2
Fore
SplineSet
120 292 m 2
 120 822 l 2
 120 940 219 1036 341 1036 c 2
 773 1036 l 2
 938 1036 1072 901 1072 735 c 2
 1072 706 l 2
 1072 542 938 408 773 408 c 2
 451 408 l 1
 451 618 l 1
 775 618 l 2
 823 618 862 658 862 707 c 2
 862 735 l 2
 862 785 823 825 775 825 c 2
 331 825 l 1
 331 293 l 2
 331 248 366 211 410 211 c 2
 999 211 l 1
 999 0 l 1
 666 0 l 1
 637 -82 631 -103 631 -122 c 0
 631 -144 642 -153 672 -153 c 0
 689 -153 700 -152 782 -139 c 1
 782 -287 l 1
 694 -300 665 -303 632 -303 c 0
 528 -303 480 -262 480 -173 c 0
 480 -129 493 -71 518 0 c 1
 410 0 l 2
 250 0 120 131 120 292 c 2
EndSplineSet
Validated: 1
EndChar

StartChar: Ecaron
Encoding: 282 282 220
GlifName: E_caron
Width: 1363
GlyphClass: 2
Flags: MW
HStem: 0 211<351 1243 351 1243> 635 210<471 1243 471 1243> 1212 210<351 1243 351 351> 1544 309<380 769 380 614>
VStem: 140 211<211 1212 211 1422 211 1422> 380 623<1853 1853>
LayerCount: 2
Fore
SplineSet
380 1853 m 1
 521 1853 l 1
 691 1681 l 1
 862 1853 l 1
 1003 1853 l 1
 769 1544 l 1
 614 1544 l 1
 380 1853 l 1
140 0 m 1
 140 1422 l 1
 1243 1422 l 1
 1243 1212 l 1
 351 1212 l 1
 351 211 l 1
 1243 211 l 1
 1243 0 l 1
 140 0 l 1
471 635 m 1
 471 845 l 1
 1243 845 l 1
 1243 635 l 1
 471 635 l 1
EndSplineSet
Validated: 1
EndChar

StartChar: ecaron
Encoding: 283 283 221
GlifName: ecaron
Width: 1182
GlyphClass: 2
Flags: MW
HStem: 0 211<330 999 410 999> 408 210<451 773 451 775> 825 211<341 773 773 775 331 773> 1158 309<284 673 284 518>
VStem: 120 211<292 293 293 822 822 825> 284 623<1467 1467> 862 210<707 735 624 760>
LayerCount: 2
Fore
SplineSet
284 1467 m 1xf4
 425 1467 l 1
 595 1295 l 1
 766 1467 l 1
 907 1467 l 1
 673 1158 l 1
 518 1158 l 1
 284 1467 l 1xf4
120 292 m 2xfa
 120 822 l 2
 120 940 219 1036 341 1036 c 2
 773 1036 l 2
 938 1036 1072 901 1072 735 c 2
 1072 706 l 2
 1072 542 938 408 773 408 c 2
 451 408 l 1
 451 618 l 1
 775 618 l 2
 823 618 862 658 862 707 c 2
 862 735 l 2
 862 785 823 825 775 825 c 2
 331 825 l 1
 331 293 l 2
 331 248 366 211 410 211 c 2
 999 211 l 1
 999 0 l 1
 410 0 l 2
 250 0 120 131 120 292 c 2xfa
EndSplineSet
Validated: 1
EndChar

StartChar: Gcircumflex
Encoding: 284 284 222
GlifName: G_circumflex
Width: 1421
GlyphClass: 2
Flags: MW
HStem: 0 210<427 877 544 877> 585 210<704 1090 704 1301> 1212 210<485 1217 544 1217> 1544 309<399 788 399 788 633 881 633 1022>
VStem: 120 211<400 1022 1022 1023> 399 623<1544 1544> 1090 211<399 400 400 585 585 585>
CounterMasks: 1 0e
LayerCount: 2
Fore
SplineSet
399 1544 m 1
 633 1853 l 1
 788 1853 l 1
 1022 1544 l 1
 881 1544 l 1
 710 1716 l 1
 540 1544 l 1
 399 1544 l 1
120 400 m 2
 120 1022 l 2
 120 1243 310 1422 544 1422 c 2
 1217 1422 l 1
 1217 1212 l 1
 544 1212 l 2
 426 1212 331 1127 331 1023 c 2
 331 399 l 2
 331 295 426 210 544 210 c 2
 877 210 l 2
 995 210 1090 295 1090 399 c 2
 1090 585 l 1
 704 585 l 1
 704 795 l 1
 1301 795 l 1
 1301 400 l 2
 1301 179 1111 0 877 0 c 2
 544 0 l 2
 310 0 120 179 120 400 c 2
EndSplineSet
Validated: 1
EndChar

StartChar: gcircumflex
Encoding: 285 285 223
GlifName: gcircumflex
Width: 1182
GlyphClass: 2
Flags: MW
HStem: -388 206<177 688 177 690> 0 210<381 731 484 731> 824 211<439 851 484 851> 1158 309<274 663 274 663 508 756 508 897>
VStem: 110 211<373 375 375 661> 274 623<1158 1158> 851 211<-15 -14 -14 824>
LayerCount: 2
Fore
SplineSet
274 1158 m 1xf4
 508 1467 l 1
 663 1467 l 1
 897 1158 l 1
 756 1158 l 1
 585 1330 l 1
 415 1158 l 1
 274 1158 l 1xf4
110 373 m 2xfa
 110 663 l 2
 110 868 278 1035 484 1035 c 2
 851 1035 l 2
 967 1035 1062 940 1062 824 c 2
 1062 -14 l 2
 1062 -220 894 -388 688 -388 c 2
 177 -388 l 1
 177 -182 l 1
 690 -182 l 2
 779 -182 851 -107 851 -15 c 2
 851 824 l 1
 484 824 l 2
 394 824 321 751 321 661 c 2
 321 375 l 2
 321 284 394 210 484 210 c 2
 731 210 l 1
 731 0 l 1
 484 0 l 2
 278 0 110 167 110 373 c 2xfa
EndSplineSet
Validated: 1
EndChar

StartChar: Gbreve
Encoding: 286 286 224
GlifName: G_breve
Width: 1421
GlyphClass: 2
Flags: MW
HStem: 0 210<427 877 544 877> 585 210<704 1090 704 1301> 1212 210<485 1217 544 1217> 1544 134<665 755 665 792>
VStem: 120 211<400 1022 1022 1023> 412 134<1797 1842 1797 1842> 874 134<1797 1842> 1090 211<399 400 400 585 585 585>
LayerCount: 2
Fore
SplineSet
412 1842 m 1
 546 1842 l 1
 546 1752 620 1678 710 1678 c 0
 800 1678 874 1752 874 1842 c 1
 1008 1842 l 1
 1008 1678 874 1544 710 1544 c 0
 546 1544 412 1678 412 1842 c 1
120 400 m 2
 120 1022 l 2
 120 1243 310 1422 544 1422 c 2
 1217 1422 l 1
 1217 1212 l 1
 544 1212 l 2
 426 1212 331 1127 331 1023 c 2
 331 399 l 2
 331 295 426 210 544 210 c 2
 877 210 l 2
 995 210 1090 295 1090 399 c 2
 1090 585 l 1
 704 585 l 1
 704 795 l 1
 1301 795 l 1
 1301 400 l 2
 1301 179 1111 0 877 0 c 2
 544 0 l 2
 310 0 120 179 120 400 c 2
EndSplineSet
Validated: 1
EndChar

StartChar: gbreve
Encoding: 287 287 225
GlifName: gbreve
Width: 1182
GlyphClass: 2
Flags: MW
HStem: -388 206<177 688 177 690> 0 210<381 731 484 731> 824 211<439 851 484 851> 1158 134<541 631 541 668>
VStem: 110 211<373 375 375 661> 288 134<1411 1456 1411 1456> 750 134<1411 1456> 851 211<-15 -14 -14 824>
LayerCount: 2
Fore
SplineSet
288 1456 m 1xf6
 422 1456 l 1
 422 1366 496 1292 586 1292 c 0
 676 1292 750 1366 750 1456 c 1
 884 1456 l 1
 884 1292 750 1158 586 1158 c 0
 422 1158 288 1292 288 1456 c 1xf6
110 373 m 2xf9
 110 663 l 2
 110 868 278 1035 484 1035 c 2
 851 1035 l 2
 967 1035 1062 940 1062 824 c 2
 1062 -14 l 2
 1062 -220 894 -388 688 -388 c 2
 177 -388 l 1
 177 -182 l 1
 690 -182 l 2
 779 -182 851 -107 851 -15 c 2
 851 824 l 1
 484 824 l 2
 394 824 321 751 321 661 c 2
 321 375 l 2
 321 284 394 210 484 210 c 2
 731 210 l 1
 731 0 l 1
 484 0 l 2
 278 0 110 167 110 373 c 2xf9
EndSplineSet
Validated: 1
EndChar

StartChar: Gdotaccent
Encoding: 288 288 226
GlifName: G_dotaccent
Width: 1421
GlyphClass: 2
Flags: MW
HStem: 0 210<427 877 544 877> 585 210<704 1090 704 1301> 1212 210<485 1217 544 1217> 1544 221<680.5 741.5>
VStem: 120 211<400 1022 1022 1023> 600 221<1623.5 1685> 1090 211<399 400 400 585 585 585>
CounterMasks: 1 0e
LayerCount: 2
Fore
SplineSet
600 1654 m 0
 600 1716 649 1765 711 1765 c 0
 772 1765 821 1716 821 1654 c 0
 821 1593 772 1544 711 1544 c 0
 650 1544 600 1593 600 1654 c 0
120 400 m 2
 120 1022 l 2
 120 1243 310 1422 544 1422 c 2
 1217 1422 l 1
 1217 1212 l 1
 544 1212 l 2
 426 1212 331 1127 331 1023 c 2
 331 399 l 2
 331 295 426 210 544 210 c 2
 877 210 l 2
 995 210 1090 295 1090 399 c 2
 1090 585 l 1
 704 585 l 1
 704 795 l 1
 1301 795 l 1
 1301 400 l 2
 1301 179 1111 0 877 0 c 2
 544 0 l 2
 310 0 120 179 120 400 c 2
EndSplineSet
Validated: 1
EndChar

StartChar: gdotaccent
Encoding: 289 289 227
GlifName: gdotaccent
Width: 1182
GlyphClass: 2
Flags: MW
HStem: -388 206<177 688 177 690> 0 210<381 731 484 731> 824 211<439 851 484 851> 1158 221<555.5 616.5>
VStem: 110 211<373 375 375 661> 475 221<1237.5 1299> 851 211<-15 -14 -14 824>
LayerCount: 2
Fore
SplineSet
475 1268 m 0
 475 1330 524 1379 586 1379 c 0
 647 1379 696 1330 696 1268 c 0
 696 1207 647 1158 586 1158 c 0
 525 1158 475 1207 475 1268 c 0
110 373 m 2
 110 663 l 2
 110 868 278 1035 484 1035 c 2
 851 1035 l 2
 967 1035 1062 940 1062 824 c 2
 1062 -14 l 2
 1062 -220 894 -388 688 -388 c 2
 177 -388 l 1
 177 -182 l 1
 690 -182 l 2
 779 -182 851 -107 851 -15 c 2
 851 824 l 1
 484 824 l 2
 394 824 321 751 321 661 c 2
 321 375 l 2
 321 284 394 210 484 210 c 2
 731 210 l 1
 731 0 l 1
 484 0 l 2
 278 0 110 167 110 373 c 2
EndSplineSet
Validated: 1
EndChar

StartChar: uni0122
Encoding: 290 290 228
GlifName: uni0122
Width: 1421
GlyphClass: 2
Flags: MW
HStem: -536 414<598 885 673 756> 0 210<427 877 544 877> 585 210<704 1090 704 1301> 1212 210<485 1217 544 1217>
VStem: 120 211<400 1022 1022 1023> 598 287 1090 211<399 400 400 585 585 585>
LayerCount: 2
Fore
SplineSet
598 -536 m 1
 673 -122 l 1
 885 -122 l 1
 756 -536 l 1
 598 -536 l 1
120 400 m 2
 120 1022 l 2
 120 1243 310 1422 544 1422 c 2
 1217 1422 l 1
 1217 1212 l 1
 544 1212 l 2
 426 1212 331 1127 331 1023 c 2
 331 399 l 2
 331 295 426 210 544 210 c 2
 877 210 l 2
 995 210 1090 295 1090 399 c 2
 1090 585 l 1
 704 585 l 1
 704 795 l 1
 1301 795 l 1
 1301 400 l 2
 1301 179 1111 0 877 0 c 2
 544 0 l 2
 310 0 120 179 120 400 c 2
EndSplineSet
Validated: 1
EndChar

StartChar: uni0123
Encoding: 291 291 229
GlifName: uni0123
Width: 1182
GlyphClass: 2
Flags: MW
HStem: -388 206<177 688 177 690> 0 210<381 731 484 731> 824 211<439 851 484 851> 1158 422<541 556>
VStem: 110 211<373 375 375 661> 358 312<1246 1527> 851 211<-15 -14 -14 824>
LayerCount: 2
Fore
SplineSet
358 1246 m 1
 556 1580 l 1
 670 1527 l 1
 541 1158 l 1
 358 1246 l 1
110 373 m 2
 110 663 l 2
 110 868 278 1035 484 1035 c 2
 851 1035 l 2
 967 1035 1062 940 1062 824 c 2
 1062 -14 l 2
 1062 -220 894 -388 688 -388 c 2
 177 -388 l 1
 177 -182 l 1
 690 -182 l 2
 779 -182 851 -107 851 -15 c 2
 851 824 l 1
 484 824 l 2
 394 824 321 751 321 661 c 2
 321 375 l 2
 321 284 394 210 484 210 c 2
 731 210 l 1
 731 0 l 1
 484 0 l 2
 278 0 110 167 110 373 c 2
EndSplineSet
Validated: 1
EndChar

StartChar: Hcircumflex
Encoding: 292 292 230
GlifName: H_circumflex
Width: 1438
GlyphClass: 2
Flags: MW
HStem: 0 21G<140 140 140 351 1088 1088 1088 1298> 635 210<351 1088 351 1088> 1402 20G<140 351 351 351 1088 1298 1298 1298> 1544 309<408 797 408 797 642 890 642 1031>
VStem: 140 211<0 635 845 1422> 408 623<1544 1544> 1088 210<0 635 635 635 845 1422 0 1422>
LayerCount: 2
Fore
SplineSet
408 1544 m 1
 642 1853 l 1
 797 1853 l 1
 1031 1544 l 1
 890 1544 l 1
 719 1716 l 1
 549 1544 l 1
 408 1544 l 1
140 0 m 1
 140 1422 l 1
 351 1422 l 1
 351 845 l 1
 1088 845 l 1
 1088 1422 l 1
 1298 1422 l 1
 1298 0 l 1
 1088 0 l 1
 1088 635 l 1
 351 635 l 1
 351 0 l 1
 140 0 l 1
EndSplineSet
Validated: 1
EndChar

StartChar: hcircumflex
Encoding: 293 293 231
GlifName: hcircumflex
Width: 1167
GlyphClass: 2
Flags: MW
HStem: 0 21G<120 120 120 331 836 836 836 1047> 825 211<331 657 331 657> 1402 20G<120 331 331 331> 1544 309<272 661 272 661 506 754 506 895>
VStem: 120 211<0 825 1036 1422> 272 623<1544 1544> 836 211<0 660 660 663 0 704>
LayerCount: 2
Fore
SplineSet
272 1544 m 1xf4
 506 1853 l 1
 661 1853 l 1
 895 1544 l 1
 754 1544 l 1
 583 1716 l 1
 413 1544 l 1
 272 1544 l 1xf4
120 0 m 1xfa
 120 1422 l 1
 331 1422 l 1
 331 1036 l 1
 657 1036 l 2
 872 1036 1047 869 1047 663 c 2
 1047 0 l 1
 836 0 l 1
 836 660 l 2
 836 748 753 825 657 825 c 2
 331 825 l 1
 331 0 l 1
 120 0 l 1xfa
EndSplineSet
Validated: 1
EndChar

StartChar: Hbar
Encoding: 294 294 232
GlifName: H_bar
Width: 1598
GlyphClass: 2
Flags: MW
HStem: 0 21G<220 431 220 220 1168 1378 1168 1168> 635 210<431 1168 431 1168> 1156 147<60 220 60 220 431 1168 1378 1538> 1402 20G<220 431 431 431 1168 1378 1378 1378>
VStem: 220 211<0 635 845 1156 1303 1422> 1168 210<0 635 635 635 845 1156 0 1156 1303 1422>
LayerCount: 2
Fore
SplineSet
431 1156 m 1
 431 845 l 1
 1168 845 l 1
 1168 1156 l 1
 431 1156 l 1
220 1156 m 1
 60 1156 l 1
 60 1303 l 1
 220 1303 l 1
 220 1422 l 1
 431 1422 l 1
 431 1303 l 1
 1168 1303 l 1
 1168 1422 l 1
 1378 1422 l 1
 1378 1303 l 1
 1538 1303 l 1
 1538 1156 l 1
 1378 1156 l 1
 1378 0 l 1
 1168 0 l 1
 1168 635 l 1
 431 635 l 1
 431 0 l 1
 220 0 l 1
 220 1156 l 1
EndSplineSet
Validated: 1
EndChar

StartChar: hbar
Encoding: 295 295 233
GlifName: hbar
Width: 1287
GlyphClass: 2
Flags: MW
HStem: 0 21G<220 431 220 220 936 1147 936 936> 825 211<431 757 431 757> 1156 147<60 220 60 220 431 591> 1402 20G<220 431 431 431>
VStem: 220 211<0 825 1036 1156 1303 1422> 936 211<0 660 660 663 0 704>
LayerCount: 2
Fore
SplineSet
60 1156 m 1
 60 1303 l 1
 220 1303 l 1
 220 1422 l 1
 431 1422 l 1
 431 1303 l 1
 591 1303 l 1
 591 1156 l 1
 431 1156 l 1
 431 1036 l 1
 757 1036 l 2
 972 1036 1147 869 1147 663 c 2
 1147 0 l 1
 936 0 l 1
 936 660 l 2
 936 748 853 825 757 825 c 2
 431 825 l 1
 431 0 l 1
 220 0 l 1
 220 1156 l 1
 60 1156 l 1
EndSplineSet
Validated: 1
EndChar

StartChar: Itilde
Encoding: 296 296 234
GlifName: I_tilde
Width: 491
GlyphClass: 2
Flags: MW
HStem: 0 21G<140 140 140 351> 1402 20G<140 351 351 351> 1544 154<366.5 387.5 356.5 435.5> 1625 148<100.5 125.5 54 131.5>
VStem: -84 155<1552 1577> 140 211<0 1422 0 1422> 417 157<1744 1768>
LayerCount: 2
Fore
SplineSet
-84 1552 m 1xde
 -83 1680 -2 1773 110 1773 c 0xde
 141 1773 173 1764 241 1736 c 0
 314 1706 341 1698 372 1698 c 0
 403 1698 417 1720 417 1768 c 1
 574 1768 l 1
 574 1644 489 1544 382 1544 c 0xee
 351 1544 319 1554 249 1584 c 0
 174 1616 147 1625 116 1625 c 0
 85 1625 71 1602 71 1552 c 1
 -84 1552 l 1xde
140 0 m 1
 140 1422 l 1
 351 1422 l 1
 351 0 l 1
 140 0 l 1
EndSplineSet
Validated: 1
EndChar

StartChar: itilde
Encoding: 297 297 235
GlifName: itilde
Width: 465
GlyphClass: 2
Flags: MW
HStem: 0 21G<127 127 127 338> 1016 20G<127 338 338 338> 1158 154<354.5 375.5 344.5 423.5> 1239 148<88.5 113.5 42 119.5>
VStem: -96 155<1166 1191> 127 211<0 1036 0 1036> 405 157<1358 1382>
LayerCount: 2
Fore
SplineSet
-96 1166 m 1xde
 -95 1294 -14 1387 98 1387 c 0xde
 129 1387 161 1378 229 1350 c 0
 302 1320 329 1312 360 1312 c 0
 391 1312 405 1334 405 1382 c 1
 562 1382 l 1
 562 1258 477 1158 370 1158 c 0xee
 339 1158 307 1168 237 1198 c 0
 162 1230 135 1239 104 1239 c 0
 73 1239 59 1216 59 1166 c 1
 -96 1166 l 1xde
127 0 m 1
 127 1036 l 1
 338 1036 l 1
 338 0 l 1
 127 0 l 1
EndSplineSet
Validated: 1
EndChar

StartChar: Imacron
Encoding: 298 298 236
GlifName: I_macron
Width: 491
GlyphClass: 2
Flags: MW
HStem: 0 21G<140 140 140 351> 1402 20G<140 351 351 351> 1544 147<-53 544 -53 544>
VStem: -53 597<1544 1691 1544 1691> 140 211<0 1422 0 1422>
LayerCount: 2
Fore
SplineSet
-53 1544 m 1xf0
 -53 1691 l 1
 544 1691 l 1
 544 1544 l 1
 -53 1544 l 1xf0
140 0 m 1xe8
 140 1422 l 1
 351 1422 l 1
 351 0 l 1
 140 0 l 1xe8
EndSplineSet
Validated: 1
EndChar

StartChar: imacron
Encoding: 299 299 237
GlifName: imacron
Width: 465
GlyphClass: 2
Flags: MW
HStem: 0 21G<127 127 127 338> 1016 20G<127 338 338 338> 1158 147<-66 531 -66 531>
VStem: -66 597<1158 1305 1158 1305> 127 211<0 1036 0 1036>
LayerCount: 2
Fore
SplineSet
-66 1158 m 1xf0
 -66 1305 l 1
 531 1305 l 1
 531 1158 l 1
 -66 1158 l 1xf0
127 0 m 1xe8
 127 1036 l 1
 338 1036 l 1
 338 0 l 1
 127 0 l 1xe8
EndSplineSet
Validated: 1
EndChar

StartChar: Ibreve
Encoding: 300 300 238
GlifName: I_breve
Width: 491
GlyphClass: 2
Flags: MW
HStem: 0 21G<140 140 140 351> 1402 20G<140 351 351 351> 1544 134<201 291 201 328>
VStem: -52 134<1797 1842 1797 1842> 140 211<0 1422 0 1422> 410 134<1797 1842>
LayerCount: 2
Fore
SplineSet
-52 1842 m 1
 82 1842 l 1
 82 1752 156 1678 246 1678 c 0
 336 1678 410 1752 410 1842 c 1
 544 1842 l 1
 544 1678 410 1544 246 1544 c 0
 82 1544 -52 1678 -52 1842 c 1
140 0 m 1
 140 1422 l 1
 351 1422 l 1
 351 0 l 1
 140 0 l 1
EndSplineSet
Validated: 1
EndChar

StartChar: ibreve
Encoding: 301 301 239
GlifName: ibreve
Width: 465
GlyphClass: 2
Flags: MW
HStem: 0 21G<127 127 127 338> 1016 20G<127 338 338 338> 1158 134<187 277 187 314>
VStem: -66 134<1411 1456 1411 1456> 127 211<0 1036 0 1036> 396 134<1411 1456>
LayerCount: 2
Fore
SplineSet
-66 1456 m 1
 68 1456 l 1
 68 1366 142 1292 232 1292 c 0
 322 1292 396 1366 396 1456 c 1
 530 1456 l 1
 530 1292 396 1158 232 1158 c 0
 68 1158 -66 1292 -66 1456 c 1
127 0 m 1
 127 1036 l 1
 338 1036 l 1
 338 0 l 1
 127 0 l 1
EndSplineSet
Validated: 1
EndChar

StartChar: Iogonek
Encoding: 302 302 240
GlifName: I_ogonek
Width: 491
GlyphClass: 2
Flags: MW
HStem: -303 150<230 330.5> 1402 20G<140 351 351 351>
VStem: 130 150<-217.5 -113> 140 211<0 1422 0 1422>
LayerCount: 2
Fore
SplineSet
130 -173 m 0xe0
 130 -129 143 -71 168 0 c 1
 140 0 l 1
 140 1422 l 1
 351 1422 l 1
 351 0 l 1xd0
 316 0 l 1
 285 -89 280 -104 280 -122 c 0
 280 -144 292 -153 322 -153 c 0
 339 -153 350 -152 432 -139 c 1
 432 -287 l 1
 344 -300 315 -303 282 -303 c 0
 178 -303 130 -262 130 -173 c 0xe0
EndSplineSet
Validated: 1
EndChar

StartChar: iogonek
Encoding: 303 303 241
GlifName: iogonek
Width: 452
GlyphClass: 2
Flags: MW
HStem: -303 150<210 310.5> 1016 20G<120 332 332 332> 1188 260<190 262>
VStem: 96 260<1282 1354> 110 151<-217.5 -112> 120 212<0 1036 0 1036>
LayerCount: 2
Fore
SplineSet
96 1318 m 0xf0
 96 1390 154 1448 226 1448 c 0
 298 1448 356 1390 356 1318 c 0
 356 1246 298 1188 226 1188 c 0
 154 1188 96 1246 96 1318 c 0xf0
110 -173 m 0xe8
 110 -126 123 -68 148 0 c 1
 120 0 l 1
 120 1036 l 1
 332 1036 l 1
 332 0 l 1xe4
 296 0 l 1
 268 -78 261 -102 261 -122 c 0
 261 -144 272 -153 302 -153 c 0
 319 -153 330 -152 412 -139 c 1
 412 -287 l 1
 324 -300 295 -303 262 -303 c 0
 158 -303 110 -262 110 -173 c 0xe8
EndSplineSet
Validated: 1
EndChar

StartChar: Idotaccent
Encoding: 304 304 242
GlifName: I_dotaccent
Width: 451
GlyphClass: 2
Flags: MW
HStem: 0 21G<120 120 120 331> 1402 20G<120 331 331 331> 1528 221<201.5 262.5>
VStem: 120 211<0 1422 0 1422>
LayerCount: 2
Fore
SplineSet
120 0 m 1
 120 1422 l 1
 331 1422 l 1
 331 0 l 1
 120 0 l 1
121 1638 m 0
 121 1699 171 1749 232 1749 c 0
 293 1749 342 1699 342 1638 c 0
 342 1577 293 1528 232 1528 c 0
 171 1528 121 1577 121 1638 c 0
EndSplineSet
Validated: 1
EndChar

StartChar: dotlessi
Encoding: 305 305 243
GlifName: dotlessi
Width: 465
GlyphClass: 2
Flags: MW
HStem: 0 21G<127 127 127 338> 1016 20G<127 338 338 338>
VStem: 127 211<0 1036 0 1036>
LayerCount: 2
Fore
SplineSet
127 0 m 1
 127 1036 l 1
 338 1036 l 1
 338 0 l 1
 127 0 l 1
EndSplineSet
Validated: 1
EndChar

StartChar: IJ
Encoding: 306 306 244
GlifName: I_J_
Width: 1326
GlyphClass: 2
Flags: MW
HStem: 0 21G<140 140 140 351 531 531 531 785> 1402 20G<140 351 351 351 976 1186 1186 1186>
VStem: 140 211<0 1422 0 1422> 976 210<398 1422>
LayerCount: 2
Fore
SplineSet
531 0 m 1
 531 210 l 1
 785 210 l 2xf0
 890 210 976 294 976 398 c 2
 976 1422 l 1
 1186 1422 l 1
 1186 395 l 2
 1186 177 1006 0 785 0 c 2
 531 0 l 1
140 0 m 1
 140 1422 l 1
 351 1422 l 1
 351 0 l 1
 140 0 l 1
EndSplineSet
Validated: 1
EndChar

StartChar: ij
Encoding: 307 307 245
GlifName: ij
Width: 929
GlyphClass: 2
Flags: MW
HStem: -391 211<442 515.5 442 583.5> 0 21G<120 120 120 332> 1016 20G<120 332 332 332 601 812 812 812> 1188 260<190 262 668 739.5>
VStem: 96 260<1282 1354> 120 212<0 1036 0 1036> 573 260<1281.5 1353> 601 211<-60 1036>
LayerCount: 2
Fore
SplineSet
442 -180 m 1xf9
 589 -180 601 -171 601 -60 c 2
 601 1036 l 1
 812 1036 l 1
 812 -60 l 2
 812 -313 725 -391 442 -391 c 1
 442 -180 l 1xf9
573 1317 m 0xfa
 573 1389 632 1448 704 1448 c 0
 775 1448 833 1390 833 1317 c 0
 833 1245 776 1188 704 1188 c 0
 631 1188 573 1246 573 1317 c 0xfa
96 1318 m 0
 96 1390 154 1448 226 1448 c 0
 298 1448 356 1390 356 1318 c 0
 356 1246 298 1188 226 1188 c 0
 154 1188 96 1246 96 1318 c 0
120 0 m 1xf6
 120 1036 l 1
 332 1036 l 1
 332 0 l 1
 120 0 l 1xf6
EndSplineSet
Validated: 1
EndChar

StartChar: Jcircumflex
Encoding: 308 308 246
GlifName: J_circumflex
Width: 835
GlyphClass: 2
Flags: MW
HStem: 0 210<40 294 40 294> 1402 20G<485 695 695 695> 1544 309<278 667 278 667 512 760 512 901>
VStem: 278 623<1544 1544> 485 210<398 1422>
LayerCount: 2
Fore
SplineSet
278 1544 m 1xf0
 512 1853 l 1
 667 1853 l 1
 901 1544 l 1
 760 1544 l 1
 589 1716 l 1
 419 1544 l 1
 278 1544 l 1xf0
40 0 m 1
 40 210 l 1
 294 210 l 2
 399 210 485 294 485 398 c 2
 485 1422 l 1
 695 1422 l 1
 695 395 l 2xe8
 695 177 515 0 294 0 c 2
 40 0 l 1
EndSplineSet
Validated: 1
EndChar

StartChar: jcircumflex
Encoding: 309 309 247
GlifName: jcircumflex
Width: 535
GlyphClass: 2
Flags: MW
HStem: -391 211<40 113.5 40 181.5> 1016 20G<199 410 410 410> 1158 309<-8 381 -8 381 226 474 226 615>
VStem: -8 623<1158 1158> 199 211<-60 1036>
LayerCount: 2
Fore
SplineSet
-8 1158 m 1xf0
 226 1467 l 1
 381 1467 l 1
 615 1158 l 1
 474 1158 l 1
 303 1330 l 1
 133 1158 l 1
 -8 1158 l 1xf0
40 -180 m 1
 187 -180 199 -171 199 -60 c 2
 199 1036 l 1
 410 1036 l 1
 410 -60 l 2xe8
 410 -313 323 -391 40 -391 c 1
 40 -180 l 1
EndSplineSet
Validated: 1
EndChar

StartChar: uni0136
Encoding: 310 310 248
GlifName: uni0136
Width: 1394
GlyphClass: 2
Flags: MW
HStem: -536 414<604 891 679 762> 0 21G<140 140 140 351 1059 1059 1059 1354> 1402 20G<140 351 351 351 1020 1311 1311 1311>
VStem: 140 211<0 635 846 1422> 604 287
LayerCount: 2
Fore
SplineSet
604 -536 m 1
 679 -122 l 1
 891 -122 l 1
 762 -536 l 1
 604 -536 l 1
140 0 m 1
 140 1422 l 1
 351 1422 l 1
 351 846 l 1
 456 846 l 1
 1020 1422 l 1
 1311 1422 l 1
 623 719 l 1
 1354 0 l 1
 1059 0 l 1
 413 635 l 1
 351 635 l 1
 351 0 l 1
 140 0 l 1
EndSplineSet
Validated: 1
EndChar

StartChar: uni0137
Encoding: 311 311 249
GlifName: uni0137
Width: 1123
GlyphClass: 2
Flags: MW
HStem: -536 414<463 750 538 621> 0 21G<120 120 120 331 798 798 798 1093> 1016 20G<777 1051 1051 1051> 1402 20G<120 331 331 331>
VStem: 120 211<0 428 639 1422> 463 287
LayerCount: 2
Fore
SplineSet
463 -536 m 1
 538 -122 l 1
 750 -122 l 1
 621 -536 l 1
 463 -536 l 1
120 0 m 1
 120 1422 l 1
 331 1422 l 1
 331 639 l 1
 402 639 l 1
 777 1036 l 1
 1051 1036 l 1
 578 534 l 1
 1093 0 l 1
 798 0 l 1
 383 428 l 1
 331 428 l 1
 331 0 l 1
 120 0 l 1
EndSplineSet
Validated: 1
EndChar

StartChar: kgreenlandic
Encoding: 312 312 250
GlifName: kgreenlandic
Width: 1123
GlyphClass: 2
Flags: MW
HStem: 0 21G<120 120 120 331 798 798 798 1093> 1016 20G<777 1051 1051 1051>
VStem: 120 211<0 428 639 1038>
LayerCount: 2
Fore
SplineSet
120 0 m 1
 120 1038 l 1
 331 1038 l 1
 331 639 l 1
 402 639 l 1
 777 1036 l 1
 1051 1036 l 1
 578 534 l 1
 1093 0 l 1
 798 0 l 1
 383 428 l 1
 331 428 l 1
 331 0 l 1
 120 0 l 1
EndSplineSet
Validated: 1
EndChar

StartChar: Lacute
Encoding: 313 313 251
GlifName: L_acute
Width: 1282
GlyphClass: 2
Flags: MW
HStem: 0 210<427.5 1242 537 1242> 1402 20G<140 350 350 350> 1544 422<245 260>
VStem: 131 312<1597 1878> 140 210<398 1422>
LayerCount: 2
Fore
SplineSet
131 1597 m 1xf0
 260 1966 l 1
 443 1878 l 1
 245 1544 l 1
 131 1597 l 1xf0
140 398 m 2xe8
 140 1422 l 1
 350 1422 l 1
 350 398 l 2
 350 294 434 210 537 210 c 2
 1242 210 l 1
 1242 0 l 1
 537 0 l 2
 318 0 140 178 140 398 c 2xe8
EndSplineSet
Validated: 1
EndChar

StartChar: lacute
Encoding: 314 314 252
GlifName: lacute
Width: 451
GlyphClass: 2
Flags: MW
HStem: 0 21G<120 120 120 331> 1402 20G<120 331 331 331> 1544 422<225 240>
VStem: 111 312<1597 1878> 120 211<0 1422 0 1422>
LayerCount: 2
Fore
SplineSet
111 1597 m 1xf0
 240 1966 l 1
 423 1878 l 1
 225 1544 l 1
 111 1597 l 1xf0
120 0 m 1xe8
 120 1422 l 1
 331 1422 l 1
 331 0 l 1
 120 0 l 1xe8
EndSplineSet
Validated: 1
EndChar

StartChar: uni013B
Encoding: 315 315 253
GlifName: uni013B_
Width: 1282
GlyphClass: 2
Flags: MW
HStem: -536 414<578 865 653 736> 0 210<427.5 1242 537 1242> 1402 20G<140 350 350 350>
VStem: 140 210<398 1422> 578 287
LayerCount: 2
Fore
SplineSet
578 -536 m 1
 653 -122 l 1
 865 -122 l 1
 736 -536 l 1
 578 -536 l 1
140 398 m 2
 140 1422 l 1
 350 1422 l 1
 350 398 l 2
 350 294 434 210 537 210 c 2
 1242 210 l 1
 1242 0 l 1
 537 0 l 2
 318 0 140 178 140 398 c 2
EndSplineSet
Validated: 1
EndChar

StartChar: uni013C
Encoding: 316 316 254
GlifName: uni013C_
Width: 451
GlyphClass: 2
Flags: MW
HStem: -536 414<82 369 157 240> 0 21G<120 120 120 331> 1402 20G<120 331 331 331>
VStem: 82 287 120 211<0 1422 0 1422>
LayerCount: 2
Fore
SplineSet
82 -536 m 1xf0
 157 -122 l 1
 369 -122 l 1
 240 -536 l 1
 82 -536 l 1xf0
120 0 m 1xe8
 120 1422 l 1
 331 1422 l 1
 331 0 l 1
 120 0 l 1xe8
EndSplineSet
Validated: 1
EndChar

StartChar: Lcaron
Encoding: 317 317 255
GlifName: L_caron
Width: 1705
GlyphClass: 2
Flags: MW
HStem: 0 210<427.5 1242 537 1242> 1000 422 1402 20G<140 350 350 350 1482 1482>
VStem: 140 210<398 1422> 1353 312<1053 1334>
LayerCount: 2
Fore
SplineSet
1353 1053 m 1
 1482 1422 l 1
 1665 1334 l 1
 1467 1000 l 1
 1353 1053 l 1
140 398 m 2
 140 1422 l 1
 350 1422 l 1
 350 398 l 2
 350 294 434 210 537 210 c 2
 1242 210 l 1
 1242 0 l 1
 537 0 l 2
 318 0 140 178 140 398 c 2
EndSplineSet
Validated: 1
EndChar

StartChar: lcaron
Encoding: 318 318 256
GlifName: lcaron
Width: 846
GlyphClass: 2
Flags: MW
HStem: 0 21G<120 120 120 331> 1000 422<120 556> 1402 20G<120 331 331 331 571 571>
VStem: 120 211<0 1422 0 1422> 442 312<1053 1334>
LayerCount: 2
Fore
SplineSet
442 1053 m 1
 571 1422 l 1
 754 1334 l 1
 556 1000 l 1
 442 1053 l 1
120 0 m 1
 120 1422 l 1
 331 1422 l 1
 331 0 l 1
 120 0 l 1
EndSplineSet
Validated: 1
EndChar

StartChar: Ldot
Encoding: 319 319 257
GlifName: L_dot
Width: 1282
GlyphClass: 3
Flags: MW
HStem: 0 210<427.5 1242 537 1242> 601 221<659.5 721> 1402 20G<140 350 350 350>
VStem: 140 210<398 1422> 580 221<681.5 742.5>
LayerCount: 2
Fore
SplineSet
580 712 m 0
 580 773 629 822 690 822 c 0
 752 822 801 773 801 712 c 0
 801 650 752 601 690 601 c 0
 629 601 580 651 580 712 c 0
140 398 m 2
 140 1422 l 1
 350 1422 l 1
 350 398 l 2
 350 294 434 210 537 210 c 2
 1242 210 l 1
 1242 0 l 1
 537 0 l 2
 318 0 140 178 140 398 c 2
EndSplineSet
Validated: 1
EndChar

StartChar: ldot
Encoding: 320 320 258
GlifName: ldot
Width: 892
GlyphClass: 3
Flags: MW
HStem: 0 21G<120 120 120 331> 775 221<650.5 712> 1402 20G<120 331 331 331>
VStem: 120 211<0 1422 0 1422> 571 221<855.5 916.5>
LayerCount: 2
Fore
SplineSet
571 886 m 0
 571 947 620 996 681 996 c 0
 743 996 792 947 792 886 c 0
 792 824 743 775 681 775 c 0
 620 775 571 825 571 886 c 0
120 0 m 1
 120 1422 l 1
 331 1422 l 1
 331 0 l 1
 120 0 l 1
EndSplineSet
Validated: 1
EndChar

StartChar: Lslash
Encoding: 321 321 259
GlifName: L_slash
Width: 1413
GlyphClass: 2
Flags: MW
HStem: 0 210<538.5 1353 648 1353> 1402 20G<251 461 461 461>
VStem: 251 210<398 566 566 566 857 1422>
LayerCount: 2
Fore
SplineSet
60 626 m 1
 251 736 l 1
 251 1422 l 1
 461 1422 l 1
 461 857 l 1
 577 924 l 1
 651 797 l 1
 461 687 l 1
 461 398 l 2
 461 294 545 210 648 210 c 2
 1353 210 l 1
 1353 0 l 1
 648 0 l 2
 429 0 251 178 251 398 c 2
 251 566 l 1
 134 499 l 1
 60 626 l 1
EndSplineSet
Validated: 1
EndChar

StartChar: lslash
Encoding: 322 322 260
GlifName: lslash
Width: 570
GlyphClass: 2
Flags: MW
HStem: 0 21G<254 465 254 254> 1402 20G<254 465 465 465>
VStem: 254 211<0 565 565 565 857 1422>
LayerCount: 2
Fore
SplineSet
64 626 m 1
 254 735 l 1
 254 1422 l 1
 465 1422 l 1
 465 857 l 1
 581 924 l 1
 655 797 l 1
 465 687 l 1
 465 0 l 1
 254 0 l 1
 254 565 l 1
 138 499 l 1
 64 626 l 1
EndSplineSet
Validated: 1
EndChar

StartChar: Nacute
Encoding: 323 323 261
GlifName: N_acute
Width: 1384
GlyphClass: 2
Flags: MW
HStem: 0 21G<140 140 140 351 970 970 970 1244> 1402 20G<140 414 414 414 1033 1244 1244 1244> 1544 422<620 635>
VStem: 140 211<0 1102 0 1422> 506 312<1597 1878> 1033 211<305 1422 0 1422>
LayerCount: 2
Fore
SplineSet
506 1597 m 1
 635 1966 l 1
 818 1878 l 1
 620 1544 l 1
 506 1597 l 1
140 0 m 1
 140 1422 l 1
 414 1422 l 1
 1033 305 l 1
 1033 1422 l 1
 1244 1422 l 1
 1244 0 l 1
 970 0 l 1
 351 1102 l 1
 351 0 l 1
 140 0 l 1
EndSplineSet
Validated: 1
EndChar

StartChar: nacute
Encoding: 324 324 262
GlifName: nacute
Width: 1192
GlyphClass: 2
Flags: MW
HStem: 0 21G<120 120 120 331 861 861 861 1072> 827 209<333 698 333 698 331 698> 1158 422<524 539>
VStem: 120 211<0 826 826 827 0 884> 410 312<1211 1492> 861 211<0 659 659 662 0 705.5>
LayerCount: 2
Fore
SplineSet
410 1211 m 1
 539 1580 l 1
 722 1492 l 1
 524 1158 l 1
 410 1211 l 1
120 0 m 1
 120 826 l 2
 120 942 215 1036 333 1036 c 2
 698 1036 l 2
 904 1036 1072 868 1072 662 c 2
 1072 0 l 1
 861 0 l 1
 861 659 l 2
 861 752 788 827 698 827 c 2
 331 827 l 1
 331 0 l 1
 120 0 l 1
EndSplineSet
Validated: 1
EndChar

StartChar: uni0145
Encoding: 325 325 263
GlifName: uni0145
Width: 1384
GlyphClass: 2
Flags: MW
HStem: -536 414<580 867 655 738> 0 21G<140 140 140 351 970 970 970 1244> 1402 20G<140 414 414 414 1033 1244 1244 1244>
VStem: 140 211<0 1102 0 1422> 580 287 1033 211<305 1422 0 1422>
LayerCount: 2
Fore
SplineSet
580 -536 m 1
 655 -122 l 1
 867 -122 l 1
 738 -536 l 1
 580 -536 l 1
140 0 m 1
 140 1422 l 1
 414 1422 l 1
 1033 305 l 1
 1033 1422 l 1
 1244 1422 l 1
 1244 0 l 1
 970 0 l 1
 351 1102 l 1
 351 0 l 1
 140 0 l 1
EndSplineSet
Validated: 1
EndChar

StartChar: uni0146
Encoding: 326 326 264
GlifName: uni0146
Width: 1192
GlyphClass: 2
Flags: MW
HStem: -536 414<484 771 559 642> 0 21G<120 120 120 331 861 861 861 1072> 827 209<333 698 333 698 331 698>
VStem: 120 211<0 826 826 827 0 884> 484 287 861 211<0 659 659 662 0 705.5>
LayerCount: 2
Fore
SplineSet
484 -536 m 1
 559 -122 l 1
 771 -122 l 1
 642 -536 l 1
 484 -536 l 1
120 0 m 1
 120 826 l 2
 120 942 215 1036 333 1036 c 2
 698 1036 l 2
 904 1036 1072 868 1072 662 c 2
 1072 0 l 1
 861 0 l 1
 861 659 l 2
 861 752 788 827 698 827 c 2
 331 827 l 1
 331 0 l 1
 120 0 l 1
EndSplineSet
Validated: 1
EndChar

StartChar: Ncaron
Encoding: 327 327 265
GlifName: N_caron
Width: 1384
GlyphClass: 2
Flags: MW
HStem: 0 21G<140 140 140 351 970 970 970 1244> 1402 20G<140 414 414 414 1033 1244 1244 1244> 1544 309<380 769 380 614>
VStem: 140 211<0 1102 0 1422> 380 623<1853 1853> 1033 211<305 1422 0 1422>
LayerCount: 2
Fore
SplineSet
380 1853 m 1
 521 1853 l 1
 691 1681 l 1
 862 1853 l 1
 1003 1853 l 1
 769 1544 l 1
 614 1544 l 1
 380 1853 l 1
140 0 m 1
 140 1422 l 1
 414 1422 l 1
 1033 305 l 1
 1033 1422 l 1
 1244 1422 l 1
 1244 0 l 1
 970 0 l 1
 351 1102 l 1
 351 0 l 1
 140 0 l 1
EndSplineSet
Validated: 1
EndChar

StartChar: ncaron
Encoding: 328 328 266
GlifName: ncaron
Width: 1192
GlyphClass: 2
Flags: MW
HStem: 0 21G<120 120 120 331 861 861 861 1072> 827 209<333 698 333 698 331 698> 1158 309<284 673 284 518>
VStem: 120 211<0 826 826 827 0 884> 284 623<1467 1467> 861 211<0 659 659 662 0 705.5>
LayerCount: 2
Fore
SplineSet
284 1467 m 1xe8
 425 1467 l 1
 595 1295 l 1
 766 1467 l 1
 907 1467 l 1
 673 1158 l 1
 518 1158 l 1
 284 1467 l 1xe8
120 0 m 1xf4
 120 826 l 2
 120 942 215 1036 333 1036 c 2
 698 1036 l 2
 904 1036 1072 868 1072 662 c 2
 1072 0 l 1
 861 0 l 1
 861 659 l 2
 861 752 788 827 698 827 c 2
 331 827 l 1
 331 0 l 1
 120 0 l 1xf4
EndSplineSet
Validated: 1
EndChar

StartChar: napostrophe
Encoding: 329 329 267
GlifName: napostrophe
Width: 1402
GlyphClass: 2
Flags: MW
HStem: 0 21G<330 330 330 541 1071 1071 1071 1282> 827 209<543 908 543 908 541 908>
VStem: 330 211<0 826 826 827 0 884> 1071 211<0 659 659 662 0 705.5>
LayerCount: 2
Fore
SplineSet
100 1211 m 1
 229 1580 l 1
 412 1492 l 1
 214 1158 l 1
 100 1211 l 1
330 0 m 1
 330 826 l 2
 330 942 425 1036 543 1036 c 2
 908 1036 l 2
 1114 1036 1282 868 1282 662 c 2
 1282 0 l 1
 1071 0 l 1
 1071 659 l 2
 1071 752 998 827 908 827 c 2
 541 827 l 1
 541 0 l 1
 330 0 l 1
EndSplineSet
Validated: 1
EndChar

StartChar: Eng
Encoding: 330 330 268
GlifName: E_ng
Width: 1384
GlyphClass: 2
Flags: MW
HStem: -391 211<874 947.5 874 1015.5> 0 21G<140 140 140 351 970 970 970 1033> 1402 20G<140 414 414 414 1033 1244 1244 1244>
VStem: 140 211<0 1102 0 1422> 1033 211<-60 0 0 0 305 1422>
LayerCount: 2
Fore
SplineSet
140 0 m 1
 140 1422 l 1
 414 1422 l 1
 1033 305 l 1
 1033 1422 l 1
 1244 1422 l 1
 1244 -60 l 2
 1244 -313 1157 -391 874 -391 c 1
 874 -180 l 1
 1021 -180 1033 -171 1033 -60 c 2
 1033 0 l 1
 970 0 l 1
 351 1102 l 1
 351 0 l 1
 140 0 l 1
EndSplineSet
Validated: 1
EndChar

StartChar: eng
Encoding: 331 331 269
GlifName: eng
Width: 1192
GlyphClass: 2
Flags: MW
HStem: -391 211<702 775.5 702 843.5> 0 21G<120 120 120 331> 827 209<333 698 333 698 331 698>
VStem: 120 211<0 826 826 827 0 884> 861 211<-60 659 659 662>
LayerCount: 2
Fore
SplineSet
120 0 m 1
 120 826 l 2
 120 942 215 1036 333 1036 c 2
 698 1036 l 2
 904 1036 1072 868 1072 662 c 2
 1072 -60 l 2
 1072 -313 985 -391 702 -391 c 1
 702 -180 l 1
 849 -180 861 -171 861 -60 c 2
 861 659 l 2
 861 752 788 827 698 827 c 2
 331 827 l 1
 331 0 l 1
 120 0 l 1
EndSplineSet
Validated: 1
EndChar

StartChar: Omacron
Encoding: 332 332 270
GlifName: O_macron
Width: 1461
GlyphClass: 2
Flags: MW
HStem: 0 210<447 897 564 897> 1212 210<505 897 564 897> 1544 147<412 1009 412 1009>
VStem: 140 211<400 1022 1022 1023> 412 597<1544 1691 1544 1691> 1110 211<399 400 400 1022>
LayerCount: 2
Fore
SplineSet
351 1023 m 2
 351 399 l 2
 351 295 446 210 564 210 c 2
 897 210 l 2
 1015 210 1110 295 1110 399 c 2
 1110 1023 l 2
 1110 1127 1015 1212 897 1212 c 2
 564 1212 l 2
 446 1212 351 1127 351 1023 c 2
140 400 m 2
 140 1022 l 2
 140 1243 330 1422 564 1422 c 2
 897 1422 l 2
 1131 1422 1321 1243 1321 1022 c 2
 1321 400 l 2
 1321 179 1131 0 897 0 c 2
 564 0 l 2
 330 0 140 179 140 400 c 2
1009 1544 m 1
 412 1544 l 1
 412 1691 l 1
 1009 1691 l 1
 1009 1544 l 1
EndSplineSet
Validated: 1
EndChar

StartChar: omacron
Encoding: 333 333 271
GlifName: omacron
Width: 1194
GlyphClass: 2
Flags: MW
HStem: 0 211<381 710 484 710> 825 211<439 710 484 710> 1158 147<298 895 298 895>
VStem: 110 211<374 376 376 660> 298 597<1158 1305 1158 1305> 873 211<376 660 660 662>
LayerCount: 2
Fore
SplineSet
321 660 m 2xf4
 321 376 l 2
 321 285 394 211 484 211 c 2
 710 211 l 2
 800 211 873 285 873 376 c 2
 873 660 l 2
 873 751 800 825 710 825 c 2
 484 825 l 2
 394 825 321 751 321 660 c 2xf4
110 374 m 2
 110 662 l 2
 110 868 278 1036 484 1036 c 2
 710 1036 l 2
 916 1036 1084 868 1084 662 c 2
 1084 374 l 2
 1084 168 916 0 710 0 c 2
 484 0 l 2
 278 0 110 168 110 374 c 2
895 1158 m 1xe8
 298 1158 l 1
 298 1305 l 1
 895 1305 l 1
 895 1158 l 1xe8
EndSplineSet
Validated: 1
EndChar

StartChar: Obreve
Encoding: 334 334 272
GlifName: O_breve
Width: 1461
GlyphClass: 2
Flags: MW
HStem: 0 210<447 897 564 897> 1212 210<505 897 564 897> 1544 134<665 755 665 792>
VStem: 140 211<400 1022 1022 1023> 412 134<1797 1842 1797 1842> 874 134<1797 1842> 1110 211<399 400 400 1022>
LayerCount: 2
Fore
SplineSet
351 1023 m 2
 351 399 l 2
 351 295 446 210 564 210 c 2
 897 210 l 2
 1015 210 1110 295 1110 399 c 2
 1110 1023 l 2
 1110 1127 1015 1212 897 1212 c 2
 564 1212 l 2
 446 1212 351 1127 351 1023 c 2
140 400 m 2
 140 1022 l 2
 140 1243 330 1422 564 1422 c 2
 897 1422 l 2
 1131 1422 1321 1243 1321 1022 c 2
 1321 400 l 2
 1321 179 1131 0 897 0 c 2
 564 0 l 2
 330 0 140 179 140 400 c 2
412 1842 m 1
 546 1842 l 1
 546 1752 620 1678 710 1678 c 0
 800 1678 874 1752 874 1842 c 1
 1008 1842 l 1
 1008 1678 874 1544 710 1544 c 0
 546 1544 412 1678 412 1842 c 1
EndSplineSet
Validated: 1
EndChar

StartChar: obreve
Encoding: 335 335 273
GlifName: obreve
Width: 1194
GlyphClass: 2
Flags: MW
HStem: 0 211<381 710 484 710> 825 211<439 710 484 710> 1158 134<552 642 552 679>
VStem: 110 211<374 376 376 660> 299 134<1411 1456 1411 1456> 761 134<1411 1456> 873 211<376 660 660 662>
LayerCount: 2
Fore
SplineSet
321 660 m 2xf2
 321 376 l 2
 321 285 394 211 484 211 c 2
 710 211 l 2
 800 211 873 285 873 376 c 2
 873 660 l 2
 873 751 800 825 710 825 c 2
 484 825 l 2
 394 825 321 751 321 660 c 2xf2
110 374 m 2
 110 662 l 2
 110 868 278 1036 484 1036 c 2
 710 1036 l 2
 916 1036 1084 868 1084 662 c 2
 1084 374 l 2
 1084 168 916 0 710 0 c 2
 484 0 l 2
 278 0 110 168 110 374 c 2
299 1456 m 1xec
 433 1456 l 1
 433 1366 507 1292 597 1292 c 0
 687 1292 761 1366 761 1456 c 1
 895 1456 l 1
 895 1292 761 1158 597 1158 c 0
 433 1158 299 1292 299 1456 c 1xec
EndSplineSet
Validated: 1
EndChar

StartChar: Ohungarumlaut
Encoding: 336 336 274
GlifName: O_hungarumlaut
Width: 1461
GlyphClass: 2
Flags: MW
HStem: 0 210<447 897 564 897> 1212 210<505 897 564 897> 1544 271<689 695 549 866 846 846 846 866 986 992>
VStem: 140 211<400 1022 1022 1023> 549 614<1544 1815> 1110 211<399 400 400 1022>
LayerCount: 2
Fore
SplineSet
351 1023 m 2xf4
 351 399 l 2
 351 295 446 210 564 210 c 2
 897 210 l 2
 1015 210 1110 295 1110 399 c 2
 1110 1023 l 2
 1110 1127 1015 1212 897 1212 c 2
 564 1212 l 2
 446 1212 351 1127 351 1023 c 2xf4
140 400 m 2
 140 1022 l 2
 140 1243 330 1422 564 1422 c 2
 897 1422 l 2
 1131 1422 1321 1243 1321 1022 c 2
 1321 400 l 2
 1321 179 1131 0 897 0 c 2
 564 0 l 2
 330 0 140 179 140 400 c 2
695 1544 m 1
 549 1544 l 1xf8
 689 1815 l 1
 866 1815 l 1
 695 1544 l 1
992 1544 m 1
 846 1544 l 1
 986 1815 l 1
 1163 1815 l 1
 992 1544 l 1
EndSplineSet
Validated: 1
EndChar

StartChar: ohungarumlaut
Encoding: 337 337 275
GlifName: ohungarumlaut
Width: 1194
GlyphClass: 2
Flags: MW
HStem: 0 211<381 710 484 710> 825 211<439 710 484 710> 1158 271<576 582 436 753 733 733 733 753 873 879>
VStem: 110 211<374 376 376 660> 436 614<1158 1429> 873 211<376 660 660 662>
LayerCount: 2
Fore
SplineSet
321 660 m 2xf4
 321 376 l 2
 321 285 394 211 484 211 c 2
 710 211 l 2
 800 211 873 285 873 376 c 2
 873 660 l 2
 873 751 800 825 710 825 c 2
 484 825 l 2
 394 825 321 751 321 660 c 2xf4
110 374 m 2
 110 662 l 2
 110 868 278 1036 484 1036 c 2
 710 1036 l 2
 916 1036 1084 868 1084 662 c 2
 1084 374 l 2
 1084 168 916 0 710 0 c 2
 484 0 l 2
 278 0 110 168 110 374 c 2
582 1158 m 1
 436 1158 l 1xf8
 576 1429 l 1
 753 1429 l 1
 582 1158 l 1
879 1158 m 1
 733 1158 l 1
 873 1429 l 1xf4
 1050 1429 l 1
 879 1158 l 1
EndSplineSet
Validated: 1
EndChar

StartChar: OE
Encoding: 338 338 276
GlifName: O_E_
Width: 2333
GlyphClass: 3
Flags: MW
HStem: 0 211<1321 2213 1321 2213> 635 210<1441 2213 1441 2213> 1212 210<505 897 564 897 1321 1321 1321 2213>
VStem: 140 211<400 1022 1022 1023> 1110 211<0 1212 54 1212 399 1023 1023 1075 211 1422 211 1422>
LayerCount: 2
Fore
SplineSet
351 1023 m 2
 351 399 l 2
 351 295 446 210 564 210 c 2
 897 210 l 2
 1015 210 1110 295 1110 399 c 2
 1110 1023 l 2
 1110 1127 1015 1212 897 1212 c 2
 564 1212 l 2
 446 1212 351 1127 351 1023 c 2
140 400 m 2
 140 1022 l 2
 140 1243 330 1422 564 1422 c 2
 897 1422 l 2
 973 1422 1044 1404 1110 1368 c 1
 1110 1422 l 1
 2213 1422 l 1
 2213 1212 l 1
 1321 1212 l 1
 1321 211 l 1
 2213 211 l 1
 2213 0 l 1
 1110 0 l 1
 1110 54 l 1
 1044 18 973 0 897 0 c 2
 564 0 l 2
 330 0 140 179 140 400 c 2
2213 635 m 1
 1441 635 l 1
 1441 845 l 1
 2213 845 l 1
 2213 635 l 1
EndSplineSet
Validated: 1
EndChar

StartChar: oe
Encoding: 339 339 277
GlifName: oe
Width: 1937
GlyphClass: 3
Flags: MW
HStem: 0 211<402.5 681 516 681 516 681 1165 1754> 408 210<1206 1528 1206 1530> 825 211<1096 1528 1528 1530>
VStem: 110 211<374 663> 875 211<372 662 662 707.5> 1617 210<707 735 624 760>
LayerCount: 2
Fore
SplineSet
321 663 m 2
 321 373 l 2
 321 284 408 211 516 211 c 2
 681 211 l 2
 788 211 875 283 875 372 c 2
 875 662 l 2
 875 753 787 826 679 826 c 2
 514 826 l 2
 407 826 321 753 321 663 c 2
110 374 m 2
 110 664 l 2
 110 869 291 1036 514 1036 c 2
 681 1036 l 2
 770 1036 855 1009 926 959 c 1
 968 1008 1030 1036 1096 1036 c 2
 1528 1036 l 2
 1693 1036 1827 901 1827 735 c 2
 1827 706 l 2
 1827 542 1693 408 1528 408 c 2
 1206 408 l 1
 1206 618 l 1
 1530 618 l 2
 1578 618 1617 658 1617 707 c 2
 1617 735 l 2
 1617 785 1578 825 1530 825 c 2
 1086 825 l 1
 1086 293 l 2
 1086 248 1121 211 1165 211 c 2
 1754 211 l 1
 1754 0 l 1
 1165 0 l 2
 1083 0 1005 35 950 96 c 1
 876 34 781 0 681 0 c 2
 514 0 l 2
 291 0 110 168 110 374 c 2
EndSplineSet
Validated: 1
EndChar

StartChar: Racute
Encoding: 340 340 278
GlifName: R_acute
Width: 1375
GlyphClass: 2
Flags: MW
HStem: 0 21G<140 140 140 351 1058 1058 1058 1315> 585 210<471 634 471 892 891 892 892 931 471 990> 1212 210<351 892 351 351> 1544 422<656 671>
VStem: 140 211<0 1212 0 1422 0 1422> 542 312<1597 1878> 1033 210<933 1072 833 1110.5>
LayerCount: 2
Fore
SplineSet
542 1597 m 1
 671 1966 l 1
 854 1878 l 1
 656 1544 l 1
 542 1597 l 1
140 0 m 1
 140 1422 l 1
 892 1422 l 2
 1085 1422 1243 1265 1243 1072 c 2
 1243 930 l 2
 1243 736 1089 585 891 585 c 1
 1315 0 l 1
 1058 0 l 1
 634 585 l 1
 471 585 l 1
 471 795 l 1
 892 795 l 2
 970 795 1033 857 1033 933 c 2
 1033 1072 l 2
 1033 1149 970 1212 892 1212 c 2
 351 1212 l 1
 351 0 l 1
 140 0 l 1
EndSplineSet
Validated: 1
EndChar

StartChar: racute
Encoding: 341 341 279
GlifName: racute
Width: 719
GlyphClass: 2
Flags: MW
HStem: 0 21G<120 120 120 331> 826 210<394 649 418 649> 1158 422<385 400>
VStem: 120 211<0 742 0 746 0 826> 271 312<1211 1492>
LayerCount: 2
Fore
SplineSet
271 1211 m 1xe8
 400 1580 l 1
 583 1492 l 1
 385 1158 l 1
 271 1211 l 1xe8
120 0 m 1xf0
 120 746 l 2
 120 906 254 1036 418 1036 c 2
 649 1036 l 1
 649 826 l 1
 418 826 l 2
 370 826 331 789 331 742 c 2
 331 0 l 1
 120 0 l 1xf0
EndSplineSet
Validated: 1
EndChar

StartChar: uni0156
Encoding: 342 342 280
GlifName: uni0156
Width: 1375
GlyphClass: 2
Flags: MW
HStem: -536 414<584 871 659 742> 0 21G<140 140 140 351 1058 1058 1058 1315> 585 210<471 634 471 892 891 892 892 931 471 990> 1212 210<351 892 351 351>
VStem: 140 211<0 1212 0 1422 0 1422> 584 287 1033 210<933 1072 833 1110.5>
LayerCount: 2
Fore
SplineSet
584 -536 m 1
 659 -122 l 1
 871 -122 l 1
 742 -536 l 1
 584 -536 l 1
140 0 m 1
 140 1422 l 1
 892 1422 l 2
 1085 1422 1243 1265 1243 1072 c 2
 1243 930 l 2
 1243 736 1089 585 891 585 c 1
 1315 0 l 1
 1058 0 l 1
 634 585 l 1
 471 585 l 1
 471 795 l 1
 892 795 l 2
 970 795 1033 857 1033 933 c 2
 1033 1072 l 2
 1033 1149 970 1212 892 1212 c 2
 351 1212 l 1
 351 0 l 1
 140 0 l 1
EndSplineSet
Validated: 1
EndChar

StartChar: uni0157
Encoding: 343 343 281
GlifName: uni0157
Width: 719
GlyphClass: 2
Flags: MW
HStem: -536 414<113 400 188 271> 0 21G<120 120 120 331> 826 210<394 649 418 649>
VStem: 113 287 120 211<0 742 0 746 0 826>
LayerCount: 2
Fore
SplineSet
113 -536 m 1xf0
 188 -122 l 1
 400 -122 l 1
 271 -536 l 1
 113 -536 l 1xf0
120 0 m 1xe8
 120 746 l 2
 120 906 254 1036 418 1036 c 2
 649 1036 l 1
 649 826 l 1
 418 826 l 2
 370 826 331 789 331 742 c 2
 331 0 l 1
 120 0 l 1xe8
EndSplineSet
Validated: 1
EndChar

StartChar: Rcaron
Encoding: 344 344 282
GlifName: R_caron
Width: 1375
GlyphClass: 2
Flags: MW
HStem: 0 21G<140 140 140 351 1058 1058 1058 1315> 585 210<471 634 471 892 891 892 892 931 471 990> 1212 210<351 892 351 351> 1544 309<416 805 416 650>
VStem: 140 211<0 1212 0 1422 0 1422> 416 623<1853 1853> 1033 210<933 1072 833 1110.5>
LayerCount: 2
Fore
SplineSet
416 1853 m 1xfc
 557 1853 l 1
 727 1681 l 1
 898 1853 l 1
 1039 1853 l 1
 805 1544 l 1
 650 1544 l 1
 416 1853 l 1xfc
140 0 m 1
 140 1422 l 1
 892 1422 l 2
 1085 1422 1243 1265 1243 1072 c 2
 1243 930 l 2
 1243 736 1089 585 891 585 c 1
 1315 0 l 1
 1058 0 l 1
 634 585 l 1
 471 585 l 1
 471 795 l 1
 892 795 l 2
 970 795 1033 857 1033 933 c 2
 1033 1072 l 2xfa
 1033 1149 970 1212 892 1212 c 2
 351 1212 l 1
 351 0 l 1
 140 0 l 1
EndSplineSet
Validated: 1
EndChar

StartChar: rcaron
Encoding: 345 345 283
GlifName: rcaron
Width: 719
GlyphClass: 2
Flags: MW
HStem: 0 21G<120 120 120 331> 826 210<394 649 418 649> 1158 309<73 462 73 307>
VStem: 73 623<1467 1467> 120 211<0 742 0 746 0 826>
LayerCount: 2
Fore
SplineSet
73 1467 m 1xf0
 214 1467 l 1
 384 1295 l 1
 555 1467 l 1
 696 1467 l 1
 462 1158 l 1
 307 1158 l 1
 73 1467 l 1xf0
120 0 m 1xe8
 120 746 l 2
 120 906 254 1036 418 1036 c 2
 649 1036 l 1
 649 826 l 1
 418 826 l 2
 370 826 331 789 331 742 c 2
 331 0 l 1
 120 0 l 1xe8
EndSplineSet
Validated: 1
EndChar

StartChar: Sacute
Encoding: 346 346 284
GlifName: S_acute
Width: 1399
GlyphClass: 2
Flags: MW
HStem: 0 211<121 926 121 926> 635 210<375.5 926 473 926> 1212 210<434 1209 473 1209> 1544 422<700 715>
VStem: 120 211<973 974 974 1072 938.5 1078 938.5 1173> 586 312<1597 1878> 1068 211<346 499 499 500 250 536.5>
LayerCount: 2
Fore
SplineSet
586 1597 m 1
 715 1966 l 1
 898 1878 l 1
 700 1544 l 1
 586 1597 l 1
120 973 m 2
 120 1078 l 2
 120 1268 278 1422 473 1422 c 2
 1209 1422 l 1
 1209 1212 l 1
 473 1212 l 2
 395 1212 331 1149 331 1072 c 2
 331 974 l 2
 331 903 395 845 473 845 c 2
 926 845 l 2
 1121 845 1279 690 1279 500 c 2
 1279 345 l 2
 1279 155 1121 0 926 0 c 2
 121 0 l 1
 121 211 l 1
 926 211 l 2
 1004 211 1068 271 1068 346 c 2
 1068 499 l 2
 1068 574 1004 635 926 635 c 2
 473 635 l 2
 278 635 120 786 120 973 c 2
EndSplineSet
Validated: 1
EndChar

StartChar: sacute
Encoding: 347 347 285
GlifName: sacute
Width: 1193
GlyphClass: 2
Flags: MW
HStem: 0 211<157 786 157 786> 428 210<326 786 408 786> 825 211<384 1016 408 1016> 1158 422<597 612>
VStem: 110 211<720 745 697.5 825.5> 483 312<1211 1492> 873 210<293 345 345 346 211.5 368>
LayerCount: 2
Fore
SplineSet
483 1211 m 1
 612 1580 l 1
 795 1492 l 1
 597 1158 l 1
 483 1211 l 1
110 720 m 2
 110 745 l 2
 110 906 244 1036 408 1036 c 2
 1016 1036 l 1
 1016 825 l 1
 408 825 l 2
 360 825 321 789 321 745 c 2
 321 720 l 2
 321 675 360 638 408 638 c 2
 786 638 l 2
 950 638 1083 507 1083 346 c 2
 1083 292 l 2
 1083 131 950 0 786 0 c 2
 157 0 l 1
 157 211 l 1
 786 211 l 2
 834 211 873 248 873 293 c 2
 873 345 l 2
 873 391 834 428 786 428 c 2
 408 428 l 2
 244 428 110 559 110 720 c 2
EndSplineSet
Validated: 1
EndChar

StartChar: Scircumflex
Encoding: 348 348 286
GlifName: S_circumflex
Width: 1399
GlyphClass: 2
Flags: MW
HStem: 0 211<121 926 121 926> 635 210<375.5 926 473 926> 1212 210<434 1209 473 1209> 1544 309<388 777 388 777 622 870 622 1011>
VStem: 120 211<973 974 974 1072 938.5 1078 938.5 1173> 388 623<1544 1544> 1068 211<346 499 499 500 250 536.5>
CounterMasks: 1 0e
LayerCount: 2
Fore
SplineSet
388 1544 m 1
 622 1853 l 1
 777 1853 l 1
 1011 1544 l 1
 870 1544 l 1
 699 1716 l 1
 529 1544 l 1
 388 1544 l 1
120 973 m 2
 120 1078 l 2
 120 1268 278 1422 473 1422 c 2
 1209 1422 l 1
 1209 1212 l 1
 473 1212 l 2
 395 1212 331 1149 331 1072 c 2
 331 974 l 2
 331 903 395 845 473 845 c 2
 926 845 l 2
 1121 845 1279 690 1279 500 c 2
 1279 345 l 2
 1279 155 1121 0 926 0 c 2
 121 0 l 1
 121 211 l 1
 926 211 l 2
 1004 211 1068 271 1068 346 c 2
 1068 499 l 2
 1068 574 1004 635 926 635 c 2
 473 635 l 2
 278 635 120 786 120 973 c 2
EndSplineSet
Validated: 1
EndChar

StartChar: scircumflex
Encoding: 349 349 287
GlifName: scircumflex
Width: 1193
GlyphClass: 2
Flags: MW
HStem: 0 211<157 786 157 786> 428 210<326 786 408 786> 825 211<384 1016 408 1016> 1158 309<285 674 285 674 519 767 519 908>
VStem: 110 211<720 745 697.5 825.5> 285 623<1158 1158> 873 210<293 345 345 346 211.5 368>
LayerCount: 2
Fore
SplineSet
285 1158 m 1xf4
 519 1467 l 1
 674 1467 l 1
 908 1158 l 1
 767 1158 l 1
 596 1330 l 1
 426 1158 l 1
 285 1158 l 1xf4
110 720 m 2xfa
 110 745 l 2
 110 906 244 1036 408 1036 c 2
 1016 1036 l 1
 1016 825 l 1
 408 825 l 2
 360 825 321 789 321 745 c 2
 321 720 l 2
 321 675 360 638 408 638 c 2
 786 638 l 2
 950 638 1083 507 1083 346 c 2
 1083 292 l 2
 1083 131 950 0 786 0 c 2
 157 0 l 1
 157 211 l 1
 786 211 l 2
 834 211 873 248 873 293 c 2
 873 345 l 2
 873 391 834 428 786 428 c 2
 408 428 l 2
 244 428 110 559 110 720 c 2xfa
EndSplineSet
Validated: 1
EndChar

StartChar: Scedilla
Encoding: 350 350 288
GlifName: S_cedilla
Width: 1399
GlyphClass: 2
Flags: MW
HStem: -303 150<615.5 716> 0 211<121 629 121 926 777 926 777 777> 635 210<375.5 926 473 926> 1212 210<434 1209 473 1209>
VStem: 120 211<973 974 974 1072 938.5 1078 938.5 1173> 664 152<-217.5 -112.5> 1068 211<346 499 499 500 250 536.5>
LayerCount: 2
Fore
SplineSet
120 973 m 2
 120 1078 l 2
 120 1268 278 1422 473 1422 c 2
 1209 1422 l 1
 1209 1212 l 1
 473 1212 l 2
 395 1212 331 1149 331 1072 c 2
 331 974 l 2
 331 903 395 845 473 845 c 2
 926 845 l 2
 1121 845 1279 690 1279 500 c 2
 1279 345 l 2
 1279 155 1121 0 926 0 c 2
 777 0 l 1
 803 -74 816 -130 816 -173 c 0
 816 -262 768 -303 664 -303 c 0
 631 -303 602 -300 514 -287 c 1
 514 -139 l 1
 596 -152 607 -153 624 -153 c 0
 653 -153 664 -145 664 -122 c 0
 664 -103 658 -82 629 0 c 1
 121 0 l 1
 121 211 l 1
 926 211 l 2
 1004 211 1068 271 1068 346 c 2
 1068 499 l 2
 1068 574 1004 635 926 635 c 2
 473 635 l 2
 278 635 120 786 120 973 c 2
EndSplineSet
Validated: 1
EndChar

StartChar: scedilla
Encoding: 351 351 289
GlifName: scedilla
Width: 1193
GlyphClass: 2
Flags: MW
HStem: -303 150<511.5 612> 0 211<157 526 157 786 674 786 674 674> 428 210<326 786 408 786> 825 211<384 1016 408 1016>
VStem: 110 211<720 745 697.5 825.5> 562 150<-217.5 -113> 873 210<293 345 345 346 211.5 368>
LayerCount: 2
Fore
SplineSet
110 720 m 2
 110 745 l 2
 110 906 244 1036 408 1036 c 2
 1016 1036 l 1
 1016 825 l 1
 408 825 l 2
 360 825 321 789 321 745 c 2
 321 720 l 2
 321 675 360 638 408 638 c 2
 786 638 l 2
 950 638 1083 507 1083 346 c 2
 1083 292 l 2
 1083 131 950 0 786 0 c 2
 674 0 l 1
 699 -71 712 -129 712 -173 c 0
 712 -262 664 -303 560 -303 c 0
 527 -303 498 -300 410 -287 c 1
 410 -139 l 1
 492 -152 503 -153 520 -153 c 0
 550 -153 562 -144 562 -122 c 0
 562 -104 557 -89 526 0 c 1
 157 0 l 1
 157 211 l 1
 786 211 l 2
 834 211 873 248 873 293 c 2
 873 345 l 2
 873 391 834 428 786 428 c 2
 408 428 l 2
 244 428 110 559 110 720 c 2
EndSplineSet
Validated: 1
EndChar

StartChar: Scaron
Encoding: 352 352 290
GlifName: S_caron
Width: 1399
GlyphClass: 2
Flags: MW
HStem: 0 211<121 926 121 926> 635 210<375.5 926 473 926> 1212 210<434 1209 473 1209> 1544 309<388 777 388 622>
VStem: 120 211<973 974 974 1072 938.5 1078 938.5 1173> 388 623<1853 1853> 1068 211<346 499 499 500 250 536.5>
CounterMasks: 1 0e
LayerCount: 2
Fore
SplineSet
388 1853 m 1
 529 1853 l 1
 699 1681 l 1
 870 1853 l 1
 1011 1853 l 1
 777 1544 l 1
 622 1544 l 1
 388 1853 l 1
120 973 m 2
 120 1078 l 2
 120 1268 278 1422 473 1422 c 2
 1209 1422 l 1
 1209 1212 l 1
 473 1212 l 2
 395 1212 331 1149 331 1072 c 2
 331 974 l 2
 331 903 395 845 473 845 c 2
 926 845 l 2
 1121 845 1279 690 1279 500 c 2
 1279 345 l 2
 1279 155 1121 0 926 0 c 2
 121 0 l 1
 121 211 l 1
 926 211 l 2
 1004 211 1068 271 1068 346 c 2
 1068 499 l 2
 1068 574 1004 635 926 635 c 2
 473 635 l 2
 278 635 120 786 120 973 c 2
EndSplineSet
Validated: 1
EndChar

StartChar: scaron
Encoding: 353 353 291
GlifName: scaron
Width: 1193
GlyphClass: 2
Flags: MW
HStem: 0 211<157 786 157 786> 428 210<326 786 408 786> 825 211<384 1016 408 1016> 1158 309<285 674 285 519>
VStem: 110 211<720 745 697.5 825.5> 285 623<1467 1467> 873 210<293 345 345 346 211.5 368>
LayerCount: 2
Fore
SplineSet
285 1467 m 1xf4
 426 1467 l 1
 596 1295 l 1
 767 1467 l 1
 908 1467 l 1
 674 1158 l 1
 519 1158 l 1
 285 1467 l 1xf4
110 720 m 2xfa
 110 745 l 2
 110 906 244 1036 408 1036 c 2
 1016 1036 l 1
 1016 825 l 1
 408 825 l 2
 360 825 321 789 321 745 c 2
 321 720 l 2
 321 675 360 638 408 638 c 2
 786 638 l 2
 950 638 1083 507 1083 346 c 2
 1083 292 l 2
 1083 131 950 0 786 0 c 2
 157 0 l 1
 157 211 l 1
 786 211 l 2
 834 211 873 248 873 293 c 2
 873 345 l 2
 873 391 834 428 786 428 c 2
 408 428 l 2
 244 428 110 559 110 720 c 2xfa
EndSplineSet
Validated: 1
EndChar

StartChar: uni0162
Encoding: 354 354 292
GlifName: uni0162
Width: 1238
GlyphClass: 2
Flags: MW
HStem: -303 150<533.5 634> 1212 210<40 1198 40 513 725 725 725 1198>
VStem: 513 212<0 1212 0 1212> 583 151<-217.5 -112.5>
LayerCount: 2
Fore
SplineSet
40 1212 m 1xe0
 40 1422 l 1
 1198 1422 l 1
 1198 1212 l 1
 725 1212 l 1
 725 0 l 1xe0
 696 0 l 1
 721 -70 734 -128 734 -173 c 0
 734 -262 686 -303 582 -303 c 0
 549 -303 520 -300 432 -287 c 1
 432 -139 l 1
 514 -152 525 -153 542 -153 c 0
 572 -153 583 -144 583 -122 c 0xd0
 583 -103 577 -80 548 0 c 1
 513 0 l 1
 513 1212 l 1
 40 1212 l 1xe0
EndSplineSet
Validated: 1
EndChar

StartChar: uni0163
Encoding: 355 355 293
GlifName: uni0163
Width: 805
GlyphClass: 2
Flags: MW
HStem: -303 150<467.5 568> 0 211<630 735 630 630> 825 211<70 205 70 205 416 735> 1402 20G<205 416 416 416>
VStem: 205 211<293 294 294 825 1036 1422> 518 151<-217.5 -112>
LayerCount: 2
Fore
SplineSet
70 825 m 1
 70 1036 l 1
 205 1036 l 1
 205 1422 l 1
 416 1422 l 1
 416 1036 l 1
 735 1036 l 1
 735 825 l 1
 416 825 l 1
 416 294 l 2
 416 248 456 211 506 211 c 2
 735 211 l 1
 735 0 l 1
 630 0 l 1
 656 -74 669 -130 669 -173 c 0
 669 -262 620 -303 516 -303 c 0
 483 -303 454 -300 366 -287 c 1
 366 -139 l 1
 448 -152 459 -153 476 -153 c 0
 506 -153 518 -144 518 -122 c 0
 518 -102 511 -78 482 1 c 1
 326 12 205 139 205 293 c 2
 205 825 l 1
 70 825 l 1
EndSplineSet
Validated: 1
EndChar

StartChar: Tcaron
Encoding: 356 356 294
GlifName: T_caron
Width: 1238
GlyphClass: 2
Flags: MW
HStem: 0 21G<513 725 513 513> 1212 210<40 1198 40 513 725 725 725 1198> 1544 309<308 697 308 542>
VStem: 308 623<1853 1853> 513 212<0 1212 0 1212>
LayerCount: 2
Fore
SplineSet
308 1853 m 1xf0
 449 1853 l 1
 619 1681 l 1
 790 1853 l 1
 931 1853 l 1
 697 1544 l 1
 542 1544 l 1
 308 1853 l 1xf0
40 1212 m 1
 40 1422 l 1
 1198 1422 l 1
 1198 1212 l 1
 725 1212 l 1
 725 0 l 1
 513 0 l 1
 513 1212 l 1xe8
 40 1212 l 1
EndSplineSet
Validated: 1
EndChar

StartChar: tcaron
Encoding: 357 357 295
GlifName: tcaron
Width: 805
GlyphClass: 2
Flags: MW
HStem: 0 211<421 735 506 735 506 735> 825 211<70 205 70 205 416 735> 1146 276<905 1040 905 905>
VStem: 205 211<293 294 294 825 1036 1422> 905 135<1146 1146>
LayerCount: 2
Fore
SplineSet
70 825 m 1
 70 1036 l 1
 205 1036 l 1
 205 1422 l 1
 416 1422 l 1
 416 1036 l 1
 735 1036 l 1
 735 825 l 1
 416 825 l 1
 416 294 l 2
 416 248 456 211 506 211 c 2
 735 211 l 1
 735 0 l 1
 503 0 l 2
 339 0 205 131 205 293 c 2
 205 825 l 1
 70 825 l 1
898 1422 m 1
 1047 1422 l 1
 1040 1146 l 1
 905 1146 l 1
 898 1422 l 1
EndSplineSet
Validated: 1
EndChar

StartChar: Tbar
Encoding: 358 358 296
GlifName: T_bar
Width: 1238
GlyphClass: 2
Flags: MW
HStem: 0 21G<518 731 518 518> 634 212<291 518 291 518 731 956> 1212 210<40 1198 40 518 731 731 731 1198>
VStem: 518 213<0 634 0 634 846 1212>
LayerCount: 2
Fore
SplineSet
40 1212 m 1
 40 1422 l 1
 1198 1422 l 1
 1198 1212 l 1
 731 1212 l 1
 731 846 l 1
 956 846 l 1
 956 634 l 1
 731 634 l 1
 731 0 l 1
 518 0 l 1
 518 634 l 1
 291 634 l 1
 291 846 l 1
 518 846 l 1
 518 1212 l 1
 40 1212 l 1
EndSplineSet
Validated: 1
EndChar

StartChar: tbar
Encoding: 359 359 297
GlifName: tbar
Width: 866
GlyphClass: 2
Flags: MW
HStem: 0 211<451 765 536 765 536 765> 484 212<101 235 101 235 446 766 101 446> 825 211<100 235 100 235 446 765> 1402 20G<235 446 446 446>
VStem: 235 211<293 294 294 484 271 484 696 825 1036 1422>
LayerCount: 2
Fore
SplineSet
100 825 m 1
 100 1036 l 1
 235 1036 l 1
 235 1422 l 1
 446 1422 l 1
 446 1036 l 1
 765 1036 l 1
 765 825 l 1
 446 825 l 1
 446 696 l 1
 766 696 l 1
 766 484 l 1
 446 484 l 1
 446 294 l 2
 446 248 486 211 536 211 c 2
 765 211 l 1
 765 0 l 1
 533 0 l 2
 369 0 235 131 235 293 c 2
 235 484 l 1
 101 484 l 1
 101 696 l 1
 235 696 l 1
 235 825 l 1
 100 825 l 1
EndSplineSet
Validated: 1
EndChar

StartChar: Utilde
Encoding: 360 360 298
GlifName: U_tilde
Width: 1438
GlyphClass: 2
Flags: MW
HStem: 0 211<433 894 545 894> 1402 20G<140 351 351 351 1088 1298 1298 1298> 1544 154<830.5 851.5 820.5 899.5> 1625 148<564.5 589.5 518 595.5>
VStem: 140 211<397 399 399 1422> 380 155<1552 1577> 881 157<1744 1768> 1088 210<399 1422>
LayerCount: 2
Fore
SplineSet
380 1552 m 1xdf
 381 1680 462 1773 574 1773 c 0xdf
 605 1773 637 1764 705 1736 c 0
 778 1706 805 1698 836 1698 c 0
 867 1698 881 1720 881 1768 c 1
 1038 1768 l 1
 1038 1644 953 1544 846 1544 c 0xef
 815 1544 783 1554 713 1584 c 0
 638 1616 611 1625 580 1625 c 0
 549 1625 535 1602 535 1552 c 1
 380 1552 l 1xdf
140 397 m 2
 140 1422 l 1
 351 1422 l 1
 351 399 l 2
 351 295 438 211 545 211 c 2
 894 211 l 2
 1001 211 1088 295 1088 399 c 2
 1088 1422 l 1
 1298 1422 l 1
 1298 397 l 2
 1298 178 1117 0 894 0 c 2
 545 0 l 2
 321 0 140 178 140 397 c 2
EndSplineSet
Validated: 1
EndChar

StartChar: utilde
Encoding: 361 361 299
GlifName: utilde
Width: 1192
GlyphClass: 2
Flags: MW
HStem: 0 209<391 861 494 859> 1016 20G<120 331 331 331 861 1072 1072 1072> 1158 154<717.5 738.5 707.5 786.5> 1239 148<451.5 476.5 405 482.5>
VStem: 120 211<374 377 377 1036> 267 155<1166 1191> 768 157<1358 1382> 861 211<209 210 210 1036>
LayerCount: 2
Fore
SplineSet
267 1166 m 1xd6
 268 1294 349 1387 461 1387 c 0xd6
 492 1387 524 1378 592 1350 c 0
 665 1320 692 1312 723 1312 c 0
 754 1312 768 1334 768 1382 c 1
 925 1382 l 1
 925 1258 840 1158 733 1158 c 0xea
 702 1158 670 1168 600 1198 c 0
 525 1230 498 1239 467 1239 c 0
 436 1239 422 1216 422 1166 c 1
 267 1166 l 1xd6
120 374 m 2xe9
 120 1036 l 1
 331 1036 l 1
 331 377 l 2
 331 284 404 209 494 209 c 2
 861 209 l 1
 861 1036 l 1
 1072 1036 l 1
 1072 210 l 2
 1072 94 977 0 859 0 c 2
 494 0 l 2
 288 0 120 168 120 374 c 2xe9
EndSplineSet
Validated: 1
EndChar

StartChar: Umacron
Encoding: 362 362 300
GlifName: U_macron
Width: 1438
GlyphClass: 2
Flags: MW
HStem: 0 211<433 894 545 894> 1402 20G<140 351 351 351 1088 1298 1298 1298> 1544 147<411 1008 411 1008>
VStem: 140 211<397 399 399 1422> 411 597<1544 1691 1544 1691> 1088 210<399 1422>
LayerCount: 2
Fore
SplineSet
411 1544 m 1
 411 1691 l 1
 1008 1691 l 1
 1008 1544 l 1
 411 1544 l 1
140 397 m 2
 140 1422 l 1
 351 1422 l 1
 351 399 l 2
 351 295 438 211 545 211 c 2
 894 211 l 2
 1001 211 1088 295 1088 399 c 2
 1088 1422 l 1
 1298 1422 l 1
 1298 397 l 2
 1298 178 1117 0 894 0 c 2
 545 0 l 2
 321 0 140 178 140 397 c 2
EndSplineSet
Validated: 1
EndChar

StartChar: umacron
Encoding: 363 363 301
GlifName: umacron
Width: 1192
GlyphClass: 2
Flags: MW
HStem: 0 209<391 861 494 859> 1016 20G<120 331 331 331 861 1072 1072 1072> 1158 147<298 895 298 895>
VStem: 120 211<374 377 377 1036> 298 597<1158 1305 1158 1305> 861 211<209 210 210 1036>
LayerCount: 2
Fore
SplineSet
298 1158 m 1xe8
 298 1305 l 1
 895 1305 l 1
 895 1158 l 1
 298 1158 l 1xe8
120 374 m 2xf4
 120 1036 l 1
 331 1036 l 1
 331 377 l 2
 331 284 404 209 494 209 c 2
 861 209 l 1
 861 1036 l 1
 1072 1036 l 1
 1072 210 l 2
 1072 94 977 0 859 0 c 2
 494 0 l 2
 288 0 120 168 120 374 c 2xf4
EndSplineSet
Validated: 1
EndChar

StartChar: Ubreve
Encoding: 364 364 302
GlifName: U_breve
Width: 1438
GlyphClass: 2
Flags: MW
HStem: 0 211<433 894 545 894> 1402 20G<140 351 351 351 1088 1298 1298 1298> 1544 134<664 754 664 791>
VStem: 140 211<397 399 399 1422> 411 134<1797 1842> 873 134<1797 1842> 1088 210<399 1422>
LayerCount: 2
Fore
SplineSet
411 1842 m 1
 545 1842 l 1
 545 1752 619 1678 709 1678 c 0
 799 1678 873 1752 873 1842 c 1
 1007 1842 l 1
 1007 1678 873 1544 709 1544 c 0
 545 1544 411 1678 411 1842 c 1
140 397 m 2
 140 1422 l 1
 351 1422 l 1
 351 399 l 2
 351 295 438 211 545 211 c 2
 894 211 l 2
 1001 211 1088 295 1088 399 c 2
 1088 1422 l 1
 1298 1422 l 1
 1298 397 l 2
 1298 178 1117 0 894 0 c 2
 545 0 l 2
 321 0 140 178 140 397 c 2
EndSplineSet
Validated: 1
EndChar

StartChar: ubreve
Encoding: 365 365 303
GlifName: ubreve
Width: 1192
GlyphClass: 2
Flags: MW
HStem: 0 209<391 861 494 859> 1016 20G<120 331 331 331 861 1072 1072 1072> 1158 134<551 641 551 678>
VStem: 120 211<374 377 377 1036> 298 134<1411 1456 1411 1456> 760 134<1411 1456> 861 211<209 210 210 1036>
LayerCount: 2
Fore
SplineSet
298 1456 m 1xec
 432 1456 l 1
 432 1366 506 1292 596 1292 c 0
 686 1292 760 1366 760 1456 c 1
 894 1456 l 1
 894 1292 760 1158 596 1158 c 0
 432 1158 298 1292 298 1456 c 1xec
120 374 m 2xf2
 120 1036 l 1
 331 1036 l 1
 331 377 l 2
 331 284 404 209 494 209 c 2
 861 209 l 1
 861 1036 l 1
 1072 1036 l 1
 1072 210 l 2
 1072 94 977 0 859 0 c 2
 494 0 l 2
 288 0 120 168 120 374 c 2xf2
EndSplineSet
Validated: 1
EndChar

StartChar: Uring
Encoding: 366 366 304
GlifName: U_ring
Width: 1438
GlyphClass: 2
Flags: MW
HStem: 0 211<433 894 545 894> 1402 20G<140 351 351 351 1088 1298 1298 1298> 1544 118<642 729 689 729> 1807 118<674.5 729 689 729>
VStem: 140 211<397 399 399 1422> 519 118<1713 1756 1699 1803> 781 118<1713 1756 1666 1770> 1088 210<399 1422>
LayerCount: 2
Fore
SplineSet
637 1756 m 2
 637 1713 l 2
 637 1685 660 1662 689 1662 c 2
 729 1662 l 2
 758 1662 781 1685 781 1713 c 2
 781 1756 l 2
 781 1784 758 1807 729 1807 c 2
 689 1807 l 2
 660 1807 637 1784 637 1756 c 2
140 397 m 2
 140 1422 l 1
 351 1422 l 1
 351 399 l 2
 351 295 438 211 545 211 c 2
 894 211 l 2
 1001 211 1088 295 1088 399 c 2
 1088 1422 l 1
 1298 1422 l 1
 1298 397 l 2
 1298 178 1117 0 894 0 c 2
 545 0 l 2
 321 0 140 178 140 397 c 2
519 1713 m 2
 519 1756 l 2
 519 1850 595 1925 689 1925 c 2
 729 1925 l 2
 823 1925 899 1850 899 1756 c 2
 899 1713 l 2
 899 1619 823 1544 729 1544 c 2
 689 1544 l 2
 595 1544 519 1619 519 1713 c 2
EndSplineSet
Validated: 1
EndChar

StartChar: uring
Encoding: 367 367 305
GlifName: uring
Width: 1192
GlyphClass: 2
Flags: MW
HStem: 0 209<391 861 494 859> 1016 20G<120 331 331 331 861 1072 1072 1072> 1158 118<529 616 576 616> 1421 118<561.5 616 576 616>
VStem: 120 211<374 377 377 1036> 406 118<1327 1370 1313 1417> 668 118<1327 1370 1280 1384> 861 211<209 210 210 1036>
LayerCount: 2
Fore
SplineSet
524 1370 m 2
 524 1327 l 2
 524 1299 547 1276 576 1276 c 2
 616 1276 l 2
 645 1276 668 1299 668 1327 c 2
 668 1370 l 2
 668 1398 645 1421 616 1421 c 2
 576 1421 l 2
 547 1421 524 1398 524 1370 c 2
120 374 m 2
 120 1036 l 1
 331 1036 l 1
 331 377 l 2
 331 284 404 209 494 209 c 2
 861 209 l 1
 861 1036 l 1
 1072 1036 l 1
 1072 210 l 2
 1072 94 977 0 859 0 c 2
 494 0 l 2
 288 0 120 168 120 374 c 2
406 1327 m 2
 406 1370 l 2
 406 1464 482 1539 576 1539 c 2
 616 1539 l 2
 710 1539 786 1464 786 1370 c 2
 786 1327 l 2
 786 1233 710 1158 616 1158 c 2
 576 1158 l 2
 482 1158 406 1233 406 1327 c 2
EndSplineSet
Validated: 1
EndChar

StartChar: Uhungarumlaut
Encoding: 368 368 306
GlifName: U_hungarumlaut
Width: 1438
GlyphClass: 2
Flags: MW
HStem: 0 211<433 894 545 894> 1402 20G<140 351 351 351 1088 1298 1298 1298> 1544 271<488 805 628 634 785 805 925 931 785 785>
VStem: 140 211<397 399 399 1422> 488 614<1544 1815> 1088 210<399 1422>
LayerCount: 2
Fore
SplineSet
488 1544 m 1xf8
 628 1815 l 1
 805 1815 l 1
 634 1544 l 1
 488 1544 l 1xf8
785 1544 m 1
 925 1815 l 1
 1102 1815 l 1
 931 1544 l 1
 785 1544 l 1
140 397 m 2
 140 1422 l 1
 351 1422 l 1
 351 399 l 2
 351 295 438 211 545 211 c 2
 894 211 l 2
 1001 211 1088 295 1088 399 c 2
 1088 1422 l 1
 1298 1422 l 1
 1298 397 l 2xf4
 1298 178 1117 0 894 0 c 2
 545 0 l 2
 321 0 140 178 140 397 c 2
EndSplineSet
Validated: 1
EndChar

StartChar: uhungarumlaut
Encoding: 369 369 307
GlifName: uhungarumlaut
Width: 1192
GlyphClass: 2
Flags: MW
HStem: 0 209<391 861 494 859> 1016 20G<120 331 331 331 861 1072 1072 1072> 1158 271<434 751 574 580 731 751 871 877 731 731>
VStem: 120 211<374 377 377 1036> 434 614<1158 1429> 861 211<209 210 210 1036>
LayerCount: 2
Fore
SplineSet
434 1158 m 1xf8
 574 1429 l 1
 751 1429 l 1
 580 1158 l 1
 434 1158 l 1xf8
731 1158 m 1
 871 1429 l 1
 1048 1429 l 1
 877 1158 l 1
 731 1158 l 1
120 374 m 2
 120 1036 l 1
 331 1036 l 1
 331 377 l 2
 331 284 404 209 494 209 c 2
 861 209 l 1
 861 1036 l 1
 1072 1036 l 1
 1072 210 l 2xf4
 1072 94 977 0 859 0 c 2
 494 0 l 2
 288 0 120 168 120 374 c 2
EndSplineSet
Validated: 1
EndChar

StartChar: Uogonek
Encoding: 370 370 308
GlifName: U_ogonek
Width: 1438
GlyphClass: 2
Flags: MW
HStem: -303 150<703 803.5> 0 211<433 894 545 641 789 894 789 789> 1402 20G<140 351 351 351 1088 1298 1298 1298>
VStem: 140 211<397 399 399 1422> 603 151<-217.5 -111.5> 1088 210<399 1422>
LayerCount: 2
Fore
SplineSet
140 397 m 2
 140 1422 l 1
 351 1422 l 1
 351 399 l 2
 351 295 438 211 545 211 c 2
 894 211 l 2
 1001 211 1088 295 1088 399 c 2
 1088 1422 l 1
 1298 1422 l 1
 1298 397 l 2
 1298 178 1117 0 894 0 c 2
 789 0 l 1
 762 -73 754 -101 754 -122 c 0
 754 -144 765 -153 795 -153 c 0
 812 -153 823 -152 905 -139 c 1
 905 -287 l 1
 817 -300 788 -303 755 -303 c 0
 651 -303 603 -262 603 -173 c 0
 603 -130 616 -72 641 0 c 1
 545 0 l 2
 321 0 140 178 140 397 c 2
EndSplineSet
Validated: 1
EndChar

StartChar: uogonek
Encoding: 371 371 309
GlifName: uogonek
Width: 1192
GlyphClass: 2
Flags: MW
HStem: -303 150<760 860.5> 0 209<391 861 494 698 846 859 846 846> 1016 20G<120 331 331 331 861 1072 1072 1072>
VStem: 120 211<374 377 377 1036> 660 151<-217.5 -111.5> 861 211<209 210 210 1036>
LayerCount: 2
Fore
SplineSet
120 374 m 2
 120 1036 l 1
 331 1036 l 1
 331 377 l 2
 331 284 404 209 494 209 c 2
 861 209 l 1
 861 1036 l 1
 1072 1036 l 1
 1072 210 l 2
 1072 94 977 0 859 0 c 2
 846 0 l 1
 819 -73 811 -101 811 -122 c 0
 811 -144 822 -153 852 -153 c 0
 869 -153 880 -152 962 -139 c 1
 962 -287 l 1
 874 -300 845 -303 812 -303 c 0
 708 -303 660 -262 660 -173 c 0
 660 -130 673 -72 698 0 c 1
 494 0 l 2
 288 0 120 168 120 374 c 2
EndSplineSet
Validated: 1
EndChar

